<svg width="50" height="32" viewBox="0 0 50 32" fill="none" xmlns="http://www.w3.org/2000/svg">
<g id="Behance Icon">
<g id="Dribbble-Light-Preview">
<g id="icons">
<path id="behance-[#163]" fill-rule="evenodd" clip-rule="evenodd" d="M31.9532 5.21154H44.4775V1.625H31.9532V5.21154ZM38.1268 12.4147C35.3329 12.4147 33.2111 14.1455 33.0068 17.3438H43.0301C42.3508 13.5481 40.6646 12.4147 38.1268 12.4147ZM38.5182 27.2488C41.0978 27.2488 42.9908 25.6192 43.3772 24.2464H48.8025C47.2517 29.2115 44.0492 32 38.2991 32C30.9612 32 26.8431 26.781 26.8431 19.8558C26.8431 3.54687 50.3754 2.96216 49.1938 21.3786H33.0068C33.1643 25.1183 34.7077 27.2488 38.5182 27.2488ZM14.1046 26.5313C17.0658 26.5313 19.1385 25.3922 19.1385 22.3185C19.1385 19.1305 17.3071 17.7476 14.2326 17.7476H6.81354V26.5313H14.1046ZM13.7132 12.9531C16.1772 12.9531 17.8782 11.8062 17.8782 9.14183C17.8782 6.33513 15.8991 5.46875 13.1938 5.46875H6.81354V12.9531H13.7132ZM14.5822 0C20.4185 0 24.4751 1.9291 24.4751 7.93149C24.4751 10.9035 23.2812 13.1182 20.2659 14.6106C24.1255 15.7572 25.952 18.7677 25.952 22.7236C25.952 29.0031 20.9723 32 15.0154 32H0V0H14.5822Z" fill="white" fill-opacity="0.8"/>
</g>
</g>
</g>
</svg>
