<svg width="74" height="48" viewBox="0 0 74 48" fill="none" xmlns="http://www.w3.org/2000/svg">
<path fill-rule="evenodd" clip-rule="evenodd" d="M47.9298 7.81731H66.7163V2.4375H47.9298V7.81731ZM57.1901 18.622C52.9994 18.622 49.8166 21.2183 49.5102 26.0156H64.5452C63.5261 20.3221 60.9969 18.622 57.1901 18.622ZM57.7772 40.8732C61.6468 40.8732 64.4862 38.4289 65.0658 36.3696H73.2037C70.8775 43.8173 66.0738 48 57.4486 48C46.4418 48 40.2646 40.1715 40.2646 29.7837C40.2646 5.32031 75.5631 4.44324 73.7908 32.0679H49.5102C49.7465 37.6775 52.0615 40.8732 57.7772 40.8732ZM21.1569 39.7969C25.5988 39.7969 28.7077 38.0882 28.7077 33.4778C28.7077 28.6957 25.9606 26.6214 21.3489 26.6214H10.2203V39.7969H21.1569ZM20.5698 19.4297C24.2658 19.4297 26.8172 17.7093 26.8172 13.7127C26.8172 9.5027 23.8486 8.20313 19.7908 8.20313H10.2203V19.4297H20.5698ZM21.8732 0C30.6277 0 36.7126 2.89365 36.7126 11.8972C36.7126 16.3552 34.9219 19.6774 30.3988 21.9159C36.1883 23.6357 38.928 28.1516 38.928 34.0853C38.928 43.5046 31.4585 48 22.5231 48H0V0H21.8732Z" fill="#F7F7F8"/>
</svg>
