<svg width="511" height="440" viewBox="0 0 511 440" fill="none" xmlns="http://www.w3.org/2000/svg">
<g id="Category Positioning">
<g id="Category Positioning Graph">
<rect x="110" y="74" width="284" height="292" rx="20" fill="#848484" fill-opacity="0.2"/>
<g id="Header">
<g id="Header Text">
<g id="Ellipse 3075" filter="url(#filter1_f_867_6)">
<circle cx="133" cy="97.5" r="5" fill="#0077FF"/>
</g>
<path id="Margin Expansion" d="M159.28 91.832V103H157.04V95.736L154.048 103H152.352L149.344 95.736V103H147.104V91.832H149.648L153.2 100.136L156.752 91.832H159.28ZM160.599 98.536C160.599 97.64 160.775 96.8453 161.127 96.152C161.489 95.4587 161.975 94.9253 162.583 94.552C163.201 94.1787 163.889 93.992 164.647 93.992C165.308 93.992 165.884 94.1253 166.375 94.392C166.876 94.6587 167.276 94.9947 167.575 95.4V94.136H169.831V103H167.575V101.704C167.287 102.12 166.887 102.467 166.375 102.744C165.873 103.011 165.292 103.144 164.631 103.144C163.884 103.144 163.201 102.952 162.583 102.568C161.975 102.184 161.489 101.645 161.127 100.952C160.775 100.248 160.599 99.4427 160.599 98.536ZM167.575 98.568C167.575 98.024 167.468 97.56 167.255 97.176C167.041 96.7813 166.753 96.4827 166.391 96.28C166.028 96.0667 165.639 95.96 165.223 95.96C164.807 95.96 164.423 96.0613 164.071 96.264C163.719 96.4667 163.431 96.7653 163.207 97.16C162.993 97.544 162.887 98.0027 162.887 98.536C162.887 99.0693 162.993 99.5387 163.207 99.944C163.431 100.339 163.719 100.643 164.071 100.856C164.433 101.069 164.817 101.176 165.223 101.176C165.639 101.176 166.028 101.075 166.391 100.872C166.753 100.659 167.041 100.36 167.255 99.976C167.468 99.5813 167.575 99.112 167.575 98.568ZM173.938 95.512C174.226 95.0427 174.6 94.6747 175.058 94.408C175.528 94.1413 176.061 94.008 176.658 94.008V96.36H176.066C175.362 96.36 174.829 96.5253 174.466 96.856C174.114 97.1867 173.938 97.7627 173.938 98.584V103H171.698V94.136H173.938V95.512ZM181.319 93.992C181.98 93.992 182.562 94.1253 183.063 94.392C183.564 94.648 183.959 94.984 184.247 95.4V94.136H186.503V103.064C186.503 103.885 186.338 104.616 186.007 105.256C185.676 105.907 185.18 106.419 184.519 106.792C183.858 107.176 183.058 107.368 182.119 107.368C180.86 107.368 179.826 107.075 179.015 106.488C178.215 105.901 177.762 105.101 177.655 104.088H179.879C179.996 104.493 180.247 104.813 180.631 105.048C181.026 105.293 181.5 105.416 182.055 105.416C182.706 105.416 183.234 105.219 183.639 104.824C184.044 104.44 184.247 103.853 184.247 103.064V101.688C183.959 102.104 183.559 102.451 183.047 102.728C182.546 103.005 181.97 103.144 181.319 103.144C180.572 103.144 179.89 102.952 179.271 102.568C178.652 102.184 178.162 101.645 177.799 100.952C177.447 100.248 177.271 99.4427 177.271 98.536C177.271 97.64 177.447 96.8453 177.799 96.152C178.162 95.4587 178.647 94.9253 179.255 94.552C179.874 94.1787 180.562 93.992 181.319 93.992ZM184.247 98.568C184.247 98.024 184.14 97.56 183.927 97.176C183.714 96.7813 183.426 96.4827 183.063 96.28C182.7 96.0667 182.311 95.96 181.895 95.96C181.479 95.96 181.095 96.0613 180.743 96.264C180.391 96.4667 180.103 96.7653 179.879 97.16C179.666 97.544 179.559 98.0027 179.559 98.536C179.559 99.0693 179.666 99.5387 179.879 99.944C180.103 100.339 180.391 100.643 180.743 100.856C181.106 101.069 181.49 101.176 181.895 101.176C182.311 101.176 182.7 101.075 183.063 100.872C183.426 100.659 183.714 100.36 183.927 99.976C184.14 99.5813 184.247 99.112 184.247 98.568ZM189.507 93.08C189.112 93.08 188.782 92.9573 188.515 92.712C188.259 92.456 188.131 92.1413 188.131 91.768C188.131 91.3947 188.259 91.0853 188.515 90.84C188.782 90.584 189.112 90.456 189.507 90.456C189.902 90.456 190.227 90.584 190.483 90.84C190.75 91.0853 190.883 91.3947 190.883 91.768C190.883 92.1413 190.75 92.456 190.483 92.712C190.227 92.9573 189.902 93.08 189.507 93.08ZM190.611 94.136V103H188.371V94.136H190.611ZM197.416 94.008C198.472 94.008 199.325 94.344 199.976 95.016C200.627 95.6773 200.952 96.6053 200.952 97.8V103H198.712V98.104C198.712 97.4 198.536 96.8613 198.184 96.488C197.832 96.104 197.352 95.912 196.744 95.912C196.125 95.912 195.635 96.104 195.272 96.488C194.92 96.8613 194.744 97.4 194.744 98.104V103H192.504V94.136H194.744V95.24C195.043 94.856 195.421 94.5573 195.88 94.344C196.349 94.12 196.861 94.008 197.416 94.008ZM208.495 93.64V96.44H212.255V98.216H208.495V101.176H212.735V103H206.255V91.816H212.735V93.64H208.495ZM219.346 103L217.522 100.248L215.906 103H213.506L216.402 98.552L213.474 94.136H216.002L217.81 96.872L219.442 94.136H221.842L218.93 98.552L221.874 103H219.346ZM225.011 95.416C225.299 95.0107 225.694 94.6747 226.195 94.408C226.707 94.1307 227.288 93.992 227.939 93.992C228.696 93.992 229.379 94.1787 229.987 94.552C230.606 94.9253 231.091 95.4587 231.443 96.152C231.806 96.8347 231.987 97.6293 231.987 98.536C231.987 99.4427 231.806 100.248 231.443 100.952C231.091 101.645 230.606 102.184 229.987 102.568C229.379 102.952 228.696 103.144 227.939 103.144C227.288 103.144 226.712 103.011 226.211 102.744C225.72 102.477 225.32 102.141 225.011 101.736V107.224H222.771V94.136H225.011V95.416ZM229.699 98.536C229.699 98.0027 229.587 97.544 229.363 97.16C229.15 96.7653 228.862 96.4667 228.499 96.264C228.147 96.0613 227.763 95.96 227.347 95.96C226.942 95.96 226.558 96.0667 226.195 96.28C225.843 96.4827 225.555 96.7813 225.331 97.176C225.118 97.5707 225.011 98.0347 225.011 98.568C225.011 99.1013 225.118 99.5653 225.331 99.96C225.555 100.355 225.843 100.659 226.195 100.872C226.558 101.075 226.942 101.176 227.347 101.176C227.763 101.176 228.147 101.069 228.499 100.856C228.862 100.643 229.15 100.339 229.363 99.944C229.587 99.5493 229.699 99.08 229.699 98.536ZM232.719 98.536C232.719 97.64 232.895 96.8453 233.247 96.152C233.609 95.4587 234.095 94.9253 234.703 94.552C235.321 94.1787 236.009 93.992 236.767 93.992C237.428 93.992 238.004 94.1253 238.495 94.392C238.996 94.6587 239.396 94.9947 239.695 95.4V94.136H241.951V103H239.695V101.704C239.407 102.12 239.007 102.467 238.495 102.744C237.993 103.011 237.412 103.144 236.751 103.144C236.004 103.144 235.321 102.952 234.703 102.568C234.095 102.184 233.609 101.645 233.247 100.952C232.895 100.248 232.719 99.4427 232.719 98.536ZM239.695 98.568C239.695 98.024 239.588 97.56 239.375 97.176C239.161 96.7813 238.873 96.4827 238.511 96.28C238.148 96.0667 237.759 95.96 237.343 95.96C236.927 95.96 236.543 96.0613 236.191 96.264C235.839 96.4667 235.551 96.7653 235.327 97.16C235.113 97.544 235.007 98.0027 235.007 98.536C235.007 99.0693 235.113 99.5387 235.327 99.944C235.551 100.339 235.839 100.643 236.191 100.856C236.553 101.069 236.937 101.176 237.343 101.176C237.759 101.176 238.148 101.075 238.511 100.872C238.873 100.659 239.161 100.36 239.375 99.976C239.588 99.5813 239.695 99.112 239.695 98.568ZM248.73 94.008C249.786 94.008 250.64 94.344 251.29 95.016C251.941 95.6773 252.266 96.6053 252.266 97.8V103H250.026V98.104C250.026 97.4 249.85 96.8613 249.498 96.488C249.146 96.104 248.666 95.912 248.058 95.912C247.44 95.912 246.949 96.104 246.586 96.488C246.234 96.8613 246.058 97.4 246.058 98.104V103H243.818V94.136H246.058V95.24C246.357 94.856 246.736 94.5573 247.194 94.344C247.664 94.12 248.176 94.008 248.73 94.008ZM257.469 103.144C256.743 103.144 256.093 103.016 255.517 102.76C254.941 102.493 254.482 102.136 254.141 101.688C253.81 101.24 253.629 100.744 253.597 100.2H255.853C255.895 100.541 256.061 100.824 256.349 101.048C256.647 101.272 257.015 101.384 257.453 101.384C257.879 101.384 258.21 101.299 258.445 101.128C258.69 100.957 258.813 100.739 258.813 100.472C258.813 100.184 258.663 99.9707 258.365 99.832C258.077 99.6827 257.613 99.5227 256.973 99.352C256.311 99.192 255.767 99.0267 255.341 98.856C254.925 98.6853 254.562 98.424 254.253 98.072C253.954 97.72 253.805 97.2453 253.805 96.648C253.805 96.1573 253.943 95.7093 254.221 95.304C254.509 94.8987 254.914 94.5787 255.437 94.344C255.97 94.1093 256.594 93.992 257.309 93.992C258.365 93.992 259.207 94.2587 259.837 94.792C260.466 95.3147 260.813 96.024 260.877 96.92H258.733C258.701 96.568 258.551 96.2907 258.285 96.088C258.029 95.8747 257.682 95.768 257.245 95.768C256.839 95.768 256.525 95.8427 256.301 95.992C256.087 96.1413 255.981 96.3493 255.981 96.616C255.981 96.9147 256.13 97.144 256.429 97.304C256.727 97.4533 257.191 97.608 257.821 97.768C258.461 97.928 258.989 98.0933 259.405 98.264C259.821 98.4347 260.178 98.7013 260.477 99.064C260.786 99.416 260.946 99.8853 260.957 100.472C260.957 100.984 260.813 101.443 260.525 101.848C260.247 102.253 259.842 102.573 259.309 102.808C258.786 103.032 258.173 103.144 257.469 103.144ZM263.611 93.08C263.217 93.08 262.886 92.9573 262.619 92.712C262.363 92.456 262.235 92.1413 262.235 91.768C262.235 91.3947 262.363 91.0853 262.619 90.84C262.886 90.584 263.217 90.456 263.611 90.456C264.006 90.456 264.331 90.584 264.587 90.84C264.854 91.0853 264.987 91.3947 264.987 91.768C264.987 92.1413 264.854 92.456 264.587 92.712C264.331 92.9573 264.006 93.08 263.611 93.08ZM264.715 94.136V103H262.475V94.136H264.715ZM270.544 103.144C269.691 103.144 268.923 102.957 268.24 102.584C267.558 102.2 267.019 101.661 266.624 100.968C266.24 100.275 266.048 99.4747 266.048 98.568C266.048 97.6613 266.246 96.8613 266.64 96.168C267.046 95.4747 267.595 94.9413 268.288 94.568C268.982 94.184 269.755 93.992 270.608 93.992C271.462 93.992 272.235 94.184 272.928 94.568C273.622 94.9413 274.166 95.4747 274.56 96.168C274.966 96.8613 275.168 97.6613 275.168 98.568C275.168 99.4747 274.96 100.275 274.544 100.968C274.139 101.661 273.584 102.2 272.88 102.584C272.187 102.957 271.408 103.144 270.544 103.144ZM270.544 101.192C270.95 101.192 271.328 101.096 271.68 100.904C272.043 100.701 272.331 100.403 272.544 100.008C272.758 99.6133 272.864 99.1333 272.864 98.568C272.864 97.7253 272.64 97.08 272.192 96.632C271.755 96.1733 271.216 95.944 270.576 95.944C269.936 95.944 269.398 96.1733 268.96 96.632C268.534 97.08 268.32 97.7253 268.32 98.568C268.32 99.4107 268.528 100.061 268.944 100.52C269.371 100.968 269.904 101.192 270.544 101.192ZM281.403 94.008C282.459 94.008 283.313 94.344 283.963 95.016C284.614 95.6773 284.939 96.6053 284.939 97.8V103H282.699V98.104C282.699 97.4 282.523 96.8613 282.171 96.488C281.819 96.104 281.339 95.912 280.731 95.912C280.113 95.912 279.622 96.104 279.259 96.488C278.907 96.8613 278.731 97.4 278.731 98.104V103H276.491V94.136H278.731V95.24C279.03 94.856 279.409 94.5573 279.867 94.344C280.337 94.12 280.849 94.008 281.403 94.008Z" fill="white"/>
</g>
<g id="Group 8">
<path id="Vector" d="M363.556 97.4999C363.556 98.4818 362.76 99.2777 361.778 99.2777C360.796 99.2777 360 98.4818 360 97.4999C360 96.5181 360.796 95.7222 361.778 95.7222C362.76 95.7222 363.556 96.5181 363.556 97.4999Z" fill="white"/>
<path id="Vector_2" d="M369.778 97.4999C369.778 98.4818 368.982 99.2777 368 99.2777C367.019 99.2777 366.223 98.4818 366.223 97.4999C366.223 96.5181 367.019 95.7222 368 95.7222C368.982 95.7222 369.778 96.5181 369.778 97.4999Z" fill="white"/>
<path id="Vector_3" d="M376 97.4999C376 98.4818 375.204 99.2777 374.222 99.2777C373.24 99.2777 372.445 98.4818 372.445 97.4999C372.445 96.5181 373.24 95.7222 374.222 95.7222C375.204 95.7222 376 96.5181 376 97.4999Z" fill="white"/>
</g>
</g>
<g id="Graphics">
<g clip-path="url(#clip0_867_6)">
<rect x="116" y="121" width="272" height="239" rx="16" fill="#252525"/>
<g id="Rectangle 40" filter="url(#filter2_fn_867_6)">
<rect x="116" y="121" width="272" height="239" rx="16" fill="url(#paint0_radial_867_6)"/>
</g>
<g id="Ellipse 3077" filter="url(#filter3_fn_867_6)">
<ellipse cx="158.891" cy="127.099" rx="103.472" ry="41.7532" transform="rotate(-34.5758 158.891 127.099)" fill="url(#paint1_radial_867_6)"/>
</g>
<g id="Group 16">
<path id="Union" d="M366 145V336H137V145H366ZM138 298V335H175V298H138ZM176 298V335H213V298H176ZM214 298V335H251V298H214ZM252 298V335H289V298H252ZM290 298V335H327V298H290ZM328 298V335H365V298H328ZM138 260V297H175V260H138ZM176 260V297H213V260H176ZM214 260V297H251V260H214ZM252 260V297H289V260H252ZM290 260V297H327V260H290ZM328 260V297H365V260H328ZM138 222V259H175V222H138ZM176 222V259H213V222H176ZM214 222V259H251V222H214ZM252 222V259H289V222H252ZM290 222V259H327V222H290ZM328 222V259H365V222H328ZM138 184V221H175V184H138ZM176 184V221H213V184H176ZM214 184V221H251V184H214ZM252 184V221H289V184H252ZM290 184V221H327V184H290ZM328 184V221H365V184H328ZM138 146V183H175V146H138ZM176 146V183H213V146H176ZM214 146V183H251V146H214ZM252 146V183H289V146H252ZM290 146V183H327V146H290ZM328 146V183H365V146H328Z" fill="url(#paint2_radial_867_6)"/>
<rect id="Rectangle 41" x="128" y="273" width="40" height="75" rx="8" fill="#848484"/>
<rect id="Rectangle 49" x="128" y="296" width="40" height="52" rx="8" fill="black" fill-opacity="0.25"/>
<rect id="Rectangle 42" x="180" y="303" width="40" height="45" rx="8" fill="#848484"/>
<rect id="Rectangle 48" x="180" y="324" width="40" height="24" rx="8" fill="black" fill-opacity="0.25"/>
<rect id="Rectangle 43" x="232" y="288" width="40" height="60" rx="8" fill="#848484"/>
<rect id="Rectangle 47" x="232" y="309" width="40" height="39" rx="8" fill="black" fill-opacity="0.25"/>
<rect id="Rectangle 44" x="284" y="303" width="40" height="45" rx="8" fill="#848484"/>
<rect id="Rectangle 46" x="284" y="318" width="40" height="30" rx="8" fill="black" fill-opacity="0.25"/>
<rect id="Rectangle 41_2" x="336" y="133" width="40" height="215" rx="8" fill="#0077FF"/>
<rect id="Rectangle 45" x="336" y="220" width="40" height="128" rx="8" fill="#0055C6"/>
</g>
</g>
<rect x="116.5" y="121.5" width="271" height="238" rx="15.5" stroke="url(#paint3_linear_867_6)"/>
</g>
</g>
<g id="Mandated Protocol">
<rect x="311" width="200" height="94" rx="12" fill="#848484" fill-opacity="0.2"/>
<g id="Header_2">
<g id="Header Text_2">
<g id="Ellipse 3075_2" filter="url(#filter5_f_867_6)">
<circle cx="333" cy="18" r="4" fill="#0077FF"/>
</g>
<path id="Mandated Protocol_2" d="M354.96 13.624V22H353.28V16.552L351.036 22H349.764L347.508 16.552V22H345.828V13.624H347.736L350.4 19.852L353.064 13.624H354.96ZM355.949 18.652C355.949 17.98 356.081 17.384 356.345 16.864C356.617 16.344 356.981 15.944 357.437 15.664C357.901 15.384 358.417 15.244 358.985 15.244C359.481 15.244 359.913 15.344 360.281 15.544C360.657 15.744 360.957 15.996 361.181 16.3V15.352H362.873V22H361.181V21.028C360.965 21.34 360.665 21.6 360.281 21.808C359.905 22.008 359.469 22.108 358.973 22.108C358.413 22.108 357.901 21.964 357.437 21.676C356.981 21.388 356.617 20.984 356.345 20.464C356.081 19.936 355.949 19.332 355.949 18.652ZM361.181 18.676C361.181 18.268 361.101 17.92 360.941 17.632C360.781 17.336 360.565 17.112 360.293 16.96C360.021 16.8 359.729 16.72 359.417 16.72C359.105 16.72 358.817 16.796 358.553 16.948C358.289 17.1 358.073 17.324 357.905 17.62C357.745 17.908 357.665 18.252 357.665 18.652C357.665 19.052 357.745 19.404 357.905 19.708C358.073 20.004 358.289 20.232 358.553 20.392C358.825 20.552 359.113 20.632 359.417 20.632C359.729 20.632 360.021 20.556 360.293 20.404C360.565 20.244 360.781 20.02 360.941 19.732C361.101 19.436 361.181 19.084 361.181 18.676ZM367.958 15.256C368.75 15.256 369.39 15.508 369.878 16.012C370.366 16.508 370.61 17.204 370.61 18.1V22H368.93V18.328C368.93 17.8 368.798 17.396 368.534 17.116C368.27 16.828 367.91 16.684 367.454 16.684C366.99 16.684 366.622 16.828 366.35 17.116C366.086 17.396 365.954 17.8 365.954 18.328V22H364.274V15.352H365.954V16.18C366.178 15.892 366.462 15.668 366.806 15.508C367.158 15.34 367.542 15.256 367.958 15.256ZM371.535 18.652C371.535 17.98 371.667 17.384 371.931 16.864C372.203 16.344 372.571 15.944 373.035 15.664C373.499 15.384 374.015 15.244 374.583 15.244C375.015 15.244 375.427 15.34 375.819 15.532C376.211 15.716 376.523 15.964 376.755 16.276V13.12H378.459V22H376.755V21.016C376.547 21.344 376.255 21.608 375.879 21.808C375.503 22.008 375.067 22.108 374.571 22.108C374.011 22.108 373.499 21.964 373.035 21.676C372.571 21.388 372.203 20.984 371.931 20.464C371.667 19.936 371.535 19.332 371.535 18.652ZM376.767 18.676C376.767 18.268 376.687 17.92 376.527 17.632C376.367 17.336 376.151 17.112 375.879 16.96C375.607 16.8 375.315 16.72 375.003 16.72C374.691 16.72 374.403 16.796 374.139 16.948C373.875 17.1 373.659 17.324 373.491 17.62C373.331 17.908 373.251 18.252 373.251 18.652C373.251 19.052 373.331 19.404 373.491 19.708C373.659 20.004 373.875 20.232 374.139 20.392C374.411 20.552 374.699 20.632 375.003 20.632C375.315 20.632 375.607 20.556 375.879 20.404C376.151 20.244 376.367 20.02 376.527 19.732C376.687 19.436 376.767 19.084 376.767 18.676ZM379.428 18.652C379.428 17.98 379.56 17.384 379.824 16.864C380.096 16.344 380.46 15.944 380.916 15.664C381.38 15.384 381.896 15.244 382.464 15.244C382.96 15.244 383.392 15.344 383.76 15.544C384.136 15.744 384.436 15.996 384.66 16.3V15.352H386.352V22H384.66V21.028C384.444 21.34 384.144 21.6 383.76 21.808C383.384 22.008 382.948 22.108 382.452 22.108C381.892 22.108 381.38 21.964 380.916 21.676C380.46 21.388 380.096 20.984 379.824 20.464C379.56 19.936 379.428 19.332 379.428 18.652ZM384.66 18.676C384.66 18.268 384.58 17.92 384.42 17.632C384.26 17.336 384.044 17.112 383.772 16.96C383.5 16.8 383.208 16.72 382.896 16.72C382.584 16.72 382.296 16.796 382.032 16.948C381.768 17.1 381.552 17.324 381.384 17.62C381.224 17.908 381.144 18.252 381.144 18.652C381.144 19.052 381.224 19.404 381.384 19.708C381.552 20.004 381.768 20.232 382.032 20.392C382.304 20.552 382.592 20.632 382.896 20.632C383.208 20.632 383.5 20.556 383.772 20.404C384.044 20.244 384.26 20.02 384.42 19.732C384.58 19.436 384.66 19.084 384.66 18.676ZM389.709 16.732V19.948C389.709 20.172 389.761 20.336 389.865 20.44C389.977 20.536 390.161 20.584 390.417 20.584H391.197V22H390.141C388.725 22 388.017 21.312 388.017 19.936V16.732H387.225V15.352H388.017V13.708H389.709V15.352H391.197V16.732H389.709ZM398.345 18.532C398.345 18.772 398.329 18.988 398.297 19.18H393.437C393.477 19.66 393.645 20.036 393.941 20.308C394.237 20.58 394.601 20.716 395.033 20.716C395.657 20.716 396.101 20.448 396.365 19.912H398.177C397.985 20.552 397.617 21.08 397.073 21.496C396.529 21.904 395.861 22.108 395.069 22.108C394.429 22.108 393.853 21.968 393.341 21.688C392.837 21.4 392.441 20.996 392.153 20.476C391.873 19.956 391.733 19.356 391.733 18.676C391.733 17.988 391.873 17.384 392.153 16.864C392.433 16.344 392.825 15.944 393.329 15.664C393.833 15.384 394.413 15.244 395.069 15.244C395.701 15.244 396.265 15.38 396.761 15.652C397.265 15.924 397.653 16.312 397.925 16.816C398.205 17.312 398.345 17.884 398.345 18.532ZM396.605 18.052C396.597 17.62 396.441 17.276 396.137 17.02C395.833 16.756 395.461 16.624 395.021 16.624C394.605 16.624 394.253 16.752 393.965 17.008C393.685 17.256 393.513 17.604 393.449 18.052H396.605ZM398.9 18.652C398.9 17.98 399.032 17.384 399.296 16.864C399.568 16.344 399.936 15.944 400.4 15.664C400.864 15.384 401.38 15.244 401.948 15.244C402.38 15.244 402.792 15.34 403.184 15.532C403.576 15.716 403.888 15.964 404.12 16.276V13.12H405.824V22H404.12V21.016C403.912 21.344 403.62 21.608 403.244 21.808C402.868 22.008 402.432 22.108 401.936 22.108C401.376 22.108 400.864 21.964 400.4 21.676C399.936 21.388 399.568 20.984 399.296 20.464C399.032 19.936 398.9 19.332 398.9 18.652ZM404.132 18.676C404.132 18.268 404.052 17.92 403.892 17.632C403.732 17.336 403.516 17.112 403.244 16.96C402.972 16.8 402.68 16.72 402.368 16.72C402.056 16.72 401.768 16.796 401.504 16.948C401.24 17.1 401.024 17.324 400.856 17.62C400.696 17.908 400.616 18.252 400.616 18.652C400.616 19.052 400.696 19.404 400.856 19.708C401.024 20.004 401.24 20.232 401.504 20.392C401.776 20.552 402.064 20.632 402.368 20.632C402.68 20.632 402.972 20.556 403.244 20.404C403.516 20.244 403.732 20.02 403.892 19.732C404.052 19.436 404.132 19.084 404.132 18.676ZM415.952 16.216C415.952 16.664 415.844 17.084 415.628 17.476C415.42 17.868 415.088 18.184 414.632 18.424C414.184 18.664 413.616 18.784 412.928 18.784H411.524V22H409.844V13.624H412.928C413.576 13.624 414.128 13.736 414.584 13.96C415.04 14.184 415.38 14.492 415.604 14.884C415.836 15.276 415.952 15.72 415.952 16.216ZM412.856 17.428C413.32 17.428 413.664 17.324 413.888 17.116C414.112 16.9 414.224 16.6 414.224 16.216C414.224 15.4 413.768 14.992 412.856 14.992H411.524V17.428H412.856ZM418.585 16.384C418.801 16.032 419.081 15.756 419.425 15.556C419.777 15.356 420.177 15.256 420.625 15.256V17.02H420.181C419.653 17.02 419.253 17.144 418.981 17.392C418.717 17.64 418.585 18.072 418.585 18.688V22H416.905V15.352H418.585V16.384ZM424.468 22.108C423.828 22.108 423.252 21.968 422.74 21.688C422.228 21.4 421.824 20.996 421.528 20.476C421.24 19.956 421.096 19.356 421.096 18.676C421.096 17.996 421.244 17.396 421.54 16.876C421.844 16.356 422.256 15.956 422.776 15.676C423.296 15.388 423.876 15.244 424.516 15.244C425.156 15.244 425.736 15.388 426.256 15.676C426.776 15.956 427.184 16.356 427.48 16.876C427.784 17.396 427.936 17.996 427.936 18.676C427.936 19.356 427.78 19.956 427.468 20.476C427.164 20.996 426.748 21.4 426.22 21.688C425.7 21.968 425.116 22.108 424.468 22.108ZM424.468 20.644C424.772 20.644 425.056 20.572 425.32 20.428C425.592 20.276 425.808 20.052 425.968 19.756C426.128 19.46 426.208 19.1 426.208 18.676C426.208 18.044 426.04 17.56 425.704 17.224C425.376 16.88 424.972 16.708 424.492 16.708C424.012 16.708 423.608 16.88 423.28 17.224C422.96 17.56 422.8 18.044 422.8 18.676C422.8 19.308 422.956 19.796 423.268 20.14C423.588 20.476 423.988 20.644 424.468 20.644ZM430.884 16.732V19.948C430.884 20.172 430.936 20.336 431.04 20.44C431.152 20.536 431.336 20.584 431.592 20.584H432.372V22H431.316C429.9 22 429.192 21.312 429.192 19.936V16.732H428.4V15.352H429.192V13.708H430.884V15.352H432.372V16.732H430.884ZM436.293 22.108C435.653 22.108 435.077 21.968 434.565 21.688C434.053 21.4 433.649 20.996 433.353 20.476C433.065 19.956 432.921 19.356 432.921 18.676C432.921 17.996 433.069 17.396 433.365 16.876C433.669 16.356 434.081 15.956 434.601 15.676C435.121 15.388 435.701 15.244 436.341 15.244C436.981 15.244 437.561 15.388 438.081 15.676C438.601 15.956 439.009 16.356 439.305 16.876C439.609 17.396 439.761 17.996 439.761 18.676C439.761 19.356 439.605 19.956 439.293 20.476C438.989 20.996 438.573 21.4 438.045 21.688C437.525 21.968 436.941 22.108 436.293 22.108ZM436.293 20.644C436.597 20.644 436.881 20.572 437.145 20.428C437.417 20.276 437.633 20.052 437.793 19.756C437.953 19.46 438.033 19.1 438.033 18.676C438.033 18.044 437.865 17.56 437.529 17.224C437.201 16.88 436.797 16.708 436.317 16.708C435.837 16.708 435.433 16.88 435.105 17.224C434.785 17.56 434.625 18.044 434.625 18.676C434.625 19.308 434.781 19.796 435.093 20.14C435.413 20.476 435.813 20.644 436.293 20.644ZM440.321 18.676C440.321 17.988 440.461 17.388 440.741 16.876C441.021 16.356 441.409 15.956 441.905 15.676C442.401 15.388 442.969 15.244 443.609 15.244C444.433 15.244 445.113 15.452 445.649 15.868C446.193 16.276 446.557 16.852 446.741 17.596H444.929C444.833 17.308 444.669 17.084 444.437 16.924C444.213 16.756 443.933 16.672 443.597 16.672C443.117 16.672 442.737 16.848 442.457 17.2C442.177 17.544 442.037 18.036 442.037 18.676C442.037 19.308 442.177 19.8 442.457 20.152C442.737 20.496 443.117 20.668 443.597 20.668C444.277 20.668 444.721 20.364 444.929 19.756H446.741C446.557 20.476 446.193 21.048 445.649 21.472C445.105 21.896 444.425 22.108 443.609 22.108C442.969 22.108 442.401 21.968 441.905 21.688C441.409 21.4 441.021 21 440.741 20.488C440.461 19.968 440.321 19.364 440.321 18.676ZM450.684 22.108C450.044 22.108 449.468 21.968 448.956 21.688C448.444 21.4 448.04 20.996 447.744 20.476C447.456 19.956 447.312 19.356 447.312 18.676C447.312 17.996 447.46 17.396 447.756 16.876C448.06 16.356 448.472 15.956 448.992 15.676C449.512 15.388 450.092 15.244 450.732 15.244C451.372 15.244 451.952 15.388 452.472 15.676C452.992 15.956 453.4 16.356 453.696 16.876C454 17.396 454.152 17.996 454.152 18.676C454.152 19.356 453.996 19.956 453.684 20.476C453.38 20.996 452.964 21.4 452.436 21.688C451.916 21.968 451.332 22.108 450.684 22.108ZM450.684 20.644C450.988 20.644 451.272 20.572 451.536 20.428C451.808 20.276 452.024 20.052 452.184 19.756C452.344 19.46 452.424 19.1 452.424 18.676C452.424 18.044 452.256 17.56 451.92 17.224C451.592 16.88 451.188 16.708 450.708 16.708C450.228 16.708 449.824 16.88 449.496 17.224C449.176 17.56 449.016 18.044 449.016 18.676C449.016 19.308 449.172 19.796 449.484 20.14C449.804 20.476 450.204 20.644 450.684 20.644ZM456.824 13.12V22H455.144V13.12H456.824Z" fill="white"/>
</g>
<g id="Group 8_2">
<path id="Vector_4" d="M480.556 17.9999C480.556 18.9818 479.76 19.7777 478.778 19.7777C477.796 19.7777 477 18.9818 477 17.9999C477 17.0181 477.796 16.2222 478.778 16.2222C479.76 16.2222 480.556 17.0181 480.556 17.9999Z" fill="white"/>
<path id="Vector_5" d="M486.778 17.9999C486.778 18.9818 485.982 19.7777 485 19.7777C484.019 19.7777 483.223 18.9818 483.223 17.9999C483.223 17.0181 484.019 16.2222 485 16.2222C485.982 16.2222 486.778 17.0181 486.778 17.9999Z" fill="white"/>
<path id="Vector_6" d="M493 17.9999C493 18.9818 492.204 19.7777 491.222 19.7777C490.24 19.7777 489.445 18.9818 489.445 17.9999C489.445 17.0181 490.24 16.2222 491.222 16.2222C492.204 16.2222 493 17.0181 493 17.9999Z" fill="white"/>
</g>
</g>
<g id="Frame 115">
<path d="M333 36.5H489C492.785 36.5 495.574 36.5007 497.712 36.7881C499.835 37.0735 501.241 37.6332 502.304 38.6963C503.367 39.7594 503.926 41.1652 504.212 43.2881C504.499 45.4255 504.5 48.2146 504.5 52V72C504.5 75.7854 504.499 78.5745 504.212 80.7119C503.926 82.8348 503.367 84.2406 502.304 85.3037C501.241 86.3668 499.835 86.9265 497.712 87.2119C495.574 87.4993 492.785 87.5 489 87.5H333C329.215 87.5 326.426 87.4993 324.288 87.2119C322.165 86.9265 320.759 86.3668 319.696 85.3037C318.633 84.2406 318.074 82.8348 317.788 80.7119C317.501 78.5745 317.5 75.7854 317.5 72V52C317.5 48.2146 317.501 45.4255 317.788 43.2881C318.074 41.1652 318.633 39.7594 319.696 38.6963C320.759 37.6332 322.165 37.0735 324.288 36.7881C325.891 36.5725 327.861 36.5186 330.343 36.5049L333 36.5Z" fill="#252525"/>
<path d="M333 36.5H489C492.785 36.5 495.574 36.5007 497.712 36.7881C499.835 37.0735 501.241 37.6332 502.304 38.6963C503.367 39.7594 503.926 41.1652 504.212 43.2881C504.499 45.4255 504.5 48.2146 504.5 52V72C504.5 75.7854 504.499 78.5745 504.212 80.7119C503.926 82.8348 503.367 84.2406 502.304 85.3037C501.241 86.3668 499.835 86.9265 497.712 87.2119C495.574 87.4993 492.785 87.5 489 87.5H333C329.215 87.5 326.426 87.4993 324.288 87.2119C322.165 86.9265 320.759 86.3668 319.696 85.3037C318.633 84.2406 318.074 82.8348 317.788 80.7119C317.501 78.5745 317.5 75.7854 317.5 72V52C317.5 48.2146 317.501 45.4255 317.788 43.2881C318.074 41.1652 318.633 39.7594 319.696 38.6963C320.759 37.6332 322.165 37.0735 324.288 36.7881C325.891 36.5725 327.861 36.5186 330.343 36.5049L333 36.5Z" stroke="url(#paint4_linear_867_6)"/>
<g id="Elements">
<path id="Order Value" d="M333.716 56.084C332.932 56.084 332.212 55.9 331.556 55.532C330.9 55.164 330.38 54.656 329.996 54.008C329.612 53.352 329.42 52.612 329.42 51.788C329.42 50.972 329.612 50.24 329.996 49.592C330.38 48.936 330.9 48.424 331.556 48.056C332.212 47.688 332.932 47.504 333.716 47.504C334.508 47.504 335.228 47.688 335.876 48.056C336.532 48.424 337.048 48.936 337.424 49.592C337.808 50.24 338 50.972 338 51.788C338 52.612 337.808 53.352 337.424 54.008C337.048 54.656 336.532 55.164 335.876 55.532C335.22 55.9 334.5 56.084 333.716 56.084ZM333.716 54.584C334.22 54.584 334.664 54.472 335.048 54.248C335.432 54.016 335.732 53.688 335.948 53.264C336.164 52.84 336.272 52.348 336.272 51.788C336.272 51.228 336.164 50.74 335.948 50.324C335.732 49.9 335.432 49.576 335.048 49.352C334.664 49.128 334.22 49.016 333.716 49.016C333.212 49.016 332.764 49.128 332.372 49.352C331.988 49.576 331.688 49.9 331.472 50.324C331.256 50.74 331.148 51.228 331.148 51.788C331.148 52.348 331.256 52.84 331.472 53.264C331.688 53.688 331.988 54.016 332.372 54.248C332.764 54.472 333.212 54.584 333.716 54.584ZM340.93 50.384C341.146 50.032 341.426 49.756 341.77 49.556C342.122 49.356 342.522 49.256 342.97 49.256V51.02H342.526C341.998 51.02 341.598 51.144 341.326 51.392C341.062 51.64 340.93 52.072 340.93 52.688V56H339.25V49.352H340.93V50.384ZM343.669 52.652C343.669 51.98 343.801 51.384 344.065 50.864C344.337 50.344 344.705 49.944 345.169 49.664C345.633 49.384 346.149 49.244 346.717 49.244C347.149 49.244 347.561 49.34 347.953 49.532C348.345 49.716 348.657 49.964 348.889 50.276V47.12H350.593V56H348.889V55.016C348.681 55.344 348.389 55.608 348.013 55.808C347.637 56.008 347.201 56.108 346.705 56.108C346.145 56.108 345.633 55.964 345.169 55.676C344.705 55.388 344.337 54.984 344.065 54.464C343.801 53.936 343.669 53.332 343.669 52.652ZM348.901 52.676C348.901 52.268 348.821 51.92 348.661 51.632C348.501 51.336 348.285 51.112 348.013 50.96C347.741 50.8 347.449 50.72 347.137 50.72C346.825 50.72 346.537 50.796 346.273 50.948C346.009 51.1 345.793 51.324 345.625 51.62C345.465 51.908 345.385 52.252 345.385 52.652C345.385 53.052 345.465 53.404 345.625 53.708C345.793 54.004 346.009 54.232 346.273 54.392C346.545 54.552 346.833 54.632 347.137 54.632C347.449 54.632 347.741 54.556 348.013 54.404C348.285 54.244 348.501 54.02 348.661 53.732C348.821 53.436 348.901 53.084 348.901 52.676ZM358.414 52.532C358.414 52.772 358.398 52.988 358.366 53.18H353.506C353.546 53.66 353.714 54.036 354.01 54.308C354.306 54.58 354.67 54.716 355.102 54.716C355.726 54.716 356.17 54.448 356.434 53.912H358.246C358.054 54.552 357.686 55.08 357.142 55.496C356.598 55.904 355.93 56.108 355.138 56.108C354.498 56.108 353.922 55.968 353.41 55.688C352.906 55.4 352.51 54.996 352.222 54.476C351.942 53.956 351.802 53.356 351.802 52.676C351.802 51.988 351.942 51.384 352.222 50.864C352.502 50.344 352.894 49.944 353.398 49.664C353.902 49.384 354.482 49.244 355.138 49.244C355.77 49.244 356.334 49.38 356.83 49.652C357.334 49.924 357.722 50.312 357.994 50.816C358.274 51.312 358.414 51.884 358.414 52.532ZM356.674 52.052C356.666 51.62 356.51 51.276 356.206 51.02C355.902 50.756 355.53 50.624 355.09 50.624C354.674 50.624 354.322 50.752 354.034 51.008C353.754 51.256 353.582 51.604 353.518 52.052H356.674ZM361.321 50.384C361.537 50.032 361.817 49.756 362.161 49.556C362.513 49.356 362.913 49.256 363.361 49.256V51.02H362.917C362.389 51.02 361.989 51.144 361.717 51.392C361.453 51.64 361.321 52.072 361.321 52.688V56H359.641V49.352H361.321V50.384ZM374.875 47.624L371.803 56H369.763L366.691 47.624H368.491L370.795 54.284L373.087 47.624H374.875ZM375.451 52.652C375.451 51.98 375.583 51.384 375.847 50.864C376.119 50.344 376.483 49.944 376.939 49.664C377.403 49.384 377.919 49.244 378.487 49.244C378.983 49.244 379.415 49.344 379.783 49.544C380.159 49.744 380.459 49.996 380.683 50.3V49.352H382.375V56H380.683V55.028C380.467 55.34 380.167 55.6 379.783 55.808C379.407 56.008 378.971 56.108 378.475 56.108C377.915 56.108 377.403 55.964 376.939 55.676C376.483 55.388 376.119 54.984 375.847 54.464C375.583 53.936 375.451 53.332 375.451 52.652ZM380.683 52.676C380.683 52.268 380.603 51.92 380.443 51.632C380.283 51.336 380.067 51.112 379.795 50.96C379.523 50.8 379.231 50.72 378.919 50.72C378.607 50.72 378.319 50.796 378.055 50.948C377.791 51.1 377.575 51.324 377.407 51.62C377.247 51.908 377.167 52.252 377.167 52.652C377.167 53.052 377.247 53.404 377.407 53.708C377.575 54.004 377.791 54.232 378.055 54.392C378.327 54.552 378.615 54.632 378.919 54.632C379.231 54.632 379.523 54.556 379.795 54.404C380.067 54.244 380.283 54.02 380.443 53.732C380.603 53.436 380.683 53.084 380.683 52.676ZM385.696 47.12V56H384.016V47.12H385.696ZM393.631 49.352V56H391.939V55.16C391.723 55.448 391.439 55.676 391.087 55.844C390.743 56.004 390.367 56.084 389.959 56.084C389.439 56.084 388.979 55.976 388.579 55.76C388.179 55.536 387.863 55.212 387.631 54.788C387.407 54.356 387.295 53.844 387.295 53.252V49.352H388.975V53.012C388.975 53.54 389.107 53.948 389.371 54.236C389.635 54.516 389.995 54.656 390.451 54.656C390.915 54.656 391.279 54.516 391.543 54.236C391.807 53.948 391.939 53.54 391.939 53.012V49.352H393.631ZM401.469 52.532C401.469 52.772 401.453 52.988 401.421 53.18H396.561C396.601 53.66 396.769 54.036 397.065 54.308C397.361 54.58 397.725 54.716 398.157 54.716C398.781 54.716 399.225 54.448 399.489 53.912H401.301C401.109 54.552 400.741 55.08 400.197 55.496C399.653 55.904 398.985 56.108 398.193 56.108C397.553 56.108 396.977 55.968 396.465 55.688C395.961 55.4 395.565 54.996 395.277 54.476C394.997 53.956 394.857 53.356 394.857 52.676C394.857 51.988 394.997 51.384 395.277 50.864C395.557 50.344 395.949 49.944 396.453 49.664C396.957 49.384 397.537 49.244 398.193 49.244C398.825 49.244 399.389 49.38 399.885 49.652C400.389 49.924 400.777 50.312 401.049 50.816C401.329 51.312 401.469 51.884 401.469 52.532ZM399.729 52.052C399.721 51.62 399.565 51.276 399.261 51.02C398.957 50.756 398.585 50.624 398.145 50.624C397.729 50.624 397.377 50.752 397.089 51.008C396.809 51.256 396.637 51.604 396.573 52.052H399.729Z" fill="white"/>
<path id="$180" d="M473.268 53.624C473.268 54.024 473.168 54.4 472.968 54.752C472.776 55.104 472.488 55.4 472.104 55.64C471.728 55.88 471.28 56.024 470.76 56.072V57.044H469.98V56.072C469.228 56 468.62 55.764 468.156 55.364C467.692 54.964 467.46 54.436 467.46 53.78H468.924C468.948 54.092 469.048 54.352 469.224 54.56C469.4 54.76 469.652 54.888 469.98 54.944V52.304C469.444 52.168 469.008 52.032 468.672 51.896C468.336 51.752 468.048 51.528 467.808 51.224C467.576 50.92 467.46 50.504 467.46 49.976C467.46 49.312 467.692 48.764 468.156 48.332C468.62 47.892 469.228 47.636 469.98 47.564V46.592H470.76V47.564C471.464 47.628 472.028 47.852 472.452 48.236C472.884 48.612 473.128 49.132 473.184 49.796H471.72C471.696 49.548 471.6 49.328 471.432 49.136C471.264 48.936 471.04 48.8 470.76 48.728V51.32C471.296 51.448 471.732 51.584 472.068 51.728C472.404 51.864 472.688 52.084 472.92 52.388C473.152 52.684 473.268 53.096 473.268 53.624ZM468.852 49.904C468.852 50.232 468.948 50.488 469.14 50.672C469.34 50.856 469.62 51.004 469.98 51.116V48.692C469.636 48.732 469.36 48.856 469.152 49.064C468.952 49.272 468.852 49.552 468.852 49.904ZM470.76 54.944C471.112 54.888 471.388 54.748 471.588 54.524C471.788 54.292 471.888 54.016 471.888 53.696C471.888 53.376 471.788 53.128 471.588 52.952C471.396 52.768 471.12 52.62 470.76 52.508V54.944ZM474.725 48.5V47.252H477.221V56H475.841V48.5H474.725ZM480.216 51.428C479.384 51.012 478.968 50.356 478.968 49.46C478.968 49.028 479.076 48.632 479.292 48.272C479.508 47.912 479.832 47.628 480.264 47.42C480.696 47.204 481.224 47.096 481.848 47.096C482.464 47.096 482.988 47.204 483.42 47.42C483.86 47.628 484.188 47.912 484.404 48.272C484.62 48.632 484.728 49.028 484.728 49.46C484.728 49.908 484.612 50.304 484.38 50.648C484.156 50.984 483.856 51.244 483.48 51.428C483.936 51.596 484.296 51.872 484.56 52.256C484.824 52.632 484.956 53.076 484.956 53.588C484.956 54.108 484.824 54.568 484.56 54.968C484.296 55.368 483.928 55.676 483.456 55.892C482.984 56.108 482.448 56.216 481.848 56.216C481.248 56.216 480.712 56.108 480.24 55.892C479.776 55.676 479.412 55.368 479.148 54.968C478.884 54.568 478.752 54.108 478.752 53.588C478.752 53.068 478.884 52.62 479.148 52.244C479.412 51.868 479.768 51.596 480.216 51.428ZM483.42 49.628C483.42 49.18 483.28 48.836 483 48.596C482.72 48.356 482.336 48.236 481.848 48.236C481.368 48.236 480.988 48.356 480.708 48.596C480.428 48.836 480.288 49.184 480.288 49.64C480.288 50.04 480.432 50.368 480.72 50.624C481.016 50.872 481.392 50.996 481.848 50.996C482.304 50.996 482.68 50.868 482.976 50.612C483.272 50.356 483.42 50.028 483.42 49.628ZM481.848 52.028C481.32 52.028 480.888 52.16 480.552 52.424C480.224 52.68 480.06 53.052 480.06 53.54C480.06 53.996 480.22 54.368 480.54 54.656C480.86 54.936 481.296 55.076 481.848 55.076C482.392 55.076 482.82 54.932 483.132 54.644C483.452 54.356 483.612 53.988 483.612 53.54C483.612 53.06 483.448 52.688 483.12 52.424C482.8 52.16 482.376 52.028 481.848 52.028ZM486.033 51.512C486.033 50.128 486.265 49.048 486.729 48.272C487.201 47.488 488.009 47.096 489.153 47.096C490.297 47.096 491.101 47.488 491.565 48.272C492.037 49.048 492.273 50.128 492.273 51.512C492.273 52.912 492.037 54.008 491.565 54.8C491.101 55.584 490.297 55.976 489.153 55.976C488.009 55.976 487.201 55.584 486.729 54.8C486.265 54.008 486.033 52.912 486.033 51.512ZM490.929 51.512C490.929 50.864 490.885 50.316 490.797 49.868C490.717 49.42 490.549 49.056 490.293 48.776C490.037 48.488 489.657 48.344 489.153 48.344C488.649 48.344 488.269 48.488 488.013 48.776C487.757 49.056 487.585 49.42 487.497 49.868C487.417 50.316 487.377 50.864 487.377 51.512C487.377 52.184 487.417 52.748 487.497 53.204C487.577 53.66 487.745 54.028 488.001 54.308C488.265 54.588 488.649 54.728 489.153 54.728C489.657 54.728 490.037 54.588 490.293 54.308C490.557 54.028 490.729 53.66 490.809 53.204C490.889 52.748 490.929 52.184 490.929 51.512Z" fill="#0077FF"/>
</g>
<g id="Elements_2">
<path id="Profit Margin" d="M335.936 70.216C335.936 70.664 335.828 71.084 335.612 71.476C335.404 71.868 335.072 72.184 334.616 72.424C334.168 72.664 333.6 72.784 332.912 72.784H331.508V76H329.828V67.624H332.912C333.56 67.624 334.112 67.736 334.568 67.96C335.024 68.184 335.364 68.492 335.588 68.884C335.82 69.276 335.936 69.72 335.936 70.216ZM332.84 71.428C333.304 71.428 333.648 71.324 333.872 71.116C334.096 70.9 334.208 70.6 334.208 70.216C334.208 69.4 333.752 68.992 332.84 68.992H331.508V71.428H332.84ZM338.809 70.384C339.025 70.032 339.305 69.756 339.649 69.556C340.001 69.356 340.401 69.256 340.849 69.256V71.02H340.405C339.877 71.02 339.477 71.144 339.205 71.392C338.941 71.64 338.809 72.072 338.809 72.688V76H337.129V69.352H338.809V70.384ZM344.932 76.108C344.292 76.108 343.716 75.968 343.204 75.688C342.692 75.4 342.288 74.996 341.992 74.476C341.704 73.956 341.56 73.356 341.56 72.676C341.56 71.996 341.708 71.396 342.004 70.876C342.308 70.356 342.72 69.956 343.24 69.676C343.76 69.388 344.34 69.244 344.98 69.244C345.62 69.244 346.2 69.388 346.72 69.676C347.24 69.956 347.648 70.356 347.944 70.876C348.248 71.396 348.4 71.996 348.4 72.676C348.4 73.356 348.244 73.956 347.932 74.476C347.628 74.996 347.212 75.4 346.684 75.688C346.164 75.968 345.58 76.108 344.932 76.108ZM344.932 74.644C345.236 74.644 345.52 74.572 345.784 74.428C346.056 74.276 346.272 74.052 346.432 73.756C346.592 73.46 346.672 73.1 346.672 72.676C346.672 72.044 346.504 71.56 346.168 71.224C345.84 70.88 345.436 70.708 344.956 70.708C344.476 70.708 344.072 70.88 343.744 71.224C343.424 71.56 343.264 72.044 343.264 72.676C343.264 73.308 343.42 73.796 343.732 74.14C344.052 74.476 344.452 74.644 344.932 74.644ZM352.681 70.732H351.517V76H349.813V70.732H349.057V69.352H349.813V69.016C349.813 68.2 350.045 67.6 350.509 67.216C350.973 66.832 351.673 66.652 352.609 66.676V68.092C352.201 68.084 351.917 68.152 351.757 68.296C351.597 68.44 351.517 68.7 351.517 69.076V69.352H352.681V70.732ZM354.621 68.56C354.325 68.56 354.077 68.468 353.877 68.284C353.685 68.092 353.589 67.856 353.589 67.576C353.589 67.296 353.685 67.064 353.877 66.88C354.077 66.688 354.325 66.592 354.621 66.592C354.917 66.592 355.161 66.688 355.353 66.88C355.553 67.064 355.653 67.296 355.653 67.576C355.653 67.856 355.553 68.092 355.353 68.284C355.161 68.468 354.917 68.56 354.621 68.56ZM355.449 69.352V76H353.769V69.352H355.449ZM359.065 70.732V73.948C359.065 74.172 359.117 74.336 359.221 74.44C359.333 74.536 359.517 74.584 359.773 74.584H360.553V76H359.497C358.081 76 357.373 75.312 357.373 73.936V70.732H356.581V69.352H357.373V67.708H359.065V69.352H360.553V70.732H359.065ZM373.753 67.624V76H372.073V70.552L369.829 76H368.557L366.301 70.552V76H364.621V67.624H366.529L369.193 73.852L371.857 67.624H373.753ZM374.982 72.652C374.982 71.98 375.114 71.384 375.378 70.864C375.65 70.344 376.014 69.944 376.47 69.664C376.934 69.384 377.45 69.244 378.018 69.244C378.514 69.244 378.946 69.344 379.314 69.544C379.69 69.744 379.99 69.996 380.214 70.3V69.352H381.906V76H380.214V75.028C379.998 75.34 379.698 75.6 379.314 75.808C378.938 76.008 378.502 76.108 378.006 76.108C377.446 76.108 376.934 75.964 376.47 75.676C376.014 75.388 375.65 74.984 375.378 74.464C375.114 73.936 374.982 73.332 374.982 72.652ZM380.214 72.676C380.214 72.268 380.134 71.92 379.974 71.632C379.814 71.336 379.598 71.112 379.326 70.96C379.054 70.8 378.762 70.72 378.45 70.72C378.138 70.72 377.85 70.796 377.586 70.948C377.322 71.1 377.106 71.324 376.938 71.62C376.778 71.908 376.698 72.252 376.698 72.652C376.698 73.052 376.778 73.404 376.938 73.708C377.106 74.004 377.322 74.232 377.586 74.392C377.858 74.552 378.146 74.632 378.45 74.632C378.762 74.632 379.054 74.556 379.326 74.404C379.598 74.244 379.814 74.02 379.974 73.732C380.134 73.436 380.214 73.084 380.214 72.676ZM385.227 70.384C385.443 70.032 385.723 69.756 386.067 69.556C386.419 69.356 386.819 69.256 387.267 69.256V71.02H386.823C386.295 71.02 385.895 71.144 385.623 71.392C385.359 71.64 385.227 72.072 385.227 72.688V76H383.547V69.352H385.227V70.384ZM391.002 69.244C391.498 69.244 391.934 69.344 392.31 69.544C392.686 69.736 392.982 69.988 393.198 70.3V69.352H394.89V76.048C394.89 76.664 394.766 77.212 394.518 77.692C394.27 78.18 393.898 78.564 393.402 78.844C392.906 79.132 392.306 79.276 391.602 79.276C390.658 79.276 389.882 79.056 389.274 78.616C388.674 78.176 388.334 77.576 388.254 76.816H389.922C390.01 77.12 390.198 77.36 390.486 77.536C390.782 77.72 391.138 77.812 391.554 77.812C392.042 77.812 392.438 77.664 392.742 77.368C393.046 77.08 393.198 76.64 393.198 76.048V75.016C392.982 75.328 392.682 75.588 392.298 75.796C391.922 76.004 391.49 76.108 391.002 76.108C390.442 76.108 389.93 75.964 389.466 75.676C389.002 75.388 388.634 74.984 388.362 74.464C388.098 73.936 387.966 73.332 387.966 72.652C387.966 71.98 388.098 71.384 388.362 70.864C388.634 70.344 388.998 69.944 389.454 69.664C389.918 69.384 390.434 69.244 391.002 69.244ZM393.198 72.676C393.198 72.268 393.118 71.92 392.958 71.632C392.798 71.336 392.582 71.112 392.31 70.96C392.038 70.8 391.746 70.72 391.434 70.72C391.122 70.72 390.834 70.796 390.57 70.948C390.306 71.1 390.09 71.324 389.922 71.62C389.762 71.908 389.682 72.252 389.682 72.652C389.682 73.052 389.762 73.404 389.922 73.708C390.09 74.004 390.306 74.232 390.57 74.392C390.842 74.552 391.13 74.632 391.434 74.632C391.746 74.632 392.038 74.556 392.31 74.404C392.582 74.244 392.798 74.02 392.958 73.732C393.118 73.436 393.198 73.084 393.198 72.676ZM397.383 68.56C397.087 68.56 396.839 68.468 396.639 68.284C396.447 68.092 396.351 67.856 396.351 67.576C396.351 67.296 396.447 67.064 396.639 66.88C396.839 66.688 397.087 66.592 397.383 66.592C397.679 66.592 397.923 66.688 398.115 66.88C398.315 67.064 398.415 67.296 398.415 67.576C398.415 67.856 398.315 68.092 398.115 68.284C397.923 68.468 397.679 68.56 397.383 68.56ZM398.211 69.352V76H396.531V69.352H398.211ZM403.555 69.256C404.347 69.256 404.987 69.508 405.475 70.012C405.963 70.508 406.207 71.204 406.207 72.1V76H404.527V72.328C404.527 71.8 404.395 71.396 404.131 71.116C403.867 70.828 403.507 70.684 403.051 70.684C402.587 70.684 402.219 70.828 401.947 71.116C401.683 71.396 401.551 71.8 401.551 72.328V76H399.871V69.352H401.551V70.18C401.775 69.892 402.059 69.668 402.403 69.508C402.755 69.34 403.139 69.256 403.555 69.256Z" fill="white"/>
<path id="$72" d="M478.803 73.624C478.803 74.024 478.703 74.4 478.503 74.752C478.311 75.104 478.023 75.4 477.639 75.64C477.263 75.88 476.815 76.024 476.295 76.072V77.044H475.515V76.072C474.763 76 474.155 75.764 473.691 75.364C473.227 74.964 472.995 74.436 472.995 73.78H474.459C474.483 74.092 474.583 74.352 474.759 74.56C474.935 74.76 475.187 74.888 475.515 74.944V72.304C474.979 72.168 474.543 72.032 474.207 71.896C473.871 71.752 473.583 71.528 473.343 71.224C473.111 70.92 472.995 70.504 472.995 69.976C472.995 69.312 473.227 68.764 473.691 68.332C474.155 67.892 474.763 67.636 475.515 67.564V66.592H476.295V67.564C476.999 67.628 477.563 67.852 477.987 68.236C478.419 68.612 478.663 69.132 478.719 69.796H477.255C477.231 69.548 477.135 69.328 476.967 69.136C476.799 68.936 476.575 68.8 476.295 68.728V71.32C476.831 71.448 477.267 71.584 477.603 71.728C477.939 71.864 478.223 72.084 478.455 72.388C478.687 72.684 478.803 73.096 478.803 73.624ZM474.387 69.904C474.387 70.232 474.483 70.488 474.675 70.672C474.875 70.856 475.155 71.004 475.515 71.116V68.692C475.171 68.732 474.895 68.856 474.687 69.064C474.487 69.272 474.387 69.552 474.387 69.904ZM476.295 74.944C476.647 74.888 476.923 74.748 477.123 74.524C477.323 74.292 477.423 74.016 477.423 73.696C477.423 73.376 477.323 73.128 477.123 72.952C476.931 72.768 476.655 72.62 476.295 72.508V74.944ZM485.983 68.308L482.647 76H481.267L484.639 68.452H480.199V67.288H485.983V68.308ZM487.55 74.14C488.318 73.476 488.922 72.932 489.362 72.508C489.81 72.076 490.182 71.628 490.478 71.164C490.774 70.7 490.922 70.236 490.922 69.772C490.922 69.292 490.806 68.916 490.574 68.644C490.35 68.372 489.994 68.236 489.506 68.236C489.034 68.236 488.666 68.388 488.402 68.692C488.146 68.988 488.01 69.388 487.994 69.892H486.674C486.698 68.98 486.97 68.284 487.49 67.804C488.018 67.316 488.686 67.072 489.494 67.072C490.366 67.072 491.046 67.312 491.534 67.792C492.03 68.272 492.278 68.912 492.278 69.712C492.278 70.288 492.13 70.844 491.834 71.38C491.546 71.908 491.198 72.384 490.79 72.808C490.39 73.224 489.878 73.708 489.254 74.26L488.714 74.74H492.518V75.88H486.686V74.884L487.55 74.14Z" fill="#0077FF"/>
</g>
</g>
</g>
<g id="Isolated Capsule">
<rect y="346" width="200" height="94" rx="12" fill="#848484" fill-opacity="0.2"/>
<g id="Header_3">
<g id="Header Text_3">
<g id="Ellipse 3075_3" filter="url(#filter7_f_867_6)">
<circle cx="22" cy="364" r="4" fill="#FE0101"/>
</g>
<path id="Isolated Capsule_2" d="M36.508 359.624V368H34.828V359.624H36.508ZM40.4718 368.108C39.9278 368.108 39.4398 368.012 39.0078 367.82C38.5758 367.62 38.2318 367.352 37.9758 367.016C37.7278 366.68 37.5918 366.308 37.5678 365.9H39.2598C39.2918 366.156 39.4158 366.368 39.6318 366.536C39.8558 366.704 40.1318 366.788 40.4598 366.788C40.7798 366.788 41.0278 366.724 41.2038 366.596C41.3878 366.468 41.4798 366.304 41.4798 366.104C41.4798 365.888 41.3678 365.728 41.1438 365.624C40.9278 365.512 40.5798 365.392 40.0998 365.264C39.6038 365.144 39.1958 365.02 38.8758 364.892C38.5638 364.764 38.2918 364.568 38.0598 364.304C37.8358 364.04 37.7238 363.684 37.7238 363.236C37.7238 362.868 37.8278 362.532 38.0358 362.228C38.2518 361.924 38.5558 361.684 38.9478 361.508C39.3478 361.332 39.8158 361.244 40.3518 361.244C41.1438 361.244 41.7758 361.444 42.2478 361.844C42.7198 362.236 42.9798 362.768 43.0278 363.44H41.4198C41.3958 363.176 41.2838 362.968 41.0838 362.816C40.8918 362.656 40.6318 362.576 40.3038 362.576C39.9998 362.576 39.7638 362.632 39.5958 362.744C39.4358 362.856 39.3558 363.012 39.3558 363.212C39.3558 363.436 39.4678 363.608 39.6918 363.728C39.9158 363.84 40.2638 363.956 40.7358 364.076C41.2158 364.196 41.6118 364.32 41.9238 364.448C42.2358 364.576 42.5038 364.776 42.7278 365.048C42.9598 365.312 43.0798 365.664 43.0878 366.104C43.0878 366.488 42.9798 366.832 42.7638 367.136C42.5558 367.44 42.2518 367.68 41.8518 367.856C41.4598 368.024 40.9998 368.108 40.4718 368.108ZM47.1789 368.108C46.5389 368.108 45.9629 367.968 45.4509 367.688C44.9389 367.4 44.5349 366.996 44.2389 366.476C43.9509 365.956 43.8069 365.356 43.8069 364.676C43.8069 363.996 43.9549 363.396 44.2509 362.876C44.5549 362.356 44.9669 361.956 45.4869 361.676C46.0069 361.388 46.5869 361.244 47.2269 361.244C47.8669 361.244 48.4469 361.388 48.9669 361.676C49.4869 361.956 49.8949 362.356 50.1909 362.876C50.4949 363.396 50.6469 363.996 50.6469 364.676C50.6469 365.356 50.4909 365.956 50.1789 366.476C49.8749 366.996 49.4589 367.4 48.9309 367.688C48.4109 367.968 47.8269 368.108 47.1789 368.108ZM47.1789 366.644C47.4829 366.644 47.7669 366.572 48.0309 366.428C48.3029 366.276 48.5189 366.052 48.6789 365.756C48.8389 365.46 48.9189 365.1 48.9189 364.676C48.9189 364.044 48.7509 363.56 48.4149 363.224C48.0869 362.88 47.6829 362.708 47.2029 362.708C46.7229 362.708 46.3189 362.88 45.9909 363.224C45.6709 363.56 45.5109 364.044 45.5109 364.676C45.5109 365.308 45.6669 365.796 45.9789 366.14C46.2989 366.476 46.6989 366.644 47.1789 366.644ZM53.3193 359.12V368H51.6393V359.12H53.3193ZM54.3071 364.652C54.3071 363.98 54.4391 363.384 54.7031 362.864C54.9751 362.344 55.3391 361.944 55.7951 361.664C56.2591 361.384 56.7751 361.244 57.3431 361.244C57.8391 361.244 58.2711 361.344 58.6391 361.544C59.0151 361.744 59.3151 361.996 59.5391 362.3V361.352H61.2311V368H59.5391V367.028C59.3231 367.34 59.0231 367.6 58.6391 367.808C58.2631 368.008 57.8271 368.108 57.3311 368.108C56.7711 368.108 56.2591 367.964 55.7951 367.676C55.3391 367.388 54.9751 366.984 54.7031 366.464C54.4391 365.936 54.3071 365.332 54.3071 364.652ZM59.5391 364.676C59.5391 364.268 59.4591 363.92 59.2991 363.632C59.1391 363.336 58.9231 363.112 58.6511 362.96C58.3791 362.8 58.0871 362.72 57.7751 362.72C57.4631 362.72 57.1751 362.796 56.9111 362.948C56.6471 363.1 56.4311 363.324 56.2631 363.62C56.1031 363.908 56.0231 364.252 56.0231 364.652C56.0231 365.052 56.1031 365.404 56.2631 365.708C56.4311 366.004 56.6471 366.232 56.9111 366.392C57.1831 366.552 57.4711 366.632 57.7751 366.632C58.0871 366.632 58.3791 366.556 58.6511 366.404C58.9231 366.244 59.1391 366.02 59.2991 365.732C59.4591 365.436 59.5391 365.084 59.5391 364.676ZM64.5879 362.732V365.948C64.5879 366.172 64.6399 366.336 64.7439 366.44C64.8559 366.536 65.0399 366.584 65.2959 366.584H66.0759V368H65.0199C63.6039 368 62.8959 367.312 62.8959 365.936V362.732H62.1039V361.352H62.8959V359.708H64.5879V361.352H66.0759V362.732H64.5879ZM73.2243 364.532C73.2243 364.772 73.2083 364.988 73.1763 365.18H68.3163C68.3563 365.66 68.5243 366.036 68.8203 366.308C69.1163 366.58 69.4803 366.716 69.9123 366.716C70.5363 366.716 70.9803 366.448 71.2443 365.912H73.0563C72.8643 366.552 72.4963 367.08 71.9523 367.496C71.4083 367.904 70.7403 368.108 69.9483 368.108C69.3083 368.108 68.7323 367.968 68.2203 367.688C67.7163 367.4 67.3203 366.996 67.0323 366.476C66.7523 365.956 66.6123 365.356 66.6123 364.676C66.6123 363.988 66.7523 363.384 67.0323 362.864C67.3123 362.344 67.7043 361.944 68.2083 361.664C68.7123 361.384 69.2923 361.244 69.9483 361.244C70.5803 361.244 71.1443 361.38 71.6403 361.652C72.1443 361.924 72.5323 362.312 72.8043 362.816C73.0843 363.312 73.2243 363.884 73.2243 364.532ZM71.4843 364.052C71.4763 363.62 71.3203 363.276 71.0163 363.02C70.7123 362.756 70.3403 362.624 69.9003 362.624C69.4843 362.624 69.1323 362.752 68.8443 363.008C68.5643 363.256 68.3923 363.604 68.3283 364.052H71.4843ZM73.7785 364.652C73.7785 363.98 73.9105 363.384 74.1745 362.864C74.4465 362.344 74.8145 361.944 75.2785 361.664C75.7425 361.384 76.2585 361.244 76.8265 361.244C77.2585 361.244 77.6705 361.34 78.0625 361.532C78.4545 361.716 78.7665 361.964 78.9985 362.276V359.12H80.7025V368H78.9985V367.016C78.7905 367.344 78.4985 367.608 78.1225 367.808C77.7465 368.008 77.3105 368.108 76.8145 368.108C76.2545 368.108 75.7425 367.964 75.2785 367.676C74.8145 367.388 74.4465 366.984 74.1745 366.464C73.9105 365.936 73.7785 365.332 73.7785 364.652ZM79.0105 364.676C79.0105 364.268 78.9305 363.92 78.7705 363.632C78.6105 363.336 78.3945 363.112 78.1225 362.96C77.8505 362.8 77.5585 362.72 77.2465 362.72C76.9345 362.72 76.6465 362.796 76.3825 362.948C76.1185 363.1 75.9025 363.324 75.7345 363.62C75.5745 363.908 75.4945 364.252 75.4945 364.652C75.4945 365.052 75.5745 365.404 75.7345 365.708C75.9025 366.004 76.1185 366.232 76.3825 366.392C76.6545 366.552 76.9425 366.632 77.2465 366.632C77.5585 366.632 77.8505 366.556 78.1225 366.404C78.3945 366.244 78.6105 366.02 78.7705 365.732C78.9305 365.436 79.0105 365.084 79.0105 364.676ZM84.3147 363.8C84.3147 362.976 84.4987 362.24 84.8667 361.592C85.2427 360.936 85.7507 360.428 86.3907 360.068C87.0387 359.7 87.7627 359.516 88.5627 359.516C89.4987 359.516 90.3187 359.756 91.0227 360.236C91.7267 360.716 92.2187 361.38 92.4987 362.228H90.5667C90.3747 361.828 90.1027 361.528 89.7507 361.328C89.4067 361.128 89.0067 361.028 88.5507 361.028C88.0627 361.028 87.6267 361.144 87.2427 361.376C86.8667 361.6 86.5707 361.92 86.3547 362.336C86.1467 362.752 86.0427 363.24 86.0427 363.8C86.0427 364.352 86.1467 364.84 86.3547 365.264C86.5707 365.68 86.8667 366.004 87.2427 366.236C87.6267 366.46 88.0627 366.572 88.5507 366.572C89.0067 366.572 89.4067 366.472 89.7507 366.272C90.1027 366.064 90.3747 365.76 90.5667 365.36H92.4987C92.2187 366.216 91.7267 366.884 91.0227 367.364C90.3267 367.836 89.5067 368.072 88.5627 368.072C87.7627 368.072 87.0387 367.892 86.3907 367.532C85.7507 367.164 85.2427 366.656 84.8667 366.008C84.4987 365.36 84.3147 364.624 84.3147 363.8ZM93.2616 364.652C93.2616 363.98 93.3936 363.384 93.6576 362.864C93.9296 362.344 94.2936 361.944 94.7496 361.664C95.2136 361.384 95.7296 361.244 96.2976 361.244C96.7936 361.244 97.2256 361.344 97.5936 361.544C97.9696 361.744 98.2696 361.996 98.4936 362.3V361.352H100.186V368H98.4936V367.028C98.2776 367.34 97.9776 367.6 97.5936 367.808C97.2176 368.008 96.7816 368.108 96.2856 368.108C95.7256 368.108 95.2136 367.964 94.7496 367.676C94.2936 367.388 93.9296 366.984 93.6576 366.464C93.3936 365.936 93.2616 365.332 93.2616 364.652ZM98.4936 364.676C98.4936 364.268 98.4136 363.92 98.2536 363.632C98.0936 363.336 97.8776 363.112 97.6056 362.96C97.3336 362.8 97.0416 362.72 96.7296 362.72C96.4176 362.72 96.1296 362.796 95.8656 362.948C95.6016 363.1 95.3856 363.324 95.2176 363.62C95.0576 363.908 94.9776 364.252 94.9776 364.652C94.9776 365.052 95.0576 365.404 95.2176 365.708C95.3856 366.004 95.6016 366.232 95.8656 366.392C96.1376 366.552 96.4256 366.632 96.7296 366.632C97.0416 366.632 97.3336 366.556 97.6056 366.404C97.8776 366.244 98.0936 366.02 98.2536 365.732C98.4136 365.436 98.4936 365.084 98.4936 364.676ZM103.266 362.312C103.482 362.008 103.778 361.756 104.154 361.556C104.538 361.348 104.974 361.244 105.462 361.244C106.03 361.244 106.542 361.384 106.998 361.664C107.462 361.944 107.826 362.344 108.09 362.864C108.362 363.376 108.498 363.972 108.498 364.652C108.498 365.332 108.362 365.936 108.09 366.464C107.826 366.984 107.462 367.388 106.998 367.676C106.542 367.964 106.03 368.108 105.462 368.108C104.974 368.108 104.542 368.008 104.166 367.808C103.798 367.608 103.498 367.356 103.266 367.052V371.168H101.586V361.352H103.266V362.312ZM106.782 364.652C106.782 364.252 106.698 363.908 106.53 363.62C106.37 363.324 106.154 363.1 105.882 362.948C105.618 362.796 105.33 362.72 105.018 362.72C104.714 362.72 104.426 362.8 104.154 362.96C103.89 363.112 103.674 363.336 103.506 363.632C103.346 363.928 103.266 364.276 103.266 364.676C103.266 365.076 103.346 365.424 103.506 365.72C103.674 366.016 103.89 366.244 104.154 366.404C104.426 366.556 104.714 366.632 105.018 366.632C105.33 366.632 105.618 366.552 105.882 366.392C106.154 366.232 106.37 366.004 106.53 365.708C106.698 365.412 106.782 365.06 106.782 364.652ZM112.023 368.108C111.479 368.108 110.991 368.012 110.559 367.82C110.127 367.62 109.783 367.352 109.527 367.016C109.279 366.68 109.143 366.308 109.119 365.9H110.811C110.843 366.156 110.967 366.368 111.183 366.536C111.407 366.704 111.683 366.788 112.011 366.788C112.331 366.788 112.579 366.724 112.755 366.596C112.939 366.468 113.031 366.304 113.031 366.104C113.031 365.888 112.919 365.728 112.695 365.624C112.479 365.512 112.131 365.392 111.651 365.264C111.155 365.144 110.747 365.02 110.427 364.892C110.115 364.764 109.843 364.568 109.611 364.304C109.387 364.04 109.275 363.684 109.275 363.236C109.275 362.868 109.379 362.532 109.587 362.228C109.803 361.924 110.107 361.684 110.499 361.508C110.899 361.332 111.367 361.244 111.903 361.244C112.695 361.244 113.327 361.444 113.799 361.844C114.271 362.236 114.531 362.768 114.579 363.44H112.971C112.947 363.176 112.835 362.968 112.635 362.816C112.443 362.656 112.183 362.576 111.855 362.576C111.551 362.576 111.315 362.632 111.147 362.744C110.987 362.856 110.907 363.012 110.907 363.212C110.907 363.436 111.019 363.608 111.243 363.728C111.467 363.84 111.815 363.956 112.287 364.076C112.767 364.196 113.163 364.32 113.475 364.448C113.787 364.576 114.055 364.776 114.279 365.048C114.511 365.312 114.631 365.664 114.639 366.104C114.639 366.488 114.531 366.832 114.315 367.136C114.107 367.44 113.803 367.68 113.403 367.856C113.011 368.024 112.551 368.108 112.023 368.108ZM122.054 361.352V368H120.362V367.16C120.146 367.448 119.862 367.676 119.51 367.844C119.166 368.004 118.79 368.084 118.382 368.084C117.862 368.084 117.402 367.976 117.002 367.76C116.602 367.536 116.286 367.212 116.054 366.788C115.83 366.356 115.718 365.844 115.718 365.252V361.352H117.398V365.012C117.398 365.54 117.53 365.948 117.794 366.236C118.058 366.516 118.418 366.656 118.874 366.656C119.338 366.656 119.702 366.516 119.966 366.236C120.23 365.948 120.362 365.54 120.362 365.012V361.352H122.054ZM125.152 359.12V368H123.472V359.12H125.152ZM132.752 364.532C132.752 364.772 132.736 364.988 132.704 365.18H127.844C127.884 365.66 128.052 366.036 128.348 366.308C128.644 366.58 129.008 366.716 129.44 366.716C130.064 366.716 130.508 366.448 130.772 365.912H132.584C132.392 366.552 132.024 367.08 131.48 367.496C130.936 367.904 130.268 368.108 129.476 368.108C128.836 368.108 128.26 367.968 127.748 367.688C127.244 367.4 126.848 366.996 126.56 366.476C126.28 365.956 126.14 365.356 126.14 364.676C126.14 363.988 126.28 363.384 126.56 362.864C126.84 362.344 127.232 361.944 127.736 361.664C128.24 361.384 128.82 361.244 129.476 361.244C130.108 361.244 130.672 361.38 131.168 361.652C131.672 361.924 132.06 362.312 132.332 362.816C132.612 363.312 132.752 363.884 132.752 364.532ZM131.012 364.052C131.004 363.62 130.848 363.276 130.544 363.02C130.24 362.756 129.868 362.624 129.428 362.624C129.012 362.624 128.66 362.752 128.372 363.008C128.092 363.256 127.92 363.604 127.856 364.052H131.012Z" fill="#848484"/>
</g>
<g id="Group 8_3">
<path id="Vector_7" d="M169.556 364C169.556 364.982 168.76 365.778 167.778 365.778C166.796 365.778 166 364.982 166 364C166 363.018 166.796 362.222 167.778 362.222C168.76 362.222 169.556 363.018 169.556 364Z" fill="#848484"/>
<path id="Vector_8" d="M175.778 364C175.778 364.982 174.982 365.778 174 365.778C173.019 365.778 172.223 364.982 172.223 364C172.223 363.018 173.019 362.222 174 362.222C174.982 362.222 175.778 363.018 175.778 364Z" fill="#848484"/>
<path id="Vector_9" d="M182 364C182 364.982 181.204 365.778 180.222 365.778C179.24 365.778 178.445 364.982 178.445 364C178.445 363.018 179.24 362.222 180.222 362.222C181.204 362.222 182 363.018 182 364Z" fill="#848484"/>
</g>
</g>
<g id="Graphics_2">
<path d="M22 382.5H178C181.785 382.5 184.574 382.501 186.712 382.788C188.835 383.074 190.241 383.633 191.304 384.696C192.367 385.759 192.926 387.165 193.212 389.288C193.499 391.426 193.5 394.215 193.5 398V418C193.5 421.785 193.499 424.574 193.212 426.712C192.926 428.835 192.367 430.241 191.304 431.304C190.241 432.367 188.835 432.926 186.712 433.212C184.574 433.499 181.785 433.5 178 433.5H22C18.2146 433.5 15.4255 433.499 13.2881 433.212C11.1652 432.926 9.75943 432.367 8.69629 431.304C7.63315 430.241 7.07354 428.835 6.78809 426.712C6.50071 424.574 6.5 421.785 6.5 418V398C6.5 394.215 6.50071 391.426 6.78809 389.288C7.07354 387.165 7.63315 385.759 8.69629 384.696C9.75943 383.633 11.1652 383.074 13.2881 382.788C14.8912 382.573 16.8611 382.519 19.3428 382.505L22 382.5Z" fill="#252525"/>
<path d="M22 382.5H178C181.785 382.5 184.574 382.501 186.712 382.788C188.835 383.074 190.241 383.633 191.304 384.696C192.367 385.759 192.926 387.165 193.212 389.288C193.499 391.426 193.5 394.215 193.5 398V418C193.5 421.785 193.499 424.574 193.212 426.712C192.926 428.835 192.367 430.241 191.304 431.304C190.241 432.367 188.835 432.926 186.712 433.212C184.574 433.499 181.785 433.5 178 433.5H22C18.2146 433.5 15.4255 433.499 13.2881 433.212C11.1652 432.926 9.75943 432.367 8.69629 431.304C7.63315 430.241 7.07354 428.835 6.78809 426.712C6.50071 424.574 6.5 421.785 6.5 418V398C6.5 394.215 6.50071 391.426 6.78809 389.288C7.07354 387.165 7.63315 385.759 8.69629 384.696C9.75943 383.633 11.1652 383.074 13.2881 382.788C14.8912 382.573 16.8611 382.519 19.3428 382.505L22 382.5Z" stroke="url(#paint5_linear_867_6)"/>
<g id="Elements_3">
<path id="Order Value_2" d="M22.716 402.084C21.932 402.084 21.212 401.9 20.556 401.532C19.9 401.164 19.38 400.656 18.996 400.008C18.612 399.352 18.42 398.612 18.42 397.788C18.42 396.972 18.612 396.24 18.996 395.592C19.38 394.936 19.9 394.424 20.556 394.056C21.212 393.688 21.932 393.504 22.716 393.504C23.508 393.504 24.228 393.688 24.876 394.056C25.532 394.424 26.048 394.936 26.424 395.592C26.808 396.24 27 396.972 27 397.788C27 398.612 26.808 399.352 26.424 400.008C26.048 400.656 25.532 401.164 24.876 401.532C24.22 401.9 23.5 402.084 22.716 402.084ZM22.716 400.584C23.22 400.584 23.664 400.472 24.048 400.248C24.432 400.016 24.732 399.688 24.948 399.264C25.164 398.84 25.272 398.348 25.272 397.788C25.272 397.228 25.164 396.74 24.948 396.324C24.732 395.9 24.432 395.576 24.048 395.352C23.664 395.128 23.22 395.016 22.716 395.016C22.212 395.016 21.764 395.128 21.372 395.352C20.988 395.576 20.688 395.9 20.472 396.324C20.256 396.74 20.148 397.228 20.148 397.788C20.148 398.348 20.256 398.84 20.472 399.264C20.688 399.688 20.988 400.016 21.372 400.248C21.764 400.472 22.212 400.584 22.716 400.584ZM29.9299 396.384C30.1459 396.032 30.4259 395.756 30.7699 395.556C31.1219 395.356 31.5219 395.256 31.9699 395.256V397.02H31.5259C30.9979 397.02 30.5979 397.144 30.3259 397.392C30.0619 397.64 29.9299 398.072 29.9299 398.688V402H28.2499V395.352H29.9299V396.384ZM32.6694 398.652C32.6694 397.98 32.8014 397.384 33.0654 396.864C33.3374 396.344 33.7054 395.944 34.1694 395.664C34.6334 395.384 35.1494 395.244 35.7174 395.244C36.1494 395.244 36.5614 395.34 36.9534 395.532C37.3454 395.716 37.6574 395.964 37.8894 396.276V393.12H39.5934V402H37.8894V401.016C37.6814 401.344 37.3894 401.608 37.0134 401.808C36.6374 402.008 36.2014 402.108 35.7054 402.108C35.1454 402.108 34.6334 401.964 34.1694 401.676C33.7054 401.388 33.3374 400.984 33.0654 400.464C32.8014 399.936 32.6694 399.332 32.6694 398.652ZM37.9014 398.676C37.9014 398.268 37.8214 397.92 37.6614 397.632C37.5014 397.336 37.2854 397.112 37.0134 396.96C36.7414 396.8 36.4494 396.72 36.1374 396.72C35.8254 396.72 35.5374 396.796 35.2734 396.948C35.0094 397.1 34.7934 397.324 34.6254 397.62C34.4654 397.908 34.3854 398.252 34.3854 398.652C34.3854 399.052 34.4654 399.404 34.6254 399.708C34.7934 400.004 35.0094 400.232 35.2734 400.392C35.5454 400.552 35.8334 400.632 36.1374 400.632C36.4494 400.632 36.7414 400.556 37.0134 400.404C37.2854 400.244 37.5014 400.02 37.6614 399.732C37.8214 399.436 37.9014 399.084 37.9014 398.676ZM47.4143 398.532C47.4143 398.772 47.3983 398.988 47.3663 399.18H42.5063C42.5463 399.66 42.7143 400.036 43.0103 400.308C43.3063 400.58 43.6703 400.716 44.1023 400.716C44.7263 400.716 45.1703 400.448 45.4343 399.912H47.2463C47.0543 400.552 46.6863 401.08 46.1423 401.496C45.5983 401.904 44.9303 402.108 44.1383 402.108C43.4983 402.108 42.9223 401.968 42.4103 401.688C41.9063 401.4 41.5103 400.996 41.2223 400.476C40.9423 399.956 40.8022 399.356 40.8022 398.676C40.8022 397.988 40.9423 397.384 41.2223 396.864C41.5023 396.344 41.8943 395.944 42.3983 395.664C42.9023 395.384 43.4823 395.244 44.1383 395.244C44.7703 395.244 45.3343 395.38 45.8303 395.652C46.3343 395.924 46.7223 396.312 46.9943 396.816C47.2743 397.312 47.4143 397.884 47.4143 398.532ZM45.6743 398.052C45.6663 397.62 45.5103 397.276 45.2063 397.02C44.9023 396.756 44.5303 396.624 44.0903 396.624C43.6743 396.624 43.3223 396.752 43.0343 397.008C42.7543 397.256 42.5823 397.604 42.5183 398.052H45.6743ZM50.3205 396.384C50.5365 396.032 50.8165 395.756 51.1605 395.556C51.5125 395.356 51.9125 395.256 52.3605 395.256V397.02H51.9165C51.3885 397.02 50.9885 397.144 50.7165 397.392C50.4525 397.64 50.3205 398.072 50.3205 398.688V402H48.6405V395.352H50.3205V396.384ZM63.8754 393.624L60.8034 402H58.7634L55.6914 393.624H57.4914L59.7954 400.284L62.0874 393.624H63.8754ZM64.4507 398.652C64.4507 397.98 64.5827 397.384 64.8467 396.864C65.1187 396.344 65.4827 395.944 65.9387 395.664C66.4027 395.384 66.9187 395.244 67.4867 395.244C67.9827 395.244 68.4147 395.344 68.7827 395.544C69.1587 395.744 69.4587 395.996 69.6827 396.3V395.352H71.3747V402H69.6827V401.028C69.4667 401.34 69.1667 401.6 68.7827 401.808C68.4067 402.008 67.9707 402.108 67.4747 402.108C66.9147 402.108 66.4027 401.964 65.9387 401.676C65.4827 401.388 65.1187 400.984 64.8467 400.464C64.5827 399.936 64.4507 399.332 64.4507 398.652ZM69.6827 398.676C69.6827 398.268 69.6027 397.92 69.4427 397.632C69.2827 397.336 69.0667 397.112 68.7947 396.96C68.5227 396.8 68.2307 396.72 67.9187 396.72C67.6067 396.72 67.3187 396.796 67.0547 396.948C66.7907 397.1 66.5747 397.324 66.4067 397.62C66.2467 397.908 66.1667 398.252 66.1667 398.652C66.1667 399.052 66.2467 399.404 66.4067 399.708C66.5747 400.004 66.7907 400.232 67.0547 400.392C67.3267 400.552 67.6147 400.632 67.9187 400.632C68.2307 400.632 68.5227 400.556 68.7947 400.404C69.0667 400.244 69.2827 400.02 69.4427 399.732C69.6027 399.436 69.6827 399.084 69.6827 398.676ZM74.6955 393.12V402H73.0155V393.12H74.6955ZM82.6313 395.352V402H80.9393V401.16C80.7233 401.448 80.4393 401.676 80.0873 401.844C79.7433 402.004 79.3673 402.084 78.9593 402.084C78.4393 402.084 77.9793 401.976 77.5793 401.76C77.1793 401.536 76.8633 401.212 76.6313 400.788C76.4073 400.356 76.2953 399.844 76.2953 399.252V395.352H77.9753V399.012C77.9753 399.54 78.1073 399.948 78.3713 400.236C78.6353 400.516 78.9953 400.656 79.4513 400.656C79.9153 400.656 80.2793 400.516 80.5433 400.236C80.8073 399.948 80.9393 399.54 80.9393 399.012V395.352H82.6313ZM90.4689 398.532C90.4689 398.772 90.4529 398.988 90.4209 399.18H85.5609C85.6009 399.66 85.7689 400.036 86.0649 400.308C86.3609 400.58 86.7249 400.716 87.1569 400.716C87.7809 400.716 88.2249 400.448 88.4889 399.912H90.3009C90.1089 400.552 89.7409 401.08 89.1969 401.496C88.6529 401.904 87.9849 402.108 87.1929 402.108C86.5529 402.108 85.9769 401.968 85.4649 401.688C84.9609 401.4 84.5649 400.996 84.2769 400.476C83.9969 399.956 83.8569 399.356 83.8569 398.676C83.8569 397.988 83.9969 397.384 84.2769 396.864C84.5569 396.344 84.9489 395.944 85.4529 395.664C85.9569 395.384 86.5369 395.244 87.1929 395.244C87.8249 395.244 88.3889 395.38 88.8849 395.652C89.3889 395.924 89.7769 396.312 90.0489 396.816C90.3289 397.312 90.4689 397.884 90.4689 398.532ZM88.7289 398.052C88.7209 397.62 88.5649 397.276 88.2609 397.02C87.9569 396.756 87.5849 396.624 87.1449 396.624C86.7289 396.624 86.3769 396.752 86.0889 397.008C85.8089 397.256 85.6369 397.604 85.5729 398.052H88.7289Z" fill="#848484"/>
<path id="$35" d="M166.654 399.624C166.654 400.024 166.554 400.4 166.354 400.752C166.162 401.104 165.874 401.4 165.49 401.64C165.114 401.88 164.666 402.024 164.146 402.072V403.044H163.366V402.072C162.614 402 162.006 401.764 161.542 401.364C161.078 400.964 160.846 400.436 160.846 399.78H162.31C162.334 400.092 162.434 400.352 162.61 400.56C162.786 400.76 163.038 400.888 163.366 400.944V398.304C162.83 398.168 162.394 398.032 162.058 397.896C161.722 397.752 161.434 397.528 161.194 397.224C160.962 396.92 160.846 396.504 160.846 395.976C160.846 395.312 161.078 394.764 161.542 394.332C162.006 393.892 162.614 393.636 163.366 393.564V392.592H164.146V393.564C164.85 393.628 165.414 393.852 165.838 394.236C166.27 394.612 166.514 395.132 166.57 395.796H165.106C165.082 395.548 164.986 395.328 164.818 395.136C164.65 394.936 164.426 394.8 164.146 394.728V397.32C164.682 397.448 165.118 397.584 165.454 397.728C165.79 397.864 166.074 398.084 166.306 398.388C166.538 398.684 166.654 399.096 166.654 399.624ZM162.238 395.904C162.238 396.232 162.334 396.488 162.526 396.672C162.726 396.856 163.006 397.004 163.366 397.116V394.692C163.022 394.732 162.746 394.856 162.538 395.064C162.338 395.272 162.238 395.552 162.238 395.904ZM164.146 400.944C164.498 400.888 164.774 400.748 164.974 400.524C165.174 400.292 165.274 400.016 165.274 399.696C165.274 399.376 165.174 399.128 164.974 398.952C164.782 398.768 164.506 398.62 164.146 398.508V400.944ZM168.267 395.412C168.315 394.668 168.599 394.088 169.119 393.672C169.647 393.256 170.319 393.048 171.135 393.048C171.695 393.048 172.179 393.148 172.587 393.348C172.995 393.548 173.303 393.82 173.511 394.164C173.719 394.508 173.823 394.896 173.823 395.328C173.823 395.824 173.691 396.248 173.427 396.6C173.163 396.952 172.847 397.188 172.479 397.308V397.356C172.951 397.5 173.319 397.764 173.583 398.148C173.847 398.524 173.979 399.008 173.979 399.6C173.979 400.072 173.871 400.492 173.655 400.86C173.439 401.228 173.119 401.52 172.695 401.736C172.271 401.944 171.763 402.048 171.171 402.048C170.307 402.048 169.595 401.828 169.035 401.388C168.483 400.94 168.187 400.3 168.147 399.468H169.467C169.499 399.892 169.663 400.24 169.959 400.512C170.255 400.776 170.655 400.908 171.159 400.908C171.647 400.908 172.023 400.776 172.287 400.512C172.551 400.24 172.683 399.892 172.683 399.468C172.683 398.908 172.503 398.512 172.143 398.28C171.791 398.04 171.247 397.92 170.511 397.92H170.199V396.792H170.523C171.171 396.784 171.663 396.676 171.999 396.468C172.343 396.26 172.515 395.932 172.515 395.484C172.515 395.1 172.391 394.796 172.143 394.572C171.895 394.34 171.543 394.224 171.087 394.224C170.639 394.224 170.291 394.34 170.043 394.572C169.795 394.796 169.647 395.076 169.599 395.412H168.267ZM180.696 394.428H176.676V396.816C176.844 396.592 177.092 396.404 177.42 396.252C177.756 396.1 178.112 396.024 178.488 396.024C179.16 396.024 179.704 396.168 180.12 396.456C180.544 396.744 180.844 397.108 181.02 397.548C181.204 397.988 181.296 398.452 181.296 398.94C181.296 399.532 181.18 400.06 180.948 400.524C180.724 400.98 180.384 401.34 179.928 401.604C179.48 401.868 178.928 402 178.272 402C177.4 402 176.7 401.784 176.172 401.352C175.644 400.92 175.328 400.348 175.224 399.636H176.556C176.644 400.012 176.84 400.312 177.144 400.536C177.448 400.752 177.828 400.86 178.284 400.86C178.852 400.86 179.276 400.688 179.556 400.344C179.844 400 179.988 399.544 179.988 398.976C179.988 398.4 179.844 397.96 179.556 397.656C179.268 397.344 178.844 397.188 178.284 397.188C177.892 397.188 177.56 397.288 177.288 397.488C177.024 397.68 176.832 397.944 176.712 398.28H175.416V393.228H180.696V394.428Z" fill="#848484"/>
</g>
<g id="Elements_4">
<path id="Profit Margin_2" d="M24.936 416.216C24.936 416.664 24.828 417.084 24.612 417.476C24.404 417.868 24.072 418.184 23.616 418.424C23.168 418.664 22.6 418.784 21.912 418.784H20.508V422H18.828V413.624H21.912C22.56 413.624 23.112 413.736 23.568 413.96C24.024 414.184 24.364 414.492 24.588 414.884C24.82 415.276 24.936 415.72 24.936 416.216ZM21.84 417.428C22.304 417.428 22.648 417.324 22.872 417.116C23.096 416.9 23.208 416.6 23.208 416.216C23.208 415.4 22.752 414.992 21.84 414.992H20.508V417.428H21.84ZM27.8088 416.384C28.0248 416.032 28.3048 415.756 28.6488 415.556C29.0008 415.356 29.4008 415.256 29.8488 415.256V417.02H29.4048C28.8768 417.02 28.4768 417.144 28.2048 417.392C27.9408 417.64 27.8088 418.072 27.8088 418.688V422H26.1288V415.352H27.8088V416.384ZM33.9323 422.108C33.2923 422.108 32.7163 421.968 32.2043 421.688C31.6923 421.4 31.2883 420.996 30.9923 420.476C30.7043 419.956 30.5603 419.356 30.5603 418.676C30.5603 417.996 30.7083 417.396 31.0043 416.876C31.3083 416.356 31.7203 415.956 32.2403 415.676C32.7603 415.388 33.3403 415.244 33.9803 415.244C34.6203 415.244 35.2003 415.388 35.7203 415.676C36.2403 415.956 36.6483 416.356 36.9443 416.876C37.2483 417.396 37.4003 417.996 37.4003 418.676C37.4003 419.356 37.2443 419.956 36.9323 420.476C36.6283 420.996 36.2123 421.4 35.6843 421.688C35.1643 421.968 34.5803 422.108 33.9323 422.108ZM33.9323 420.644C34.2363 420.644 34.5203 420.572 34.7843 420.428C35.0563 420.276 35.2723 420.052 35.4323 419.756C35.5923 419.46 35.6723 419.1 35.6723 418.676C35.6723 418.044 35.5043 417.56 35.1683 417.224C34.8403 416.88 34.4363 416.708 33.9563 416.708C33.4763 416.708 33.0723 416.88 32.7443 417.224C32.4243 417.56 32.2643 418.044 32.2643 418.676C32.2643 419.308 32.4203 419.796 32.7323 420.14C33.0523 420.476 33.4523 420.644 33.9323 420.644ZM41.6807 416.732H40.5167V422H38.8127V416.732H38.0567V415.352H38.8127V415.016C38.8127 414.2 39.0447 413.6 39.5087 413.216C39.9727 412.832 40.6727 412.652 41.6087 412.676V414.092C41.2007 414.084 40.9167 414.152 40.7567 414.296C40.5967 414.44 40.5167 414.7 40.5167 415.076V415.352H41.6807V416.732ZM43.6214 414.56C43.3254 414.56 43.0774 414.468 42.8774 414.284C42.6854 414.092 42.5894 413.856 42.5894 413.576C42.5894 413.296 42.6854 413.064 42.8774 412.88C43.0774 412.688 43.3254 412.592 43.6214 412.592C43.9174 412.592 44.1614 412.688 44.3534 412.88C44.5534 413.064 44.6534 413.296 44.6534 413.576C44.6534 413.856 44.5534 414.092 44.3534 414.284C44.1614 414.468 43.9174 414.56 43.6214 414.56ZM44.4494 415.352V422H42.7694V415.352H44.4494ZM48.0653 416.732V419.948C48.0653 420.172 48.1173 420.336 48.2213 420.44C48.3333 420.536 48.5173 420.584 48.7733 420.584H49.5533V422H48.4973C47.0813 422 46.3733 421.312 46.3733 419.936V416.732H45.5813V415.352H46.3733V413.708H48.0653V415.352H49.5533V416.732H48.0653ZM62.753 413.624V422H61.073V416.552L58.829 422H57.557L55.301 416.552V422H53.621V413.624H55.529L58.193 419.852L60.857 413.624H62.753ZM63.9819 418.652C63.9819 417.98 64.1139 417.384 64.3779 416.864C64.6499 416.344 65.0139 415.944 65.4699 415.664C65.9339 415.384 66.4499 415.244 67.0179 415.244C67.5139 415.244 67.9459 415.344 68.3139 415.544C68.6899 415.744 68.9899 415.996 69.2139 416.3V415.352H70.9059V422H69.2139V421.028C68.9979 421.34 68.6979 421.6 68.3139 421.808C67.9379 422.008 67.5019 422.108 67.0059 422.108C66.4459 422.108 65.9339 421.964 65.4699 421.676C65.0139 421.388 64.6499 420.984 64.3779 420.464C64.1139 419.936 63.9819 419.332 63.9819 418.652ZM69.2139 418.676C69.2139 418.268 69.1339 417.92 68.9739 417.632C68.8139 417.336 68.5979 417.112 68.3259 416.96C68.0539 416.8 67.7619 416.72 67.4499 416.72C67.1379 416.72 66.8499 416.796 66.5859 416.948C66.3219 417.1 66.1059 417.324 65.9379 417.62C65.7779 417.908 65.6979 418.252 65.6979 418.652C65.6979 419.052 65.7779 419.404 65.9379 419.708C66.1059 420.004 66.3219 420.232 66.5859 420.392C66.8579 420.552 67.1459 420.632 67.4499 420.632C67.7619 420.632 68.0539 420.556 68.3259 420.404C68.5979 420.244 68.8139 420.02 68.9739 419.732C69.1339 419.436 69.2139 419.084 69.2139 418.676ZM74.2268 416.384C74.4428 416.032 74.7228 415.756 75.0668 415.556C75.4188 415.356 75.8188 415.256 76.2668 415.256V417.02H75.8228C75.2948 417.02 74.8948 417.144 74.6228 417.392C74.3588 417.64 74.2268 418.072 74.2268 418.688V422H72.5468V415.352H74.2268V416.384ZM80.0023 415.244C80.4983 415.244 80.9343 415.344 81.3103 415.544C81.6863 415.736 81.9823 415.988 82.1983 416.3V415.352H83.8903V422.048C83.8903 422.664 83.7663 423.212 83.5183 423.692C83.2703 424.18 82.8983 424.564 82.4023 424.844C81.9063 425.132 81.3063 425.276 80.6023 425.276C79.6583 425.276 78.8823 425.056 78.2743 424.616C77.6743 424.176 77.3343 423.576 77.2543 422.816H78.9223C79.0103 423.12 79.1983 423.36 79.4863 423.536C79.7823 423.72 80.1383 423.812 80.5543 423.812C81.0423 423.812 81.4383 423.664 81.7423 423.368C82.0463 423.08 82.1983 422.64 82.1983 422.048V421.016C81.9823 421.328 81.6823 421.588 81.2983 421.796C80.9223 422.004 80.4903 422.108 80.0023 422.108C79.4423 422.108 78.9303 421.964 78.4663 421.676C78.0023 421.388 77.6343 420.984 77.3623 420.464C77.0983 419.936 76.9663 419.332 76.9663 418.652C76.9663 417.98 77.0983 417.384 77.3623 416.864C77.6343 416.344 77.9983 415.944 78.4543 415.664C78.9183 415.384 79.4343 415.244 80.0023 415.244ZM82.1983 418.676C82.1983 418.268 82.1183 417.92 81.9583 417.632C81.7983 417.336 81.5823 417.112 81.3103 416.96C81.0383 416.8 80.7463 416.72 80.4343 416.72C80.1223 416.72 79.8343 416.796 79.5703 416.948C79.3063 417.1 79.0903 417.324 78.9223 417.62C78.7623 417.908 78.6823 418.252 78.6823 418.652C78.6823 419.052 78.7623 419.404 78.9223 419.708C79.0903 420.004 79.3063 420.232 79.5703 420.392C79.8423 420.552 80.1303 420.632 80.4343 420.632C80.7463 420.632 81.0383 420.556 81.3103 420.404C81.5823 420.244 81.7983 420.02 81.9583 419.732C82.1183 419.436 82.1983 419.084 82.1983 418.676ZM86.3831 414.56C86.0871 414.56 85.8391 414.468 85.6391 414.284C85.4471 414.092 85.3511 413.856 85.3511 413.576C85.3511 413.296 85.4471 413.064 85.6391 412.88C85.8391 412.688 86.0871 412.592 86.3831 412.592C86.6791 412.592 86.9231 412.688 87.1151 412.88C87.3151 413.064 87.4151 413.296 87.4151 413.576C87.4151 413.856 87.3151 414.092 87.1151 414.284C86.9231 414.468 86.6791 414.56 86.3831 414.56ZM87.2111 415.352V422H85.5311V415.352H87.2111ZM92.555 415.256C93.347 415.256 93.987 415.508 94.475 416.012C94.963 416.508 95.207 417.204 95.207 418.1V422H93.527V418.328C93.527 417.8 93.395 417.396 93.131 417.116C92.867 416.828 92.507 416.684 92.051 416.684C91.587 416.684 91.219 416.828 90.947 417.116C90.683 417.396 90.551 417.8 90.551 418.328V422H88.871V415.352H90.551V416.18C90.775 415.892 91.059 415.668 91.403 415.508C91.755 415.34 92.139 415.256 92.555 415.256Z" fill="#848484"/>
<path id="$14" d="M169.478 419.624C169.478 420.024 169.378 420.4 169.178 420.752C168.986 421.104 168.698 421.4 168.314 421.64C167.938 421.88 167.49 422.024 166.97 422.072V423.044H166.19V422.072C165.438 422 164.83 421.764 164.366 421.364C163.902 420.964 163.67 420.436 163.67 419.78H165.134C165.158 420.092 165.258 420.352 165.434 420.56C165.61 420.76 165.862 420.888 166.19 420.944V418.304C165.654 418.168 165.218 418.032 164.882 417.896C164.546 417.752 164.258 417.528 164.018 417.224C163.786 416.92 163.67 416.504 163.67 415.976C163.67 415.312 163.902 414.764 164.366 414.332C164.83 413.892 165.438 413.636 166.19 413.564V412.592H166.97V413.564C167.674 413.628 168.238 413.852 168.662 414.236C169.094 414.612 169.338 415.132 169.394 415.796H167.93C167.906 415.548 167.81 415.328 167.642 415.136C167.474 414.936 167.25 414.8 166.97 414.728V417.32C167.506 417.448 167.942 417.584 168.278 417.728C168.614 417.864 168.898 418.084 169.13 418.388C169.362 418.684 169.478 419.096 169.478 419.624ZM165.062 415.904C165.062 416.232 165.158 416.488 165.35 416.672C165.55 416.856 165.83 417.004 166.19 417.116V414.692C165.846 414.732 165.57 414.856 165.362 415.064C165.162 415.272 165.062 415.552 165.062 415.904ZM166.97 420.944C167.322 420.888 167.598 420.748 167.798 420.524C167.998 420.292 168.098 420.016 168.098 419.696C168.098 419.376 167.998 419.128 167.798 418.952C167.606 418.768 167.33 418.62 166.97 418.508V420.944ZM170.935 414.5V413.252H173.431V422H172.051V414.5H170.935ZM174.782 420.176V419.144L178.814 413.36H180.47V418.988H181.586V420.176H180.47V422H179.126V420.176H174.782ZM179.186 414.752L176.354 418.988H179.186V414.752Z" fill="#848484"/>
</g>
</g>
</g>
</g>
<defs>
<filter id="filter1_f_867_6" x="124" y="88.5" width="18" height="18" filterUnits="userSpaceOnUse" color-interpolation-filters="sRGB">
<feFlood flood-opacity="0" result="BackgroundImageFix"/>
<feBlend mode="normal" in="SourceGraphic" in2="BackgroundImageFix" result="shape"/>
<feGaussianBlur stdDeviation="2" result="effect1_foregroundBlur_867_6"/>
</filter>
<filter id="filter2_fn_867_6" x="16" y="21" width="472" height="439" filterUnits="userSpaceOnUse" color-interpolation-filters="sRGB">
<feFlood flood-opacity="0" result="BackgroundImageFix"/>
<feBlend mode="normal" in="SourceGraphic" in2="BackgroundImageFix" result="shape"/>
<feGaussianBlur stdDeviation="0" result="effect1_foregroundBlur_867_6"/>
<feTurbulence type="fractalNoise" baseFrequency="2 2" stitchTiles="stitch" numOctaves="3" result="noise" seed="9213" />
<feColorMatrix in="noise" type="luminanceToAlpha" result="alphaNoise" />
<feComponentTransfer in="alphaNoise" result="coloredNoise1">
<feFuncA type="discrete" tableValues="1 1 1 1 1 1 1 1 1 1 1 1 1 1 1 1 1 1 1 1 1 1 1 1 1 1 1 1 1 1 1 1 1 1 1 1 1 1 1 1 1 1 1 1 1 1 1 1 1 1 1 0 0 0 0 0 0 0 0 0 0 0 0 0 0 0 0 0 0 0 0 0 0 0 0 0 0 0 0 0 0 0 0 0 0 0 0 0 0 0 0 0 0 0 0 0 0 0 0 0 "/>
</feComponentTransfer>
<feComposite operator="in" in2="effect1_foregroundBlur_867_6" in="coloredNoise1" result="noise1Clipped" />
<feFlood flood-color="#0055C6" result="color1Flood" />
<feComposite operator="in" in2="noise1Clipped" in="color1Flood" result="color1" />
<feMerge result="effect2_noise_867_6">
<feMergeNode in="effect1_foregroundBlur_867_6" />
<feMergeNode in="color1" />
</feMerge>
</filter>
<filter id="filter3_fn_867_6" x="10.4387" y="-0.955811" width="296.905" height="256.109" filterUnits="userSpaceOnUse" color-interpolation-filters="sRGB">
<feFlood flood-opacity="0" result="BackgroundImageFix"/>
<feBlend mode="normal" in="SourceGraphic" in2="BackgroundImageFix" result="shape"/>
<feGaussianBlur stdDeviation="30" result="effect1_foregroundBlur_867_6"/>
<feTurbulence type="fractalNoise" baseFrequency="2 2" stitchTiles="stitch" numOctaves="3" result="noise" seed="9213" />
<feColorMatrix in="noise" type="luminanceToAlpha" result="alphaNoise" />
<feComponentTransfer in="alphaNoise" result="coloredNoise1">
<feFuncA type="discrete" tableValues="1 1 1 1 1 1 1 1 1 1 1 1 1 1 1 1 1 1 1 1 1 1 1 1 1 1 1 1 1 1 1 1 1 1 1 1 1 1 1 1 1 1 1 1 1 1 1 1 1 1 1 0 0 0 0 0 0 0 0 0 0 0 0 0 0 0 0 0 0 0 0 0 0 0 0 0 0 0 0 0 0 0 0 0 0 0 0 0 0 0 0 0 0 0 0 0 0 0 0 0 "/>
</feComponentTransfer>
<feComposite operator="in" in2="effect1_foregroundBlur_867_6" in="coloredNoise1" result="noise1Clipped" />
<feFlood flood-color="#0055C6" result="color1Flood" />
<feComposite operator="in" in2="noise1Clipped" in="color1Flood" result="color1" />
<feMerge result="effect2_noise_867_6">
<feMergeNode in="effect1_foregroundBlur_867_6" />
<feMergeNode in="color1" />
</feMerge>
</filter>
<filter id="filter5_f_867_6" x="325.8" y="10.8" width="14.4" height="14.4" filterUnits="userSpaceOnUse" color-interpolation-filters="sRGB">
<feFlood flood-opacity="0" result="BackgroundImageFix"/>
<feBlend mode="normal" in="SourceGraphic" in2="BackgroundImageFix" result="shape"/>
<feGaussianBlur stdDeviation="1.6" result="effect1_foregroundBlur_867_6"/>
</filter>
<filter id="filter7_f_867_6" x="14.8" y="356.8" width="14.4" height="14.4" filterUnits="userSpaceOnUse" color-interpolation-filters="sRGB">
<feFlood flood-opacity="0" result="BackgroundImageFix"/>
<feBlend mode="normal" in="SourceGraphic" in2="BackgroundImageFix" result="shape"/>
<feGaussianBlur stdDeviation="1.6" result="effect1_foregroundBlur_867_6"/>
</filter>
<radialGradient id="paint0_radial_867_6" cx="0" cy="0" r="1" gradientTransform="matrix(0.413359 174.346 -379.631 0.694918 251.587 185.653)" gradientUnits="userSpaceOnUse">
<stop offset="0.550594" stop-color="#5DA2FF" stop-opacity="0"/>
<stop offset="0.929335" stop-color="#0055C6" stop-opacity="0.2"/>
<stop offset="1" stop-color="#0077FF"/>
</radialGradient>
<radialGradient id="paint1_radial_867_6" cx="0" cy="0" r="1" gradientUnits="userSpaceOnUse" gradientTransform="translate(158.891 127.099) rotate(90) scale(41.7532 125.09)">
<stop stop-color="#0077FF"/>
<stop offset="1" stop-color="#0077FF" stop-opacity="0"/>
</radialGradient>
<radialGradient id="paint2_radial_867_6" cx="0" cy="0" r="1" gradientTransform="matrix(61 -76 92.6988 22.6728 214.5 256)" gradientUnits="userSpaceOnUse">
<stop stop-color="#848484"/>
<stop offset="1" stop-color="#848484" stop-opacity="0"/>
</radialGradient>
<linearGradient id="paint3_linear_867_6" x1="116" y1="121" x2="373.859" y2="106.61" gradientUnits="userSpaceOnUse">
<stop stop-color="#848484"/>
<stop offset="1" stop-color="#848484" stop-opacity="0"/>
</linearGradient>
<linearGradient id="paint4_linear_867_6" x1="317" y1="36" x2="490.333" y2="5.27073" gradientUnits="userSpaceOnUse">
<stop stop-color="#848484"/>
<stop offset="1" stop-color="#848484" stop-opacity="0"/>
</linearGradient>
<linearGradient id="paint5_linear_867_6" x1="6" y1="382" x2="179.333" y2="351.271" gradientUnits="userSpaceOnUse">
<stop stop-color="#848484"/>
<stop offset="1" stop-color="#848484" stop-opacity="0"/>
</linearGradient>
<clipPath id="clip0_867_6">
<rect x="116" y="121" width="272" height="239" rx="16" fill="white"/>
</clipPath>
</defs>
</svg>
