<svg width="12" height="12" viewBox="0 0 12 12" fill="none" xmlns="http://www.w3.org/2000/svg">
<path id="Cross" d="M7.86667 6L11.5333 2.33333C12.0667 1.8 12.0667 1 11.5333 0.466667C11.3333 0.2 11 0 10.6667 0C10.3333 0 10 0.133333 9.73333 0.4L6 4.13333L2.33333 0.466667C1.8 -0.0666668 0.933333 -0.0666668 0.466667 0.466667C0.2 0.666667 0 1 0 1.4C0 1.8 0.133333 2.06667 0.4 2.33333L4.06667 6L0.4 9.66667C0.2 9.93333 0 10.2667 0 10.6667C0 11 0.133333 11.3333 0.4 11.6C0.666667 11.8667 1 12 1.33333 12C1.66667 12 2 11.8667 2.26667 11.6L5.93333 7.93333L9.6 11.6C10.1333 12.1333 11 12.1333 11.4667 11.6C12 11.0667 12 10.2 11.4667 9.73333L7.86667 6Z" fill="#121212"/>
</svg>
