<svg width="541" height="500" viewBox="0 0 541 500" fill="none" xmlns="http://www.w3.org/2000/svg">
<g id="Delusion vs Reality Graphics">
<g id="Frontend Acquisition (ROAS)">
<rect width="341" height="268" rx="20" fill="#848484" fill-opacity="0.2"/>
<g id="Header">
<g id="Header Text">
<g id="Ellipse 3075" filter="url(#filter1_f_867_5)">
<circle cx="23" cy="23.5" r="5" fill="#0077FF"/>
</g>
<path id="Frontend Acquisition (ROAS)_2" d="M44 17.832V19.64H39.344V22.504H42.912V24.28H39.344V29H37.104V17.832H44ZM47.5084 21.512C47.7964 21.0427 48.1697 20.6747 48.6284 20.408C49.0977 20.1413 49.631 20.008 50.2284 20.008V22.36H49.6364C48.9324 22.36 48.399 22.5253 48.0364 22.856C47.6844 23.1867 47.5084 23.7627 47.5084 24.584V29H45.2684V20.136H47.5084V21.512ZM55.3531 29.144C54.4998 29.144 53.7318 28.9573 53.0491 28.584C52.3665 28.2 51.8278 27.6613 51.4331 26.968C51.0491 26.2747 50.8571 25.4747 50.8571 24.568C50.8571 23.6613 51.0545 22.8613 51.4491 22.168C51.8545 21.4747 52.4038 20.9413 53.0971 20.568C53.7905 20.184 54.5638 19.992 55.4171 19.992C56.2705 19.992 57.0438 20.184 57.7371 20.568C58.4305 20.9413 58.9745 21.4747 59.3691 22.168C59.7745 22.8613 59.9771 23.6613 59.9771 24.568C59.9771 25.4747 59.7691 26.2747 59.3531 26.968C58.9478 27.6613 58.3931 28.2 57.6891 28.584C56.9958 28.9573 56.2171 29.144 55.3531 29.144ZM55.3531 27.192C55.7585 27.192 56.1371 27.096 56.4891 26.904C56.8518 26.7013 57.1398 26.4027 57.3531 26.008C57.5665 25.6133 57.6731 25.1333 57.6731 24.568C57.6731 23.7253 57.4491 23.08 57.0011 22.632C56.5638 22.1733 56.0251 21.944 55.3851 21.944C54.7451 21.944 54.2065 22.1733 53.7691 22.632C53.3425 23.08 53.1291 23.7253 53.1291 24.568C53.1291 25.4107 53.3371 26.0613 53.7531 26.52C54.1798 26.968 54.7131 27.192 55.3531 27.192ZM66.2123 20.008C67.2683 20.008 68.1216 20.344 68.7723 21.016C69.4229 21.6773 69.7483 22.6053 69.7483 23.8V29H67.5083V24.104C67.5083 23.4 67.3323 22.8613 66.9803 22.488C66.6283 22.104 66.1483 21.912 65.5403 21.912C64.9216 21.912 64.4309 22.104 64.0683 22.488C63.7163 22.8613 63.5403 23.4 63.5403 24.104V29H61.3003V20.136H63.5403V21.24C63.8389 20.856 64.2176 20.5573 64.6763 20.344C65.1456 20.12 65.6576 20.008 66.2123 20.008ZM74.1664 21.976V26.264C74.1664 26.5627 74.2357 26.7813 74.3744 26.92C74.5237 27.048 74.769 27.112 75.1104 27.112H76.1504V29H74.7424C72.8544 29 71.9104 28.0827 71.9104 26.248V21.976H70.8544V20.136H71.9104V17.944H74.1664V20.136H76.1504V21.976H74.1664ZM85.6815 24.376C85.6815 24.696 85.6602 24.984 85.6175 25.24H79.1375C79.1908 25.88 79.4148 26.3813 79.8095 26.744C80.2042 27.1067 80.6895 27.288 81.2655 27.288C82.0975 27.288 82.6895 26.9307 83.0415 26.216H85.4575C85.2015 27.0693 84.7108 27.7733 83.9855 28.328C83.2602 28.872 82.3695 29.144 81.3135 29.144C80.4602 29.144 79.6922 28.9573 79.0095 28.584C78.3375 28.2 77.8095 27.6613 77.4255 26.968C77.0522 26.2747 76.8655 25.4747 76.8655 24.568C76.8655 23.6507 77.0522 22.8453 77.4255 22.152C77.7988 21.4587 78.3215 20.9253 78.9935 20.552C79.6655 20.1787 80.4388 19.992 81.3135 19.992C82.1562 19.992 82.9082 20.1733 83.5695 20.536C84.2415 20.8987 84.7588 21.416 85.1215 22.088C85.4948 22.7493 85.6815 23.512 85.6815 24.376ZM83.3615 23.736C83.3508 23.16 83.1428 22.7013 82.7375 22.36C82.3322 22.008 81.8362 21.832 81.2495 21.832C80.6948 21.832 80.2255 22.0027 79.8415 22.344C79.4682 22.6747 79.2388 23.1387 79.1535 23.736H83.3615ZM91.9085 20.008C92.9645 20.008 93.8178 20.344 94.4685 21.016C95.1192 21.6773 95.4445 22.6053 95.4445 23.8V29H93.2045V24.104C93.2045 23.4 93.0285 22.8613 92.6765 22.488C92.3245 22.104 91.8445 21.912 91.2365 21.912C90.6178 21.912 90.1272 22.104 89.7645 22.488C89.4125 22.8613 89.2365 23.4 89.2365 24.104V29H86.9965V20.136H89.2365V21.24C89.5352 20.856 89.9138 20.5573 90.3725 20.344C90.8418 20.12 91.3538 20.008 91.9085 20.008ZM96.6786 24.536C96.6786 23.64 96.8546 22.8453 97.2066 22.152C97.5693 21.4587 98.06 20.9253 98.6786 20.552C99.2973 20.1787 99.9853 19.992 100.743 19.992C101.319 19.992 101.868 20.12 102.391 20.376C102.913 20.6213 103.329 20.952 103.639 21.368V17.16H105.911V29H103.639V27.688C103.361 28.1253 102.972 28.4773 102.471 28.744C101.969 29.0107 101.388 29.144 100.727 29.144C99.98 29.144 99.2973 28.952 98.6786 28.568C98.06 28.184 97.5693 27.6453 97.2066 26.952C96.8546 26.248 96.6786 25.4427 96.6786 24.536ZM103.655 24.568C103.655 24.024 103.548 23.56 103.335 23.176C103.121 22.7813 102.833 22.4827 102.471 22.28C102.108 22.0667 101.719 21.96 101.303 21.96C100.887 21.96 100.503 22.0613 100.151 22.264C99.7986 22.4667 99.5106 22.7653 99.2866 23.16C99.0733 23.544 98.9666 24.0027 98.9666 24.536C98.9666 25.0693 99.0733 25.5387 99.2866 25.944C99.5106 26.3387 99.7986 26.6427 100.151 26.856C100.513 27.0693 100.897 27.176 101.303 27.176C101.719 27.176 102.108 27.0747 102.471 26.872C102.833 26.6587 103.121 26.36 103.335 25.976C103.548 25.5813 103.655 25.112 103.655 24.568ZM118.119 26.872H113.671L112.935 29H110.583L114.599 17.816H117.207L121.223 29H118.855L118.119 26.872ZM117.511 25.08L115.895 20.408L114.279 25.08H117.511ZM121.828 24.568C121.828 23.6507 122.015 22.8507 122.388 22.168C122.761 21.4747 123.279 20.9413 123.94 20.568C124.601 20.184 125.359 19.992 126.212 19.992C127.311 19.992 128.217 20.2693 128.932 20.824C129.657 21.368 130.143 22.136 130.388 23.128H127.972C127.844 22.744 127.625 22.4453 127.316 22.232C127.017 22.008 126.644 21.896 126.196 21.896C125.556 21.896 125.049 22.1307 124.676 22.6C124.303 23.0587 124.116 23.7147 124.116 24.568C124.116 25.4107 124.303 26.0667 124.676 26.536C125.049 26.9947 125.556 27.224 126.196 27.224C127.103 27.224 127.695 26.8187 127.972 26.008H130.388C130.143 26.968 129.657 27.7307 128.932 28.296C128.207 28.8613 127.3 29.144 126.212 29.144C125.359 29.144 124.601 28.9573 123.94 28.584C123.279 28.2 122.761 27.6667 122.388 26.984C122.015 26.2907 121.828 25.4853 121.828 24.568ZM131.133 24.552C131.133 23.6667 131.314 22.8827 131.677 22.2C132.05 21.5067 132.552 20.968 133.181 20.584C133.81 20.2 134.504 20.008 135.261 20.008C135.89 20.008 136.445 20.1307 136.925 20.376C137.416 20.6107 137.81 20.9147 138.109 21.288V20.136H140.365V33.224H138.109V27.784C137.81 28.168 137.41 28.488 136.909 28.744C136.408 29 135.842 29.128 135.213 29.128C134.466 29.128 133.778 28.936 133.149 28.552C132.53 28.1573 132.04 27.6133 131.677 26.92C131.314 26.2267 131.133 25.4373 131.133 24.552ZM138.109 24.568C138.109 24.024 137.997 23.5547 137.773 23.16C137.549 22.7653 137.256 22.4667 136.893 22.264C136.541 22.0613 136.162 21.96 135.757 21.96C135.362 21.96 134.984 22.0613 134.621 22.264C134.269 22.4667 133.981 22.7653 133.757 23.16C133.533 23.544 133.421 24.008 133.421 24.552C133.421 25.096 133.533 25.5707 133.757 25.976C133.981 26.3707 134.269 26.6693 134.621 26.872C134.984 27.0747 135.362 27.176 135.757 27.176C136.162 27.176 136.541 27.0747 136.893 26.872C137.256 26.6693 137.549 26.3707 137.773 25.976C137.997 25.5813 138.109 25.112 138.109 24.568ZM150.601 20.136V29H148.345V27.88C148.057 28.264 147.678 28.568 147.209 28.792C146.75 29.0053 146.249 29.112 145.705 29.112C145.011 29.112 144.398 28.968 143.865 28.68C143.331 28.3813 142.91 27.9493 142.601 27.384C142.302 26.808 142.153 26.1253 142.153 25.336V20.136H144.393V25.016C144.393 25.72 144.569 26.264 144.921 26.648C145.273 27.0213 145.753 27.208 146.361 27.208C146.979 27.208 147.465 27.0213 147.817 26.648C148.169 26.264 148.345 25.72 148.345 25.016V20.136H150.601ZM153.627 19.08C153.232 19.08 152.902 18.9573 152.635 18.712C152.379 18.456 152.251 18.1413 152.251 17.768C152.251 17.3947 152.379 17.0853 152.635 16.84C152.902 16.584 153.232 16.456 153.627 16.456C154.022 16.456 154.347 16.584 154.603 16.84C154.87 17.0853 155.003 17.3947 155.003 17.768C155.003 18.1413 154.87 18.456 154.603 18.712C154.347 18.9573 154.022 19.08 153.627 19.08ZM154.731 20.136V29H152.491V20.136H154.731ZM160.016 29.144C159.291 29.144 158.64 29.016 158.064 28.76C157.488 28.4933 157.029 28.136 156.688 27.688C156.357 27.24 156.176 26.744 156.144 26.2H158.4C158.443 26.5413 158.608 26.824 158.896 27.048C159.195 27.272 159.563 27.384 160 27.384C160.427 27.384 160.757 27.2987 160.992 27.128C161.237 26.9573 161.36 26.7387 161.36 26.472C161.36 26.184 161.211 25.9707 160.912 25.832C160.624 25.6827 160.16 25.5227 159.52 25.352C158.859 25.192 158.315 25.0267 157.888 24.856C157.472 24.6853 157.109 24.424 156.8 24.072C156.501 23.72 156.352 23.2453 156.352 22.648C156.352 22.1573 156.491 21.7093 156.768 21.304C157.056 20.8987 157.461 20.5787 157.984 20.344C158.517 20.1093 159.141 19.992 159.856 19.992C160.912 19.992 161.755 20.2587 162.384 20.792C163.013 21.3147 163.36 22.024 163.424 22.92H161.28C161.248 22.568 161.099 22.2907 160.832 22.088C160.576 21.8747 160.229 21.768 159.792 21.768C159.387 21.768 159.072 21.8427 158.848 21.992C158.635 22.1413 158.528 22.3493 158.528 22.616C158.528 22.9147 158.677 23.144 158.976 23.304C159.275 23.4533 159.739 23.608 160.368 23.768C161.008 23.928 161.536 24.0933 161.952 24.264C162.368 24.4347 162.725 24.7013 163.024 25.064C163.333 25.416 163.493 25.8853 163.504 26.472C163.504 26.984 163.36 27.4427 163.072 27.848C162.795 28.2533 162.389 28.5733 161.856 28.808C161.333 29.032 160.72 29.144 160.016 29.144ZM166.159 19.08C165.764 19.08 165.433 18.9573 165.167 18.712C164.911 18.456 164.783 18.1413 164.783 17.768C164.783 17.3947 164.911 17.0853 165.167 16.84C165.433 16.584 165.764 16.456 166.159 16.456C166.553 16.456 166.879 16.584 167.135 16.84C167.401 17.0853 167.535 17.3947 167.535 17.768C167.535 18.1413 167.401 18.456 167.135 18.712C166.879 18.9573 166.553 19.08 166.159 19.08ZM167.263 20.136V29H165.023V20.136H167.263ZM171.764 21.976V26.264C171.764 26.5627 171.833 26.7813 171.972 26.92C172.121 27.048 172.367 27.112 172.708 27.112H173.748V29H172.34C170.452 29 169.508 28.0827 169.508 26.248V21.976H168.452V20.136H169.508V17.944H171.764V20.136H173.748V21.976H171.764ZM176.175 19.08C175.78 19.08 175.45 18.9573 175.183 18.712C174.927 18.456 174.799 18.1413 174.799 17.768C174.799 17.3947 174.927 17.0853 175.183 16.84C175.45 16.584 175.78 16.456 176.175 16.456C176.57 16.456 176.895 16.584 177.151 16.84C177.418 17.0853 177.551 17.3947 177.551 17.768C177.551 18.1413 177.418 18.456 177.151 18.712C176.895 18.9573 176.57 19.08 176.175 19.08ZM177.279 20.136V29H175.039V20.136H177.279ZM183.108 29.144C182.255 29.144 181.487 28.9573 180.804 28.584C180.121 28.2 179.583 27.6613 179.188 26.968C178.804 26.2747 178.612 25.4747 178.612 24.568C178.612 23.6613 178.809 22.8613 179.204 22.168C179.609 21.4747 180.159 20.9413 180.852 20.568C181.545 20.184 182.319 19.992 183.172 19.992C184.025 19.992 184.799 20.184 185.492 20.568C186.185 20.9413 186.729 21.4747 187.124 22.168C187.529 22.8613 187.732 23.6613 187.732 24.568C187.732 25.4747 187.524 26.2747 187.108 26.968C186.703 27.6613 186.148 28.2 185.444 28.584C184.751 28.9573 183.972 29.144 183.108 29.144ZM183.108 27.192C183.513 27.192 183.892 27.096 184.244 26.904C184.607 26.7013 184.895 26.4027 185.108 26.008C185.321 25.6133 185.428 25.1333 185.428 24.568C185.428 23.7253 185.204 23.08 184.756 22.632C184.319 22.1733 183.78 21.944 183.14 21.944C182.5 21.944 181.961 22.1733 181.524 22.632C181.097 23.08 180.884 23.7253 180.884 24.568C180.884 25.4107 181.092 26.0613 181.508 26.52C181.935 26.968 182.468 27.192 183.108 27.192ZM193.967 20.008C195.023 20.008 195.877 20.344 196.527 21.016C197.178 21.6773 197.503 22.6053 197.503 23.8V29H195.263V24.104C195.263 23.4 195.087 22.8613 194.735 22.488C194.383 22.104 193.903 21.912 193.295 21.912C192.677 21.912 192.186 22.104 191.823 22.488C191.471 22.8613 191.295 23.4 191.295 24.104V29H189.055V20.136H191.295V21.24C191.594 20.856 191.973 20.5573 192.431 20.344C192.901 20.12 193.413 20.008 193.967 20.008ZM206.678 32.152C205.643 31.1493 204.838 29.8693 204.262 28.312C203.697 26.7547 203.414 25.0853 203.414 23.304C203.414 21.48 203.713 19.768 204.31 18.168C204.907 16.5573 205.777 15.24 206.918 14.216H209.174V14.424C208.001 15.544 207.105 16.888 206.486 18.456C205.878 20.024 205.574 21.64 205.574 23.304C205.574 24.9253 205.862 26.4933 206.438 28.008C207.025 29.512 207.857 30.8187 208.934 31.928V32.152H206.678ZM216.012 29L213.548 24.648H212.492V29H210.252V17.832H214.444C215.308 17.832 216.044 17.9867 216.652 18.296C217.26 18.5947 217.713 19.0053 218.012 19.528C218.321 20.04 218.476 20.616 218.476 21.256C218.476 21.992 218.262 22.6587 217.836 23.256C217.409 23.8427 216.774 24.248 215.932 24.472L218.604 29H216.012ZM212.492 22.968H214.364C214.972 22.968 215.425 22.824 215.724 22.536C216.022 22.2373 216.172 21.8267 216.172 21.304C216.172 20.792 216.022 20.3973 215.724 20.12C215.425 19.832 214.972 19.688 214.364 19.688H212.492V22.968ZM225.365 29.112C224.32 29.112 223.36 28.8667 222.485 28.376C221.611 27.8853 220.917 27.208 220.405 26.344C219.893 25.4693 219.637 24.4827 219.637 23.384C219.637 22.296 219.893 21.32 220.405 20.456C220.917 19.5813 221.611 18.8987 222.485 18.408C223.36 17.9173 224.32 17.672 225.365 17.672C226.421 17.672 227.381 17.9173 228.245 18.408C229.12 18.8987 229.808 19.5813 230.309 20.456C230.822 21.32 231.078 22.296 231.078 23.384C231.078 24.4827 230.822 25.4693 230.309 26.344C229.808 27.208 229.12 27.8853 228.245 28.376C227.371 28.8667 226.411 29.112 225.365 29.112ZM225.365 27.112C226.037 27.112 226.629 26.9627 227.141 26.664C227.653 26.3547 228.054 25.9173 228.342 25.352C228.629 24.7867 228.773 24.1307 228.773 23.384C228.773 22.6373 228.629 21.9867 228.342 21.432C228.054 20.8667 227.653 20.4347 227.141 20.136C226.629 19.8373 226.037 19.688 225.365 19.688C224.693 19.688 224.096 19.8373 223.573 20.136C223.061 20.4347 222.661 20.8667 222.373 21.432C222.085 21.9867 221.941 22.6373 221.941 23.384C221.941 24.1307 222.085 24.7867 222.373 25.352C222.661 25.9173 223.061 26.3547 223.573 26.664C224.096 26.9627 224.693 27.112 225.365 27.112ZM239.272 26.872H234.824L234.088 29H231.736L235.752 17.816H238.36L242.376 29H240.008L239.272 26.872ZM238.664 25.08L237.048 20.408L235.432 25.08H238.664ZM247.413 29.112C246.634 29.112 245.93 28.9787 245.301 28.712C244.682 28.4453 244.192 28.0613 243.829 27.56C243.466 27.0587 243.28 26.4667 243.269 25.784H245.669C245.701 26.2427 245.861 26.6053 246.149 26.872C246.448 27.1387 246.853 27.272 247.365 27.272C247.888 27.272 248.298 27.1493 248.597 26.904C248.896 26.648 249.045 26.3173 249.045 25.912C249.045 25.5813 248.944 25.3093 248.741 25.096C248.538 24.8827 248.282 24.7173 247.973 24.6C247.674 24.472 247.258 24.3333 246.725 24.184C246 23.9707 245.408 23.7627 244.949 23.56C244.501 23.3467 244.112 23.032 243.781 22.616C243.461 22.1893 243.301 21.624 243.301 20.92C243.301 20.2587 243.466 19.6827 243.797 19.192C244.128 18.7013 244.592 18.328 245.189 18.072C245.786 17.8053 246.469 17.672 247.237 17.672C248.389 17.672 249.322 17.9547 250.037 18.52C250.762 19.0747 251.162 19.8533 251.237 20.856H248.773C248.752 20.472 248.586 20.1573 248.277 19.912C247.978 19.656 247.578 19.528 247.077 19.528C246.64 19.528 246.288 19.64 246.021 19.864C245.765 20.088 245.637 20.4133 245.637 20.84C245.637 21.1387 245.733 21.3893 245.925 21.592C246.128 21.784 246.373 21.944 246.661 22.072C246.96 22.1893 247.376 22.328 247.909 22.488C248.634 22.7013 249.226 22.9147 249.685 23.128C250.144 23.3413 250.538 23.6613 250.869 24.088C251.2 24.5147 251.365 25.0747 251.365 25.768C251.365 26.3653 251.21 26.92 250.901 27.432C250.592 27.944 250.138 28.3547 249.541 28.664C248.944 28.9627 248.234 29.112 247.413 29.112ZM252.411 32.152V31.928C253.488 30.8187 254.315 29.512 254.891 28.008C255.478 26.4933 255.771 24.9253 255.771 23.304C255.771 21.64 255.462 20.024 254.843 18.456C254.235 16.888 253.344 15.544 252.171 14.424V14.216H254.427C255.568 15.24 256.438 16.5573 257.035 18.168C257.632 19.768 257.931 21.48 257.931 23.304C257.931 25.0853 257.643 26.7547 257.067 28.312C256.502 29.8693 255.702 31.1493 254.667 32.152H252.411Z" fill="white"/>
</g>
<g id="Group 8">
<path id="Vector" d="M299.556 23.4999C299.556 24.4818 298.76 25.2777 297.778 25.2777C296.796 25.2777 296 24.4818 296 23.4999C296 22.5181 296.796 21.7222 297.778 21.7222C298.76 21.7222 299.556 22.5181 299.556 23.4999Z" fill="white"/>
<path id="Vector_2" d="M305.778 23.5001C305.778 24.4819 304.982 25.2778 304 25.2778C303.019 25.2778 302.223 24.4819 302.223 23.5001C302.223 22.5182 303.019 21.7223 304 21.7223C304.982 21.7223 305.778 22.5182 305.778 23.5001Z" fill="white"/>
<path id="Vector_3" d="M312 23.5001C312 24.4819 311.204 25.2778 310.222 25.2778C309.24 25.2778 308.445 24.4819 308.445 23.5001C308.445 22.5182 309.24 21.7223 310.222 21.7223C311.204 21.7223 312 22.5182 312 23.5001Z" fill="white"/>
</g>
</g>
<g id="Graphics">
<g clip-path="url(#clip0_867_5)">
<path d="M6 87C6 68.1438 6 58.7157 11.8579 52.8579C17.7157 47 27.1438 47 46 47H295C313.856 47 323.284 47 329.142 52.8579C335 58.7157 335 68.1438 335 87V222C335 240.856 335 250.284 329.142 256.142C323.284 262 313.856 262 295 262H46C27.1438 262 17.7157 262 11.8579 256.142C6 250.284 6 240.856 6 222V87Z" fill="#252525"/>
<g id="Rectangle 40" filter="url(#filter2_fn_867_5)">
<rect x="6" y="47" width="329" height="215" rx="20" fill="url(#paint0_radial_867_5)"/>
</g>
<g id="Ellipse 3077" filter="url(#filter3_fn_867_5)">
<ellipse cx="193.891" cy="59.0986" rx="103.472" ry="41.7532" transform="rotate(-34.5758 193.891 59.0986)" fill="url(#paint1_radial_867_5)"/>
</g>
<g id="Group 14">
<path id="2.5x" d="M222.904 205.56C225.976 202.904 228.392 200.728 230.152 199.032C231.944 197.304 233.432 195.512 234.616 193.656C235.8 191.8 236.392 189.944 236.392 188.088C236.392 186.168 235.928 184.664 235 183.576C234.104 182.488 232.68 181.944 230.728 181.944C228.84 181.944 227.368 182.552 226.312 183.768C225.288 184.952 224.744 186.552 224.68 188.568H219.4C219.496 184.92 220.584 182.136 222.664 180.216C224.776 178.264 227.448 177.288 230.68 177.288C234.168 177.288 236.888 178.248 238.84 180.168C240.824 182.088 241.816 184.648 241.816 187.848C241.816 190.152 241.224 192.376 240.04 194.52C238.888 196.632 237.496 198.536 235.864 200.232C234.264 201.896 232.216 203.832 229.72 206.04L227.56 207.96H242.776V212.52H219.448V208.536L222.904 205.56ZM249.071 213.336C248.079 213.336 247.247 213 246.575 212.328C245.903 211.656 245.567 210.824 245.567 209.832C245.567 208.84 245.903 208.008 246.575 207.336C247.247 206.664 248.079 206.328 249.071 206.328C250.031 206.328 250.847 206.664 251.519 207.336C252.191 208.008 252.527 208.84 252.527 209.832C252.527 210.824 252.191 211.656 251.519 212.328C250.847 213 250.031 213.336 249.071 213.336ZM276.441 182.712H260.361V192.264C261.033 191.368 262.025 190.616 263.337 190.008C264.681 189.4 266.105 189.096 267.609 189.096C270.297 189.096 272.473 189.672 274.137 190.824C275.833 191.976 277.033 193.432 277.737 195.192C278.473 196.952 278.841 198.808 278.841 200.76C278.841 203.128 278.377 205.24 277.449 207.096C276.553 208.92 275.193 210.36 273.369 211.416C271.577 212.472 269.369 213 266.745 213C263.257 213 260.457 212.136 258.345 210.408C256.233 208.68 254.969 206.392 254.553 203.544H259.881C260.233 205.048 261.017 206.248 262.233 207.144C263.449 208.008 264.969 208.44 266.793 208.44C269.065 208.44 270.761 207.752 271.881 206.376C273.033 205 273.609 203.176 273.609 200.904C273.609 198.6 273.033 196.84 271.881 195.624C270.729 194.376 269.033 193.752 266.793 193.752C265.225 193.752 263.897 194.152 262.809 194.952C261.753 195.72 260.985 196.776 260.505 198.12H255.321V177.912H276.441V182.712ZM293.226 199.608L301.77 213H295.578L289.866 204.024L284.49 213H278.778L287.322 199.992L278.778 186.552H284.97L290.682 195.528L296.058 186.552H301.77L293.226 199.608Z" fill="url(#paint2_linear_867_5)"/>
<path id="ROAS on initial purchases" d="M152.148 229L150.3 225.736H149.508V229H147.828V220.624H150.972C151.62 220.624 152.172 220.74 152.628 220.972C153.084 221.196 153.424 221.504 153.648 221.896C153.88 222.28 153.996 222.712 153.996 223.192C153.996 223.744 153.836 224.244 153.516 224.692C153.196 225.132 152.72 225.436 152.088 225.604L154.092 229H152.148ZM149.508 224.476H150.912C151.368 224.476 151.708 224.368 151.932 224.152C152.156 223.928 152.268 223.62 152.268 223.228C152.268 222.844 152.156 222.548 151.932 222.34C151.708 222.124 151.368 222.016 150.912 222.016H149.508V224.476ZM159.404 229.084C158.62 229.084 157.9 228.9 157.244 228.532C156.588 228.164 156.068 227.656 155.684 227.008C155.3 226.352 155.108 225.612 155.108 224.788C155.108 223.972 155.3 223.24 155.684 222.592C156.068 221.936 156.588 221.424 157.244 221.056C157.9 220.688 158.62 220.504 159.404 220.504C160.196 220.504 160.916 220.688 161.564 221.056C162.22 221.424 162.736 221.936 163.112 222.592C163.496 223.24 163.688 223.972 163.688 224.788C163.688 225.612 163.496 226.352 163.112 227.008C162.736 227.656 162.22 228.164 161.564 228.532C160.908 228.9 160.188 229.084 159.404 229.084ZM159.404 227.584C159.908 227.584 160.352 227.472 160.736 227.248C161.12 227.016 161.42 226.688 161.636 226.264C161.852 225.84 161.96 225.348 161.96 224.788C161.96 224.228 161.852 223.74 161.636 223.324C161.42 222.9 161.12 222.576 160.736 222.352C160.352 222.128 159.908 222.016 159.404 222.016C158.9 222.016 158.452 222.128 158.06 222.352C157.676 222.576 157.376 222.9 157.16 223.324C156.944 223.74 156.836 224.228 156.836 224.788C156.836 225.348 156.944 225.84 157.16 226.264C157.376 226.688 157.676 227.016 158.06 227.248C158.452 227.472 158.9 227.584 159.404 227.584ZM170.073 227.404H166.737L166.185 229H164.421L167.433 220.612H169.389L172.401 229H170.625L170.073 227.404ZM169.617 226.06L168.405 222.556L167.193 226.06H169.617ZM176.419 229.084C175.835 229.084 175.307 228.984 174.835 228.784C174.371 228.584 174.003 228.296 173.731 227.92C173.459 227.544 173.319 227.1 173.311 226.588H175.111C175.135 226.932 175.255 227.204 175.471 227.404C175.695 227.604 175.999 227.704 176.383 227.704C176.775 227.704 177.083 227.612 177.307 227.428C177.531 227.236 177.643 226.988 177.643 226.684C177.643 226.436 177.567 226.232 177.415 226.072C177.263 225.912 177.071 225.788 176.839 225.7C176.615 225.604 176.303 225.5 175.903 225.388C175.359 225.228 174.915 225.072 174.571 224.92C174.235 224.76 173.943 224.524 173.695 224.212C173.455 223.892 173.335 223.468 173.335 222.94C173.335 222.444 173.459 222.012 173.707 221.644C173.955 221.276 174.303 220.996 174.751 220.804C175.199 220.604 175.711 220.504 176.287 220.504C177.151 220.504 177.851 220.716 178.387 221.14C178.931 221.556 179.231 222.14 179.287 222.892H177.439C177.423 222.604 177.299 222.368 177.067 222.184C176.843 221.992 176.543 221.896 176.167 221.896C175.839 221.896 175.575 221.98 175.375 222.148C175.183 222.316 175.087 222.56 175.087 222.88C175.087 223.104 175.159 223.292 175.303 223.444C175.455 223.588 175.639 223.708 175.855 223.804C176.079 223.892 176.391 223.996 176.791 224.116C177.335 224.276 177.779 224.436 178.123 224.596C178.467 224.756 178.763 224.996 179.011 225.316C179.259 225.636 179.383 226.056 179.383 226.576C179.383 227.024 179.267 227.44 179.035 227.824C178.803 228.208 178.463 228.516 178.015 228.748C177.567 228.972 177.035 229.084 176.419 229.084ZM186.651 229.108C186.011 229.108 185.435 228.968 184.923 228.688C184.411 228.4 184.007 227.996 183.711 227.476C183.423 226.956 183.279 226.356 183.279 225.676C183.279 224.996 183.427 224.396 183.723 223.876C184.027 223.356 184.439 222.956 184.959 222.676C185.479 222.388 186.059 222.244 186.699 222.244C187.339 222.244 187.919 222.388 188.439 222.676C188.959 222.956 189.367 223.356 189.663 223.876C189.967 224.396 190.119 224.996 190.119 225.676C190.119 226.356 189.963 226.956 189.651 227.476C189.347 227.996 188.931 228.4 188.403 228.688C187.883 228.968 187.299 229.108 186.651 229.108ZM186.651 227.644C186.955 227.644 187.239 227.572 187.503 227.428C187.775 227.276 187.991 227.052 188.151 226.756C188.311 226.46 188.391 226.1 188.391 225.676C188.391 225.044 188.223 224.56 187.887 224.224C187.559 223.88 187.155 223.708 186.675 223.708C186.195 223.708 185.791 223.88 185.463 224.224C185.143 224.56 184.983 225.044 184.983 225.676C184.983 226.308 185.139 226.796 185.451 227.14C185.771 227.476 186.171 227.644 186.651 227.644ZM195.035 222.256C195.827 222.256 196.467 222.508 196.955 223.012C197.443 223.508 197.687 224.204 197.687 225.1V229H196.007V225.328C196.007 224.8 195.875 224.396 195.611 224.116C195.347 223.828 194.987 223.684 194.531 223.684C194.067 223.684 193.699 223.828 193.427 224.116C193.163 224.396 193.031 224.8 193.031 225.328V229H191.351V222.352H193.031V223.18C193.255 222.892 193.539 222.668 193.883 222.508C194.235 222.34 194.619 222.256 195.035 222.256ZM202.996 221.56C202.7 221.56 202.452 221.468 202.252 221.284C202.06 221.092 201.964 220.856 201.964 220.576C201.964 220.296 202.06 220.064 202.252 219.88C202.452 219.688 202.7 219.592 202.996 219.592C203.292 219.592 203.536 219.688 203.728 219.88C203.928 220.064 204.028 220.296 204.028 220.576C204.028 220.856 203.928 221.092 203.728 221.284C203.536 221.468 203.292 221.56 202.996 221.56ZM203.824 222.352V229H202.144V222.352H203.824ZM209.168 222.256C209.96 222.256 210.6 222.508 211.088 223.012C211.576 223.508 211.82 224.204 211.82 225.1V229H210.14V225.328C210.14 224.8 210.008 224.396 209.744 224.116C209.48 223.828 209.12 223.684 208.664 223.684C208.2 223.684 207.832 223.828 207.56 224.116C207.296 224.396 207.164 224.8 207.164 225.328V229H205.484V222.352H207.164V223.18C207.388 222.892 207.672 222.668 208.016 222.508C208.368 222.34 208.752 222.256 209.168 222.256ZM214.27 221.56C213.974 221.56 213.726 221.468 213.526 221.284C213.334 221.092 213.238 220.856 213.238 220.576C213.238 220.296 213.334 220.064 213.526 219.88C213.726 219.688 213.974 219.592 214.27 219.592C214.566 219.592 214.81 219.688 215.002 219.88C215.202 220.064 215.302 220.296 215.302 220.576C215.302 220.856 215.202 221.092 215.002 221.284C214.81 221.468 214.566 221.56 214.27 221.56ZM215.098 222.352V229H213.418V222.352H215.098ZM218.714 223.732V226.948C218.714 227.172 218.766 227.336 218.87 227.44C218.982 227.536 219.166 227.584 219.422 227.584H220.202V229H219.146C217.73 229 217.022 228.312 217.022 226.936V223.732H216.23V222.352H217.022V220.708H218.714V222.352H220.202V223.732H218.714ZM222.262 221.56C221.966 221.56 221.718 221.468 221.518 221.284C221.326 221.092 221.23 220.856 221.23 220.576C221.23 220.296 221.326 220.064 221.518 219.88C221.718 219.688 221.966 219.592 222.262 219.592C222.558 219.592 222.802 219.688 222.994 219.88C223.194 220.064 223.294 220.296 223.294 220.576C223.294 220.856 223.194 221.092 222.994 221.284C222.802 221.468 222.558 221.56 222.262 221.56ZM223.09 222.352V229H221.41V222.352H223.09ZM224.318 225.652C224.318 224.98 224.45 224.384 224.714 223.864C224.986 223.344 225.35 222.944 225.806 222.664C226.27 222.384 226.786 222.244 227.354 222.244C227.85 222.244 228.282 222.344 228.65 222.544C229.026 222.744 229.326 222.996 229.55 223.3V222.352H231.242V229H229.55V228.028C229.334 228.34 229.034 228.6 228.65 228.808C228.274 229.008 227.838 229.108 227.342 229.108C226.782 229.108 226.27 228.964 225.806 228.676C225.35 228.388 224.986 227.984 224.714 227.464C224.45 226.936 224.318 226.332 224.318 225.652ZM229.55 225.676C229.55 225.268 229.47 224.92 229.31 224.632C229.15 224.336 228.934 224.112 228.662 223.96C228.39 223.8 228.098 223.72 227.786 223.72C227.474 223.72 227.186 223.796 226.922 223.948C226.658 224.1 226.442 224.324 226.274 224.62C226.114 224.908 226.034 225.252 226.034 225.652C226.034 226.052 226.114 226.404 226.274 226.708C226.442 227.004 226.658 227.232 226.922 227.392C227.194 227.552 227.482 227.632 227.786 227.632C228.098 227.632 228.39 227.556 228.662 227.404C228.934 227.244 229.15 227.02 229.31 226.732C229.47 226.436 229.55 226.084 229.55 225.676ZM234.563 220.12V229H232.883V220.12H234.563ZM240.762 223.312C240.978 223.008 241.274 222.756 241.65 222.556C242.034 222.348 242.47 222.244 242.958 222.244C243.526 222.244 244.038 222.384 244.494 222.664C244.958 222.944 245.322 223.344 245.586 223.864C245.858 224.376 245.994 224.972 245.994 225.652C245.994 226.332 245.858 226.936 245.586 227.464C245.322 227.984 244.958 228.388 244.494 228.676C244.038 228.964 243.526 229.108 242.958 229.108C242.47 229.108 242.038 229.008 241.662 228.808C241.294 228.608 240.994 228.356 240.762 228.052V232.168H239.082V222.352H240.762V223.312ZM244.278 225.652C244.278 225.252 244.194 224.908 244.026 224.62C243.866 224.324 243.65 224.1 243.378 223.948C243.114 223.796 242.826 223.72 242.514 223.72C242.21 223.72 241.922 223.8 241.65 223.96C241.386 224.112 241.17 224.336 241.002 224.632C240.842 224.928 240.762 225.276 240.762 225.676C240.762 226.076 240.842 226.424 241.002 226.72C241.17 227.016 241.386 227.244 241.65 227.404C241.922 227.556 242.21 227.632 242.514 227.632C242.826 227.632 243.114 227.552 243.378 227.392C243.65 227.232 243.866 227.004 244.026 226.708C244.194 226.412 244.278 226.06 244.278 225.652ZM253.491 222.352V229H251.799V228.16C251.583 228.448 251.299 228.676 250.947 228.844C250.603 229.004 250.227 229.084 249.819 229.084C249.299 229.084 248.839 228.976 248.439 228.76C248.039 228.536 247.723 228.212 247.491 227.788C247.267 227.356 247.155 226.844 247.155 226.252V222.352H248.835V226.012C248.835 226.54 248.967 226.948 249.231 227.236C249.495 227.516 249.855 227.656 250.311 227.656C250.775 227.656 251.139 227.516 251.403 227.236C251.667 226.948 251.799 226.54 251.799 226.012V222.352H253.491ZM256.828 223.384C257.044 223.032 257.324 222.756 257.668 222.556C258.02 222.356 258.42 222.256 258.868 222.256V224.02H258.424C257.896 224.02 257.496 224.144 257.224 224.392C256.96 224.64 256.828 225.072 256.828 225.688V229H255.148V222.352H256.828V223.384ZM259.568 225.676C259.568 224.988 259.708 224.388 259.988 223.876C260.268 223.356 260.656 222.956 261.152 222.676C261.648 222.388 262.216 222.244 262.856 222.244C263.68 222.244 264.36 222.452 264.896 222.868C265.44 223.276 265.804 223.852 265.988 224.596H264.176C264.08 224.308 263.916 224.084 263.684 223.924C263.46 223.756 263.18 223.672 262.844 223.672C262.364 223.672 261.984 223.848 261.704 224.2C261.424 224.544 261.284 225.036 261.284 225.676C261.284 226.308 261.424 226.8 261.704 227.152C261.984 227.496 262.364 227.668 262.844 227.668C263.524 227.668 263.968 227.364 264.176 226.756H265.988C265.804 227.476 265.44 228.048 264.896 228.472C264.352 228.896 263.672 229.108 262.856 229.108C262.216 229.108 261.648 228.968 261.152 228.688C260.656 228.4 260.268 228 259.988 227.488C259.708 226.968 259.568 226.364 259.568 225.676ZM270.963 222.256C271.467 222.256 271.915 222.368 272.307 222.592C272.699 222.808 273.003 223.132 273.219 223.564C273.443 223.988 273.555 224.5 273.555 225.1V229H271.875V225.328C271.875 224.8 271.743 224.396 271.479 224.116C271.215 223.828 270.855 223.684 270.399 223.684C269.935 223.684 269.567 223.828 269.295 224.116C269.031 224.396 268.899 224.8 268.899 225.328V229H267.219V220.12H268.899V223.18C269.115 222.892 269.403 222.668 269.763 222.508C270.123 222.34 270.523 222.256 270.963 222.256ZM274.72 225.652C274.72 224.98 274.852 224.384 275.116 223.864C275.388 223.344 275.752 222.944 276.208 222.664C276.672 222.384 277.188 222.244 277.756 222.244C278.252 222.244 278.684 222.344 279.052 222.544C279.428 222.744 279.728 222.996 279.952 223.3V222.352H281.644V229H279.952V228.028C279.736 228.34 279.436 228.6 279.052 228.808C278.676 229.008 278.24 229.108 277.744 229.108C277.184 229.108 276.672 228.964 276.208 228.676C275.752 228.388 275.388 227.984 275.116 227.464C274.852 226.936 274.72 226.332 274.72 225.652ZM279.952 225.676C279.952 225.268 279.872 224.92 279.712 224.632C279.552 224.336 279.336 224.112 279.064 223.96C278.792 223.8 278.5 223.72 278.188 223.72C277.876 223.72 277.588 223.796 277.324 223.948C277.06 224.1 276.844 224.324 276.676 224.62C276.516 224.908 276.436 225.252 276.436 225.652C276.436 226.052 276.516 226.404 276.676 226.708C276.844 227.004 277.06 227.232 277.324 227.392C277.596 227.552 277.884 227.632 278.188 227.632C278.5 227.632 278.792 227.556 279.064 227.404C279.336 227.244 279.552 227.02 279.712 226.732C279.872 226.436 279.952 226.084 279.952 225.676ZM285.829 229.108C285.285 229.108 284.797 229.012 284.365 228.82C283.933 228.62 283.589 228.352 283.333 228.016C283.085 227.68 282.949 227.308 282.925 226.9H284.617C284.649 227.156 284.773 227.368 284.989 227.536C285.213 227.704 285.489 227.788 285.817 227.788C286.137 227.788 286.385 227.724 286.561 227.596C286.745 227.468 286.837 227.304 286.837 227.104C286.837 226.888 286.725 226.728 286.501 226.624C286.285 226.512 285.937 226.392 285.457 226.264C284.961 226.144 284.553 226.02 284.233 225.892C283.921 225.764 283.649 225.568 283.417 225.304C283.193 225.04 283.081 224.684 283.081 224.236C283.081 223.868 283.185 223.532 283.393 223.228C283.609 222.924 283.913 222.684 284.305 222.508C284.705 222.332 285.173 222.244 285.709 222.244C286.501 222.244 287.133 222.444 287.605 222.844C288.077 223.236 288.337 223.768 288.385 224.44H286.777C286.753 224.176 286.641 223.968 286.441 223.816C286.249 223.656 285.989 223.576 285.661 223.576C285.357 223.576 285.121 223.632 284.953 223.744C284.793 223.856 284.713 224.012 284.713 224.212C284.713 224.436 284.825 224.608 285.049 224.728C285.273 224.84 285.621 224.956 286.093 225.076C286.573 225.196 286.969 225.32 287.281 225.448C287.593 225.576 287.861 225.776 288.085 226.048C288.317 226.312 288.437 226.664 288.445 227.104C288.445 227.488 288.337 227.832 288.121 228.136C287.913 228.44 287.609 228.68 287.209 228.856C286.817 229.024 286.357 229.108 285.829 229.108ZM296.004 225.532C296.004 225.772 295.988 225.988 295.956 226.18H291.096C291.136 226.66 291.304 227.036 291.6 227.308C291.896 227.58 292.26 227.716 292.692 227.716C293.316 227.716 293.76 227.448 294.024 226.912H295.836C295.644 227.552 295.276 228.08 294.732 228.496C294.188 228.904 293.52 229.108 292.728 229.108C292.088 229.108 291.512 228.968 291 228.688C290.496 228.4 290.1 227.996 289.812 227.476C289.532 226.956 289.392 226.356 289.392 225.676C289.392 224.988 289.532 224.384 289.812 223.864C290.092 223.344 290.484 222.944 290.988 222.664C291.492 222.384 292.072 222.244 292.728 222.244C293.36 222.244 293.924 222.38 294.42 222.652C294.924 222.924 295.312 223.312 295.584 223.816C295.864 224.312 296.004 224.884 296.004 225.532ZM294.264 225.052C294.256 224.62 294.1 224.276 293.796 224.02C293.492 223.756 293.12 223.624 292.68 223.624C292.264 223.624 291.912 223.752 291.624 224.008C291.344 224.256 291.172 224.604 291.108 225.052H294.264ZM299.774 229.108C299.23 229.108 298.742 229.012 298.31 228.82C297.878 228.62 297.534 228.352 297.278 228.016C297.03 227.68 296.894 227.308 296.87 226.9H298.562C298.594 227.156 298.718 227.368 298.934 227.536C299.158 227.704 299.434 227.788 299.762 227.788C300.082 227.788 300.33 227.724 300.506 227.596C300.69 227.468 300.782 227.304 300.782 227.104C300.782 226.888 300.67 226.728 300.446 226.624C300.23 226.512 299.882 226.392 299.402 226.264C298.906 226.144 298.498 226.02 298.178 225.892C297.866 225.764 297.594 225.568 297.362 225.304C297.138 225.04 297.026 224.684 297.026 224.236C297.026 223.868 297.13 223.532 297.338 223.228C297.554 222.924 297.858 222.684 298.25 222.508C298.65 222.332 299.118 222.244 299.654 222.244C300.446 222.244 301.078 222.444 301.55 222.844C302.022 223.236 302.282 223.768 302.33 224.44H300.722C300.698 224.176 300.586 223.968 300.386 223.816C300.194 223.656 299.934 223.576 299.606 223.576C299.302 223.576 299.066 223.632 298.898 223.744C298.738 223.856 298.658 224.012 298.658 224.212C298.658 224.436 298.77 224.608 298.994 224.728C299.218 224.84 299.566 224.956 300.038 225.076C300.518 225.196 300.914 225.32 301.226 225.448C301.538 225.576 301.806 225.776 302.03 226.048C302.262 226.312 302.382 226.664 302.39 227.104C302.39 227.488 302.282 227.832 302.066 228.136C301.858 228.44 301.554 228.68 301.154 228.856C300.762 229.024 300.302 229.108 299.774 229.108Z" fill="white" fill-opacity="0.8"/>
<path id="Union" fill-rule="evenodd" clip-rule="evenodd" d="M323 59V250H18V59H323ZM19 212V249H56V212H19ZM57 212V249H94V212H57ZM95 212V249H132V212H95ZM133 212V249H170V212H133ZM171 212V249H208V212H171ZM209 212V249H246V212H209ZM247 212V249H284V212H247ZM285 212V249H322V212H285ZM19 174V211H56V174H19ZM57 174V211H94V174H57ZM95 174V211H132V174H95ZM133 174V211H170V174H133ZM171 174V211H208V174H171ZM209 174V211H246V174H209ZM247 174V211H284V174H247ZM285 174V211H322V174H285ZM19 136V173H56V136H19ZM57 136V173H94V136H57ZM95 136V173H132V136H95ZM133 136V173H170V136H133ZM171 136V173H208V136H171ZM209 136V173H246V136H209ZM247 136V173H284V136H247ZM285 136V173H322V136H285ZM19 98V135H56V98H19ZM57 98V135H94V98H57ZM95 98V135H132V98H95ZM133 98V135H170V98H133ZM171 98V135H208V98H171ZM209 98V135H246V98H209ZM247 98V135H284V98H247ZM285 98V135H322V98H285ZM19 60V97H56V60H19ZM57 60V97H94V60H57ZM95 60V97H132V60H95ZM133 60V97H170V60H133ZM171 60V97H208V60H171ZM209 60V97H246V60H209ZM247 60V97H284V60H247ZM285 60V97H322V60H285Z" fill="url(#paint3_radial_867_5)"/>
<g id="Group 13">
<path id="Vector 372" d="M37 217.189C37 217.189 55.5033 165.762 83.5 162.407C103.5 160.01 102 177.922 123.5 185.257C175.5 203 193.439 76.6167 260.5 100.008C282.393 107.644 303 129.01 303 129.01" stroke="url(#paint4_linear_867_5)" stroke-width="3" stroke-linecap="round"/>
<circle id="Ellipse 3076" cx="246" cy="97" r="6" fill="url(#paint5_radial_867_5)"/>
</g>
</g>
</g>
<path d="M46 47.5H295C304.442 47.5 311.474 47.5008 316.879 48.2275C322.27 48.9523 325.969 50.3904 328.789 53.2109C331.61 56.0315 333.048 59.7303 333.772 65.1211C334.499 70.5263 334.5 77.5578 334.5 87V222C334.5 231.442 334.499 238.474 333.772 243.879C333.048 249.27 331.61 252.969 328.789 255.789C325.969 258.61 322.27 260.048 316.879 260.772C311.474 261.499 304.442 261.5 295 261.5H46C36.5578 261.5 29.5263 261.499 24.1211 260.772C18.7303 260.048 15.0315 258.61 12.2109 255.789C9.3904 252.969 7.95232 249.27 7.22754 243.879C6.50083 238.474 6.5 231.442 6.5 222V87C6.5 77.5578 6.50083 70.5263 7.22754 65.1211C7.95232 59.7303 9.3904 56.0315 12.2109 53.2109C15.0315 50.3904 18.7303 48.9523 24.1211 48.2275C29.5263 47.5008 36.5578 47.5 46 47.5Z" stroke="url(#paint6_linear_867_5)"/>
</g>
</g>
<g id="CAC to Margin Ratio">
<rect x="200" y="232" width="341" height="268" rx="20" fill="#848484" fill-opacity="0.2"/>
<g id="Header_2">
<g id="Header Text_2">
<g id="Ellipse 3075_2" filter="url(#filter5_f_867_5)">
<circle cx="223" cy="255.5" r="5" fill="#FE0101"/>
</g>
<path id="CAC to Margin Ratio_2" d="M236.56 255.4C236.56 254.301 236.805 253.32 237.296 252.456C237.797 251.581 238.475 250.904 239.328 250.424C240.192 249.933 241.157 249.688 242.224 249.688C243.472 249.688 244.565 250.008 245.504 250.648C246.443 251.288 247.099 252.173 247.472 253.304H244.896C244.64 252.771 244.277 252.371 243.808 252.104C243.349 251.837 242.816 251.704 242.208 251.704C241.557 251.704 240.976 251.859 240.464 252.168C239.963 252.467 239.568 252.893 239.28 253.448C239.003 254.003 238.864 254.653 238.864 255.4C238.864 256.136 239.003 256.787 239.28 257.352C239.568 257.907 239.963 258.339 240.464 258.648C240.976 258.947 241.557 259.096 242.208 259.096C242.816 259.096 243.349 258.963 243.808 258.696C244.277 258.419 244.64 258.013 244.896 257.48H247.472C247.099 258.621 246.443 259.512 245.504 260.152C244.576 260.781 243.483 261.096 242.224 261.096C241.157 261.096 240.192 260.856 239.328 260.376C238.475 259.885 237.797 259.208 237.296 258.344C236.805 257.48 236.56 256.499 236.56 255.4ZM255.913 258.872H251.465L250.729 261H248.377L252.393 249.816H255.001L259.017 261H256.649L255.913 258.872ZM255.305 257.08L253.689 252.408L252.073 257.08H255.305ZM259.654 255.4C259.654 254.301 259.9 253.32 260.39 252.456C260.892 251.581 261.569 250.904 262.422 250.424C263.286 249.933 264.252 249.688 265.318 249.688C266.566 249.688 267.66 250.008 268.598 250.648C269.537 251.288 270.193 252.173 270.566 253.304H267.99C267.734 252.771 267.372 252.371 266.902 252.104C266.444 251.837 265.91 251.704 265.302 251.704C264.652 251.704 264.07 251.859 263.558 252.168C263.057 252.467 262.662 252.893 262.374 253.448C262.097 254.003 261.958 254.653 261.958 255.4C261.958 256.136 262.097 256.787 262.374 257.352C262.662 257.907 263.057 258.339 263.558 258.648C264.07 258.947 264.652 259.096 265.302 259.096C265.91 259.096 266.444 258.963 266.902 258.696C267.372 258.419 267.734 258.013 267.99 257.48H270.566C270.193 258.621 269.537 259.512 268.598 260.152C267.67 260.781 266.577 261.096 265.318 261.096C264.252 261.096 263.286 260.856 262.422 260.376C261.569 259.885 260.892 259.208 260.39 258.344C259.9 257.48 259.654 256.499 259.654 255.4ZM278.26 253.976V258.264C278.26 258.563 278.329 258.781 278.468 258.92C278.617 259.048 278.863 259.112 279.204 259.112H280.244V261H278.836C276.948 261 276.004 260.083 276.004 258.248V253.976H274.948V252.136H276.004V249.944H278.26V252.136H280.244V253.976H278.26ZM285.471 261.144C284.618 261.144 283.85 260.957 283.167 260.584C282.485 260.2 281.946 259.661 281.551 258.968C281.167 258.275 280.975 257.475 280.975 256.568C280.975 255.661 281.173 254.861 281.567 254.168C281.973 253.475 282.522 252.941 283.215 252.568C283.909 252.184 284.682 251.992 285.535 251.992C286.389 251.992 287.162 252.184 287.855 252.568C288.549 252.941 289.093 253.475 289.487 254.168C289.893 254.861 290.095 255.661 290.095 256.568C290.095 257.475 289.887 258.275 289.471 258.968C289.066 259.661 288.511 260.2 287.807 260.584C287.114 260.957 286.335 261.144 285.471 261.144ZM285.471 259.192C285.877 259.192 286.255 259.096 286.607 258.904C286.97 258.701 287.258 258.403 287.471 258.008C287.685 257.613 287.791 257.133 287.791 256.568C287.791 255.725 287.567 255.08 287.119 254.632C286.682 254.173 286.143 253.944 285.503 253.944C284.863 253.944 284.325 254.173 283.887 254.632C283.461 255.08 283.247 255.725 283.247 256.568C283.247 257.411 283.455 258.061 283.871 258.52C284.298 258.968 284.831 259.192 285.471 259.192ZM307.087 249.832V261H304.847V253.736L301.855 261H300.159L297.151 253.736V261H294.911V249.832H297.455L301.007 258.136L304.559 249.832H307.087ZM308.406 256.536C308.406 255.64 308.582 254.845 308.934 254.152C309.296 253.459 309.782 252.925 310.39 252.552C311.008 252.179 311.696 251.992 312.454 251.992C313.115 251.992 313.691 252.125 314.182 252.392C314.683 252.659 315.083 252.995 315.382 253.4V252.136H317.638V261H315.382V259.704C315.094 260.12 314.694 260.467 314.182 260.744C313.68 261.011 313.099 261.144 312.438 261.144C311.691 261.144 311.008 260.952 310.39 260.568C309.782 260.184 309.296 259.645 308.934 258.952C308.582 258.248 308.406 257.443 308.406 256.536ZM315.382 256.568C315.382 256.024 315.275 255.56 315.062 255.176C314.848 254.781 314.56 254.483 314.198 254.28C313.835 254.067 313.446 253.96 313.03 253.96C312.614 253.96 312.23 254.061 311.878 254.264C311.526 254.467 311.238 254.765 311.014 255.16C310.8 255.544 310.694 256.003 310.694 256.536C310.694 257.069 310.8 257.539 311.014 257.944C311.238 258.339 311.526 258.643 311.878 258.856C312.24 259.069 312.624 259.176 313.03 259.176C313.446 259.176 313.835 259.075 314.198 258.872C314.56 258.659 314.848 258.36 315.062 257.976C315.275 257.581 315.382 257.112 315.382 256.568ZM321.745 253.512C322.033 253.043 322.407 252.675 322.865 252.408C323.335 252.141 323.868 252.008 324.465 252.008V254.36H323.873C323.169 254.36 322.636 254.525 322.273 254.856C321.921 255.187 321.745 255.763 321.745 256.584V261H319.505V252.136H321.745V253.512ZM329.126 251.992C329.787 251.992 330.369 252.125 330.87 252.392C331.371 252.648 331.766 252.984 332.054 253.4V252.136H334.31V261.064C334.31 261.885 334.145 262.616 333.814 263.256C333.483 263.907 332.987 264.419 332.326 264.792C331.665 265.176 330.865 265.368 329.926 265.368C328.667 265.368 327.633 265.075 326.822 264.488C326.022 263.901 325.569 263.101 325.462 262.088H327.686C327.803 262.493 328.054 262.813 328.438 263.048C328.833 263.293 329.307 263.416 329.862 263.416C330.513 263.416 331.041 263.219 331.446 262.824C331.851 262.44 332.054 261.853 332.054 261.064V259.688C331.766 260.104 331.366 260.451 330.854 260.728C330.353 261.005 329.777 261.144 329.126 261.144C328.379 261.144 327.697 260.952 327.078 260.568C326.459 260.184 325.969 259.645 325.606 258.952C325.254 258.248 325.078 257.443 325.078 256.536C325.078 255.64 325.254 254.845 325.606 254.152C325.969 253.459 326.454 252.925 327.062 252.552C327.681 252.179 328.369 251.992 329.126 251.992ZM332.054 256.568C332.054 256.024 331.947 255.56 331.734 255.176C331.521 254.781 331.233 254.483 330.87 254.28C330.507 254.067 330.118 253.96 329.702 253.96C329.286 253.96 328.902 254.061 328.55 254.264C328.198 254.467 327.91 254.765 327.686 255.16C327.473 255.544 327.366 256.003 327.366 256.536C327.366 257.069 327.473 257.539 327.686 257.944C327.91 258.339 328.198 258.643 328.55 258.856C328.913 259.069 329.297 259.176 329.702 259.176C330.118 259.176 330.507 259.075 330.87 258.872C331.233 258.659 331.521 258.36 331.734 257.976C331.947 257.581 332.054 257.112 332.054 256.568ZM337.314 251.08C336.919 251.08 336.588 250.957 336.322 250.712C336.066 250.456 335.938 250.141 335.938 249.768C335.938 249.395 336.066 249.085 336.322 248.84C336.588 248.584 336.919 248.456 337.314 248.456C337.708 248.456 338.034 248.584 338.29 248.84C338.556 249.085 338.69 249.395 338.69 249.768C338.69 250.141 338.556 250.456 338.29 250.712C338.034 250.957 337.708 251.08 337.314 251.08ZM338.418 252.136V261H336.178V252.136H338.418ZM345.223 252.008C346.279 252.008 347.132 252.344 347.783 253.016C348.434 253.677 348.759 254.605 348.759 255.8V261H346.519V256.104C346.519 255.4 346.343 254.861 345.991 254.488C345.639 254.104 345.159 253.912 344.551 253.912C343.932 253.912 343.442 254.104 343.079 254.488C342.727 254.861 342.551 255.4 342.551 256.104V261H340.311V252.136H342.551V253.24C342.85 252.856 343.228 252.557 343.687 252.344C344.156 252.12 344.668 252.008 345.223 252.008ZM359.821 261L357.357 256.648H356.301V261H354.061V249.832H358.253C359.117 249.832 359.853 249.987 360.461 250.296C361.069 250.595 361.523 251.005 361.821 251.528C362.131 252.04 362.285 252.616 362.285 253.256C362.285 253.992 362.072 254.659 361.645 255.256C361.219 255.843 360.584 256.248 359.741 256.472L362.413 261H359.821ZM356.301 254.968H358.173C358.781 254.968 359.235 254.824 359.533 254.536C359.832 254.237 359.981 253.827 359.981 253.304C359.981 252.792 359.832 252.397 359.533 252.12C359.235 251.832 358.781 251.688 358.173 251.688H356.301V254.968ZM363.415 256.536C363.415 255.64 363.591 254.845 363.943 254.152C364.306 253.459 364.791 252.925 365.399 252.552C366.018 252.179 366.706 251.992 367.463 251.992C368.125 251.992 368.701 252.125 369.191 252.392C369.693 252.659 370.093 252.995 370.391 253.4V252.136H372.647V261H370.391V259.704C370.103 260.12 369.703 260.467 369.191 260.744C368.69 261.011 368.109 261.144 367.447 261.144C366.701 261.144 366.018 260.952 365.399 260.568C364.791 260.184 364.306 259.645 363.943 258.952C363.591 258.248 363.415 257.443 363.415 256.536ZM370.391 256.568C370.391 256.024 370.285 255.56 370.071 255.176C369.858 254.781 369.57 254.483 369.207 254.28C368.845 254.067 368.455 253.96 368.039 253.96C367.623 253.96 367.239 254.061 366.887 254.264C366.535 254.467 366.247 254.765 366.023 255.16C365.81 255.544 365.703 256.003 365.703 256.536C365.703 257.069 365.81 257.539 366.023 257.944C366.247 258.339 366.535 258.643 366.887 258.856C367.25 259.069 367.634 259.176 368.039 259.176C368.455 259.176 368.845 259.075 369.207 258.872C369.57 258.659 369.858 258.36 370.071 257.976C370.285 257.581 370.391 257.112 370.391 256.568ZM377.123 253.976V258.264C377.123 258.563 377.193 258.781 377.331 258.92C377.481 259.048 377.726 259.112 378.067 259.112H379.107V261H377.699C375.811 261 374.867 260.083 374.867 258.248V253.976H373.811V252.136H374.867V249.944H377.123V252.136H379.107V253.976H377.123ZM381.534 251.08C381.14 251.08 380.809 250.957 380.542 250.712C380.286 250.456 380.158 250.141 380.158 249.768C380.158 249.395 380.286 249.085 380.542 248.84C380.809 248.584 381.14 248.456 381.534 248.456C381.929 248.456 382.254 248.584 382.51 248.84C382.777 249.085 382.91 249.395 382.91 249.768C382.91 250.141 382.777 250.456 382.51 250.712C382.254 250.957 381.929 251.08 381.534 251.08ZM382.638 252.136V261H380.398V252.136H382.638ZM388.468 261.144C387.614 261.144 386.846 260.957 386.164 260.584C385.481 260.2 384.942 259.661 384.548 258.968C384.164 258.275 383.972 257.475 383.972 256.568C383.972 255.661 384.169 254.861 384.564 254.168C384.969 253.475 385.518 252.941 386.212 252.568C386.905 252.184 387.678 251.992 388.532 251.992C389.385 251.992 390.158 252.184 390.852 252.568C391.545 252.941 392.089 253.475 392.484 254.168C392.889 254.861 393.092 255.661 393.092 256.568C393.092 257.475 392.884 258.275 392.468 258.968C392.062 259.661 391.508 260.2 390.804 260.584C390.11 260.957 389.332 261.144 388.468 261.144ZM388.468 259.192C388.873 259.192 389.252 259.096 389.604 258.904C389.966 258.701 390.254 258.403 390.468 258.008C390.681 257.613 390.788 257.133 390.788 256.568C390.788 255.725 390.564 255.08 390.116 254.632C389.678 254.173 389.14 253.944 388.5 253.944C387.86 253.944 387.321 254.173 386.884 254.632C386.457 255.08 386.244 255.725 386.244 256.568C386.244 257.411 386.452 258.061 386.868 258.52C387.294 258.968 387.828 259.192 388.468 259.192Z" fill="white"/>
</g>
<g id="Group 8_2">
<path id="Vector_4" d="M499.556 255.5C499.556 256.482 498.76 257.278 497.778 257.278C496.796 257.278 496 256.482 496 255.5C496 254.518 496.796 253.722 497.778 253.722C498.76 253.722 499.556 254.518 499.556 255.5Z" fill="white"/>
<path id="Vector_5" d="M505.778 255.5C505.778 256.482 504.982 257.278 504 257.278C503.019 257.278 502.223 256.482 502.223 255.5C502.223 254.518 503.019 253.722 504 253.722C504.982 253.722 505.778 254.518 505.778 255.5Z" fill="white"/>
<path id="Vector_6" d="M512 255.5C512 256.482 511.204 257.278 510.222 257.278C509.24 257.278 508.445 256.482 508.445 255.5C508.445 254.518 509.24 253.722 510.222 253.722C511.204 253.722 512 254.518 512 255.5Z" fill="white"/>
</g>
</g>
<g id="Frame 111">
<g clip-path="url(#clip1_867_5)">
<path d="M206 319C206 300.144 206 290.716 211.858 284.858C217.716 279 227.144 279 246 279H495C513.856 279 523.284 279 529.142 284.858C535 290.716 535 300.144 535 319V454C535 472.856 535 482.284 529.142 488.142C523.284 494 513.856 494 495 494H246C227.144 494 217.716 494 211.858 488.142C206 482.284 206 472.856 206 454V319Z" fill="#252525"/>
<g id="Rectangle 40_2" filter="url(#filter6_fn_867_5)">
<rect x="206" y="279" width="329" height="215" rx="20" fill="url(#paint7_radial_867_5)"/>
</g>
<g id="Ellipse 3077_2" filter="url(#filter7_fn_867_5)">
<ellipse cx="359.425" cy="280.075" rx="103.472" ry="48.2037" transform="rotate(-44.7437 359.425 280.075)" fill="url(#paint8_radial_867_5)"/>
</g>
<g id="Group 14_2">
<path id="Union_2" d="M523 291V482H218V291H523ZM219 444V481H256V444H219ZM257 444V481H294V444H257ZM295 444V481H332V444H295ZM333 444V481H370V444H333ZM371 444V481H408V444H371ZM409 444V481H446V444H409ZM447 444V481H484V444H447ZM485 444V481H522V444H485ZM219 406V443H256V406H219ZM257 406V443H294V406H257ZM295 406V443H332V406H295ZM333 406V443H370V406H333ZM371 406V443H408V406H371ZM409 406V443H446V406H409ZM447 406V443H484V406H447ZM485 406V443H522V406H485ZM219 368V405H256V368H219ZM257 368V405H294V368H257ZM295 368V405H332V368H295ZM333 368V405H370V368H333ZM371 368V405H408V368H371ZM409 368V405H446V368H409ZM447 368V405H484V368H447ZM485 368V405H522V368H485ZM219 330V367H256V330H219ZM257 330V367H294V330H257ZM295 330V367H332V330H295ZM333 330V367H370V330H333ZM371 330V367H408V330H371ZM409 330V367H446V330H409ZM447 330V367H484V330H447ZM485 330V367H522V330H485ZM219 292V329H256V292H219ZM257 292V329H294V292H257ZM295 292V329H332V292H295ZM333 292V329H370V292H333ZM371 292V329H408V292H371ZM409 292V329H446V292H409ZM447 292V329H484V292H447ZM485 292V329H522V292H485Z" fill="url(#paint9_radial_867_5)"/>
<g id="Frame 113">
<path id="Voluntary Churn" d="M410.336 309.624L407.264 318H405.224L402.152 309.624H403.952L406.256 316.284L408.548 309.624H410.336ZM414.296 318.108C413.656 318.108 413.08 317.968 412.568 317.688C412.056 317.4 411.652 316.996 411.356 316.476C411.068 315.956 410.924 315.356 410.924 314.676C410.924 313.996 411.072 313.396 411.368 312.876C411.672 312.356 412.084 311.956 412.604 311.676C413.124 311.388 413.704 311.244 414.344 311.244C414.984 311.244 415.564 311.388 416.084 311.676C416.604 311.956 417.012 312.356 417.308 312.876C417.612 313.396 417.764 313.996 417.764 314.676C417.764 315.356 417.608 315.956 417.296 316.476C416.992 316.996 416.576 317.4 416.048 317.688C415.528 317.968 414.944 318.108 414.296 318.108ZM414.296 316.644C414.6 316.644 414.884 316.572 415.148 316.428C415.42 316.276 415.636 316.052 415.796 315.756C415.956 315.46 416.036 315.1 416.036 314.676C416.036 314.044 415.868 313.56 415.532 313.224C415.204 312.88 414.8 312.708 414.32 312.708C413.84 312.708 413.436 312.88 413.108 313.224C412.788 313.56 412.628 314.044 412.628 314.676C412.628 315.308 412.784 315.796 413.096 316.14C413.416 316.476 413.816 316.644 414.296 316.644ZM420.676 309.12V318H418.996V309.12H420.676ZM428.612 311.352V318H426.92V317.16C426.704 317.448 426.42 317.676 426.068 317.844C425.724 318.004 425.348 318.084 424.94 318.084C424.42 318.084 423.96 317.976 423.56 317.76C423.16 317.536 422.844 317.212 422.612 316.788C422.388 316.356 422.276 315.844 422.276 315.252V311.352H423.956V315.012C423.956 315.54 424.088 315.948 424.352 316.236C424.616 316.516 424.976 316.656 425.432 316.656C425.896 316.656 426.26 316.516 426.524 316.236C426.788 315.948 426.92 315.54 426.92 315.012V311.352H428.612ZM433.953 311.256C434.745 311.256 435.385 311.508 435.873 312.012C436.361 312.508 436.605 313.204 436.605 314.1V318H434.925V314.328C434.925 313.8 434.793 313.396 434.529 313.116C434.265 312.828 433.905 312.684 433.449 312.684C432.985 312.684 432.617 312.828 432.345 313.116C432.081 313.396 431.949 313.8 431.949 314.328V318H430.269V311.352H431.949V312.18C432.173 311.892 432.457 311.668 432.801 311.508C433.153 311.34 433.537 311.256 433.953 311.256ZM440.159 312.732V315.948C440.159 316.172 440.211 316.336 440.315 316.44C440.427 316.536 440.611 316.584 440.867 316.584H441.647V318H440.591C439.175 318 438.467 317.312 438.467 315.936V312.732H437.675V311.352H438.467V309.708H440.159V311.352H441.647V312.732H440.159ZM442.423 314.652C442.423 313.98 442.555 313.384 442.819 312.864C443.091 312.344 443.455 311.944 443.911 311.664C444.375 311.384 444.891 311.244 445.459 311.244C445.955 311.244 446.387 311.344 446.755 311.544C447.131 311.744 447.431 311.996 447.655 312.3V311.352H449.347V318H447.655V317.028C447.439 317.34 447.139 317.6 446.755 317.808C446.379 318.008 445.943 318.108 445.447 318.108C444.887 318.108 444.375 317.964 443.911 317.676C443.455 317.388 443.091 316.984 442.819 316.464C442.555 315.936 442.423 315.332 442.423 314.652ZM447.655 314.676C447.655 314.268 447.575 313.92 447.415 313.632C447.255 313.336 447.039 313.112 446.767 312.96C446.495 312.8 446.203 312.72 445.891 312.72C445.579 312.72 445.291 312.796 445.027 312.948C444.763 313.1 444.547 313.324 444.379 313.62C444.219 313.908 444.139 314.252 444.139 314.652C444.139 315.052 444.219 315.404 444.379 315.708C444.547 316.004 444.763 316.232 445.027 316.392C445.299 316.552 445.587 316.632 445.891 316.632C446.203 316.632 446.495 316.556 446.767 316.404C447.039 316.244 447.255 316.02 447.415 315.732C447.575 315.436 447.655 315.084 447.655 314.676ZM452.668 312.384C452.884 312.032 453.164 311.756 453.508 311.556C453.86 311.356 454.26 311.256 454.708 311.256V313.02H454.264C453.736 313.02 453.336 313.144 453.064 313.392C452.8 313.64 452.668 314.072 452.668 314.688V318H450.988V311.352H452.668V312.384ZM462.2 311.352L458.084 321.144H456.296L457.736 317.832L455.072 311.352H456.956L458.672 315.996L460.412 311.352H462.2ZM465.557 313.8C465.557 312.976 465.741 312.24 466.109 311.592C466.485 310.936 466.993 310.428 467.633 310.068C468.281 309.7 469.005 309.516 469.805 309.516C470.741 309.516 471.561 309.756 472.265 310.236C472.969 310.716 473.461 311.38 473.741 312.228H471.809C471.617 311.828 471.345 311.528 470.993 311.328C470.649 311.128 470.249 311.028 469.793 311.028C469.305 311.028 468.869 311.144 468.485 311.376C468.109 311.6 467.813 311.92 467.597 312.336C467.389 312.752 467.285 313.24 467.285 313.8C467.285 314.352 467.389 314.84 467.597 315.264C467.813 315.68 468.109 316.004 468.485 316.236C468.869 316.46 469.305 316.572 469.793 316.572C470.249 316.572 470.649 316.472 470.993 316.272C471.345 316.064 471.617 315.76 471.809 315.36H473.741C473.461 316.216 472.969 316.884 472.265 317.364C471.569 317.836 470.749 318.072 469.805 318.072C469.005 318.072 468.281 317.892 467.633 317.532C466.993 317.164 466.485 316.656 466.109 316.008C465.741 315.36 465.557 314.624 465.557 313.8ZM478.92 311.256C479.424 311.256 479.872 311.368 480.264 311.592C480.656 311.808 480.96 312.132 481.176 312.564C481.4 312.988 481.512 313.5 481.512 314.1V318H479.832V314.328C479.832 313.8 479.7 313.396 479.436 313.116C479.172 312.828 478.812 312.684 478.356 312.684C477.892 312.684 477.524 312.828 477.252 313.116C476.988 313.396 476.856 313.8 476.856 314.328V318H475.176V309.12H476.856V312.18C477.072 311.892 477.36 311.668 477.72 311.508C478.08 311.34 478.48 311.256 478.92 311.256ZM489.385 311.352V318H487.693V317.16C487.477 317.448 487.193 317.676 486.841 317.844C486.497 318.004 486.121 318.084 485.713 318.084C485.193 318.084 484.733 317.976 484.333 317.76C483.933 317.536 483.617 317.212 483.385 316.788C483.161 316.356 483.049 315.844 483.049 315.252V311.352H484.729V315.012C484.729 315.54 484.861 315.948 485.125 316.236C485.389 316.516 485.749 316.656 486.205 316.656C486.669 316.656 487.033 316.516 487.297 316.236C487.561 315.948 487.693 315.54 487.693 315.012V311.352H489.385ZM492.723 312.384C492.939 312.032 493.219 311.756 493.563 311.556C493.915 311.356 494.315 311.256 494.763 311.256V313.02H494.319C493.791 313.02 493.391 313.144 493.119 313.392C492.855 313.64 492.723 314.072 492.723 314.688V318H491.043V311.352H492.723V312.384ZM499.578 311.256C500.37 311.256 501.01 311.508 501.498 312.012C501.986 312.508 502.23 313.204 502.23 314.1V318H500.55V314.328C500.55 313.8 500.418 313.396 500.154 313.116C499.89 312.828 499.53 312.684 499.074 312.684C498.61 312.684 498.242 312.828 497.97 313.116C497.706 313.396 497.574 313.8 497.574 314.328V318H495.894V311.352H497.574V312.18C497.798 311.892 498.082 311.668 498.426 311.508C498.778 311.34 499.162 311.256 499.578 311.256Z" fill="white" fill-opacity="0.8"/>
<path id="78%" d="M454.117 332.232L440.773 363H435.253L448.741 332.808H430.981V328.152H454.117V332.232ZM461.824 344.712C458.496 343.048 456.832 340.424 456.832 336.84C456.832 335.112 457.264 333.528 458.128 332.088C458.992 330.648 460.288 329.512 462.016 328.68C463.744 327.816 465.856 327.384 468.352 327.384C470.816 327.384 472.912 327.816 474.64 328.68C476.4 329.512 477.712 330.648 478.576 332.088C479.44 333.528 479.872 335.112 479.872 336.84C479.872 338.632 479.408 340.216 478.48 341.592C477.584 342.936 476.384 343.976 474.88 344.712C476.704 345.384 478.144 346.488 479.2 348.024C480.256 349.528 480.784 351.304 480.784 353.352C480.784 355.432 480.256 357.272 479.2 358.872C478.144 360.472 476.672 361.704 474.784 362.568C472.896 363.432 470.752 363.864 468.352 363.864C465.952 363.864 463.808 363.432 461.92 362.568C460.064 361.704 458.608 360.472 457.552 358.872C456.496 357.272 455.968 355.432 455.968 353.352C455.968 351.272 456.496 349.48 457.552 347.976C458.608 346.472 460.032 345.384 461.824 344.712ZM474.64 337.512C474.64 335.72 474.08 334.344 472.96 333.384C471.84 332.424 470.304 331.944 468.352 331.944C466.432 331.944 464.912 332.424 463.792 333.384C462.672 334.344 462.112 335.736 462.112 337.56C462.112 339.16 462.688 340.472 463.84 341.496C465.024 342.488 466.528 342.984 468.352 342.984C470.176 342.984 471.68 342.472 472.864 341.448C474.048 340.424 474.64 339.112 474.64 337.512ZM468.352 347.112C466.24 347.112 464.512 347.64 463.168 348.696C461.856 349.72 461.2 351.208 461.2 353.16C461.2 354.984 461.84 356.472 463.12 357.624C464.4 358.744 466.144 359.304 468.352 359.304C470.528 359.304 472.24 358.728 473.488 357.576C474.768 356.424 475.408 354.952 475.408 353.16C475.408 351.24 474.752 349.752 473.44 348.696C472.16 347.64 470.464 347.112 468.352 347.112ZM481.946 347.516C481.946 346.153 482.338 345.089 483.122 344.324C483.924 343.54 484.951 343.148 486.202 343.148C487.452 343.148 488.47 343.54 489.254 344.324C490.056 345.089 490.458 346.153 490.458 347.516C490.458 348.879 490.056 349.952 489.254 350.736C488.47 351.52 487.452 351.912 486.202 351.912C484.951 351.912 483.924 351.52 483.122 350.736C482.338 349.952 481.946 348.879 481.946 347.516ZM499.026 343.512L487.854 363H484.718L495.89 343.512H499.026ZM486.202 345.08C485.026 345.08 484.438 345.892 484.438 347.516C484.438 349.159 485.026 349.98 486.202 349.98C486.762 349.98 487.191 349.784 487.49 349.392C487.807 348.981 487.966 348.356 487.966 347.516C487.966 345.892 487.378 345.08 486.202 345.08ZM493.342 358.968C493.342 357.605 493.734 356.541 494.518 355.776C495.32 354.992 496.347 354.6 497.598 354.6C498.83 354.6 499.838 354.992 500.622 355.776C501.424 356.541 501.826 357.605 501.826 358.968C501.826 360.331 501.424 361.404 500.622 362.188C499.838 362.972 498.83 363.364 497.598 363.364C496.347 363.364 495.32 362.972 494.518 362.188C493.734 361.404 493.342 360.331 493.342 358.968ZM497.57 356.532C496.394 356.532 495.806 357.344 495.806 358.968C495.806 360.592 496.394 361.404 497.57 361.404C498.746 361.404 499.334 360.592 499.334 358.968C499.334 357.344 498.746 356.532 497.57 356.532Z" fill="#FE0101"/>
</g>
<path id="Vector 373" d="M244 319C244 319 254.403 376.644 278 371C286.375 368.997 290.989 360.309 299.5 359C332 354 322.795 432.474 351 417C359.231 412.484 363.135 403.092 372 400C391.122 393.332 388.545 428.196 405 440C434.506 461.167 497 453.5 497 453.5" stroke="#FE0101" stroke-width="2" stroke-linecap="round"/>
</g>
</g>
<path d="M246 279.5H495C504.442 279.5 511.474 279.501 516.879 280.228C522.27 280.952 525.969 282.39 528.789 285.211C531.61 288.031 533.048 291.73 533.772 297.121C534.499 302.526 534.5 309.558 534.5 319V454C534.5 463.442 534.499 470.474 533.772 475.879C533.048 481.27 531.61 484.969 528.789 487.789C525.969 490.61 522.27 492.048 516.879 492.772C511.474 493.499 504.442 493.5 495 493.5H246C236.558 493.5 229.526 493.499 224.121 492.772C218.73 492.048 215.031 490.61 212.211 487.789C209.39 484.969 207.952 481.27 207.228 475.879C206.501 470.474 206.5 463.442 206.5 454V319C206.5 309.558 206.501 302.526 207.228 297.121C207.952 291.73 209.39 288.031 212.211 285.211C215.031 282.39 218.73 280.952 224.121 280.228C229.526 279.501 236.558 279.5 246 279.5Z" stroke="url(#paint10_linear_867_5)"/>
</g>
</g>
</g>
<defs>
<filter id="filter1_f_867_5" x="14" y="14.5" width="18" height="18" filterUnits="userSpaceOnUse" color-interpolation-filters="sRGB">
<feFlood flood-opacity="0" result="BackgroundImageFix"/>
<feBlend mode="normal" in="SourceGraphic" in2="BackgroundImageFix" result="shape"/>
<feGaussianBlur stdDeviation="2" result="effect1_foregroundBlur_867_5"/>
</filter>
<filter id="filter2_fn_867_5" x="-94" y="-53" width="529" height="415" filterUnits="userSpaceOnUse" color-interpolation-filters="sRGB">
<feFlood flood-opacity="0" result="BackgroundImageFix"/>
<feBlend mode="normal" in="SourceGraphic" in2="BackgroundImageFix" result="shape"/>
<feGaussianBlur stdDeviation="0" result="effect1_foregroundBlur_867_5"/>
<feTurbulence type="fractalNoise" baseFrequency="2 2" stitchTiles="stitch" numOctaves="3" result="noise" seed="9213" />
<feColorMatrix in="noise" type="luminanceToAlpha" result="alphaNoise" />
<feComponentTransfer in="alphaNoise" result="coloredNoise1">
<feFuncA type="discrete" tableValues="1 1 1 1 1 1 1 1 1 1 1 1 1 1 1 1 1 1 1 1 1 1 1 1 1 1 1 1 1 1 1 1 1 1 1 1 1 1 1 1 1 1 1 1 1 1 1 1 1 1 1 0 0 0 0 0 0 0 0 0 0 0 0 0 0 0 0 0 0 0 0 0 0 0 0 0 0 0 0 0 0 0 0 0 0 0 0 0 0 0 0 0 0 0 0 0 0 0 0 0 "/>
</feComponentTransfer>
<feComposite operator="in" in2="effect1_foregroundBlur_867_5" in="coloredNoise1" result="noise1Clipped" />
<feFlood flood-color="#0055C6" result="color1Flood" />
<feComposite operator="in" in2="noise1Clipped" in="color1Flood" result="color1" />
<feMerge result="effect2_noise_867_5">
<feMergeNode in="effect1_foregroundBlur_867_5" />
<feMergeNode in="color1" />
</feMerge>
</filter>
<filter id="filter3_fn_867_5" x="45.4387" y="-68.9559" width="296.905" height="256.109" filterUnits="userSpaceOnUse" color-interpolation-filters="sRGB">
<feFlood flood-opacity="0" result="BackgroundImageFix"/>
<feBlend mode="normal" in="SourceGraphic" in2="BackgroundImageFix" result="shape"/>
<feGaussianBlur stdDeviation="30" result="effect1_foregroundBlur_867_5"/>
<feTurbulence type="fractalNoise" baseFrequency="2 2" stitchTiles="stitch" numOctaves="3" result="noise" seed="9213" />
<feColorMatrix in="noise" type="luminanceToAlpha" result="alphaNoise" />
<feComponentTransfer in="alphaNoise" result="coloredNoise1">
<feFuncA type="discrete" tableValues="1 1 1 1 1 1 1 1 1 1 1 1 1 1 1 1 1 1 1 1 1 1 1 1 1 1 1 1 1 1 1 1 1 1 1 1 1 1 1 1 1 1 1 1 1 1 1 1 1 1 1 0 0 0 0 0 0 0 0 0 0 0 0 0 0 0 0 0 0 0 0 0 0 0 0 0 0 0 0 0 0 0 0 0 0 0 0 0 0 0 0 0 0 0 0 0 0 0 0 0 "/>
</feComponentTransfer>
<feComposite operator="in" in2="effect1_foregroundBlur_867_5" in="coloredNoise1" result="noise1Clipped" />
<feFlood flood-color="#0055C6" result="color1Flood" />
<feComposite operator="in" in2="noise1Clipped" in="color1Flood" result="color1" />
<feMerge result="effect2_noise_867_5">
<feMergeNode in="effect1_foregroundBlur_867_5" />
<feMergeNode in="color1" />
</feMerge>
</filter>
<filter id="filter5_f_867_5" x="214" y="246.5" width="18" height="18" filterUnits="userSpaceOnUse" color-interpolation-filters="sRGB">
<feFlood flood-opacity="0" result="BackgroundImageFix"/>
<feBlend mode="normal" in="SourceGraphic" in2="BackgroundImageFix" result="shape"/>
<feGaussianBlur stdDeviation="2" result="effect1_foregroundBlur_867_5"/>
</filter>
<filter id="filter6_fn_867_5" x="106" y="179" width="529" height="415" filterUnits="userSpaceOnUse" color-interpolation-filters="sRGB">
<feFlood flood-opacity="0" result="BackgroundImageFix"/>
<feBlend mode="normal" in="SourceGraphic" in2="BackgroundImageFix" result="shape"/>
<feGaussianBlur stdDeviation="0" result="effect1_foregroundBlur_867_5"/>
<feTurbulence type="fractalNoise" baseFrequency="2 2" stitchTiles="stitch" numOctaves="3" result="noise" seed="9213" />
<feColorMatrix in="noise" type="luminanceToAlpha" result="alphaNoise" />
<feComponentTransfer in="alphaNoise" result="coloredNoise1">
<feFuncA type="discrete" tableValues="1 1 1 1 1 1 1 1 1 1 1 1 1 1 1 1 1 1 1 1 1 1 1 1 1 1 1 1 1 1 1 1 1 1 1 1 1 1 1 1 1 1 1 1 1 1 1 1 1 1 1 0 0 0 0 0 0 0 0 0 0 0 0 0 0 0 0 0 0 0 0 0 0 0 0 0 0 0 0 0 0 0 0 0 0 0 0 0 0 0 0 0 0 0 0 0 0 0 0 0 "/>
</feComponentTransfer>
<feComposite operator="in" in2="effect1_foregroundBlur_867_5" in="coloredNoise1" result="noise1Clipped" />
<feFlood flood-color="rgba(0, 0, 0, 0.2)" result="color1Flood" />
<feComposite operator="in" in2="noise1Clipped" in="color1Flood" result="color1" />
<feMerge result="effect2_noise_867_5">
<feMergeNode in="effect1_foregroundBlur_867_5" />
<feMergeNode in="color1" />
</feMerge>
</filter>
<filter id="filter7_fn_867_5" x="198.457" y="119.573" width="321.935" height="321.005" filterUnits="userSpaceOnUse" color-interpolation-filters="sRGB">
<feFlood flood-opacity="0" result="BackgroundImageFix"/>
<feBlend mode="normal" in="SourceGraphic" in2="BackgroundImageFix" result="shape"/>
<feGaussianBlur stdDeviation="40" result="effect1_foregroundBlur_867_5"/>
<feTurbulence type="fractalNoise" baseFrequency="2 2" stitchTiles="stitch" numOctaves="3" result="noise" seed="9213" />
<feColorMatrix in="noise" type="luminanceToAlpha" result="alphaNoise" />
<feComponentTransfer in="alphaNoise" result="coloredNoise1">
<feFuncA type="discrete" tableValues="1 1 1 1 1 1 1 1 1 1 1 1 1 1 1 1 1 1 1 1 1 1 1 1 1 1 1 1 1 1 1 1 1 1 1 1 1 1 1 1 1 1 1 1 1 1 1 1 1 1 1 0 0 0 0 0 0 0 0 0 0 0 0 0 0 0 0 0 0 0 0 0 0 0 0 0 0 0 0 0 0 0 0 0 0 0 0 0 0 0 0 0 0 0 0 0 0 0 0 0 "/>
</feComponentTransfer>
<feComposite operator="in" in2="effect1_foregroundBlur_867_5" in="coloredNoise1" result="noise1Clipped" />
<feFlood flood-color="rgba(0, 0, 0, 0.2)" result="color1Flood" />
<feComposite operator="in" in2="noise1Clipped" in="color1Flood" result="color1" />
<feMerge result="effect2_noise_867_5">
<feMergeNode in="effect1_foregroundBlur_867_5" />
<feMergeNode in="color1" />
</feMerge>
</filter>
<radialGradient id="paint0_radial_867_5" cx="0" cy="0" r="1" gradientTransform="matrix(0.499982 156.839 -459.185 0.625135 170 105.161)" gradientUnits="userSpaceOnUse">
<stop offset="0.550594" stop-color="#5DA2FF" stop-opacity="0"/>
<stop offset="0.929335" stop-color="#0055C6" stop-opacity="0.2"/>
<stop offset="1" stop-color="#0077FF"/>
</radialGradient>
<radialGradient id="paint1_radial_867_5" cx="0" cy="0" r="1" gradientUnits="userSpaceOnUse" gradientTransform="translate(193.891 59.0986) rotate(90) scale(41.7532 125.09)">
<stop stop-color="#0077FF"/>
<stop offset="1" stop-color="#0077FF" stop-opacity="0"/>
</radialGradient>
<linearGradient id="paint2_linear_867_5" x1="260" y1="180" x2="260" y2="213" gradientUnits="userSpaceOnUse">
<stop stop-color="#82ADDA"/>
<stop offset="1" stop-color="#0077FF"/>
</linearGradient>
<radialGradient id="paint3_radial_867_5" cx="0" cy="0" r="1" gradientTransform="matrix(85.5 -71.0771 98.4722 46.4534 151 189.569)" gradientUnits="userSpaceOnUse">
<stop stop-color="#848484"/>
<stop offset="1" stop-color="#848484" stop-opacity="0"/>
</radialGradient>
<linearGradient id="paint4_linear_867_5" x1="37" y1="195.511" x2="235.738" y2="20.7144" gradientUnits="userSpaceOnUse">
<stop stop-color="#5DA2FF"/>
<stop offset="0.5" stop-color="#0055C6"/>
<stop offset="0.75" stop-color="#D7E8FF"/>
<stop offset="1" stop-color="#5DA2FF"/>
</linearGradient>
<radialGradient id="paint5_radial_867_5" cx="0" cy="0" r="1" gradientUnits="userSpaceOnUse" gradientTransform="translate(243.6 98.2) rotate(-38.6598) scale(7.68375)">
<stop stop-color="#0055C6"/>
<stop offset="0.389297" stop-color="#0077FF"/>
<stop offset="1" stop-color="#5DA2FF"/>
</radialGradient>
<linearGradient id="paint6_linear_867_5" x1="6" y1="47" x2="317.115" y2="23.655" gradientUnits="userSpaceOnUse">
<stop stop-color="#848484"/>
<stop offset="1" stop-color="#848484" stop-opacity="0"/>
</linearGradient>
<radialGradient id="paint7_radial_867_5" cx="0" cy="0" r="1" gradientTransform="matrix(0.499982 156.839 -459.185 0.625135 370 337.161)" gradientUnits="userSpaceOnUse">
<stop offset="0.550594" stop-color="#FE0101" stop-opacity="0"/>
<stop offset="0.929335" stop-color="#FE0101" stop-opacity="0.2"/>
<stop offset="1" stop-color="#FE0101"/>
</radialGradient>
<radialGradient id="paint8_radial_867_5" cx="0" cy="0" r="1" gradientUnits="userSpaceOnUse" gradientTransform="translate(359.425 280.075) rotate(90) scale(48.2036 125.09)">
<stop stop-color="#FE0101"/>
<stop offset="1" stop-color="#FE0101" stop-opacity="0"/>
</radialGradient>
<radialGradient id="paint9_radial_867_5" cx="0" cy="0" r="1" gradientTransform="matrix(85.5 -71.0771 98.4722 46.4534 351 421.569)" gradientUnits="userSpaceOnUse">
<stop stop-color="#848484"/>
<stop offset="1" stop-color="#848484" stop-opacity="0"/>
</radialGradient>
<linearGradient id="paint10_linear_867_5" x1="206" y1="279" x2="517.115" y2="255.655" gradientUnits="userSpaceOnUse">
<stop stop-color="#848484"/>
<stop offset="1" stop-color="#848484" stop-opacity="0"/>
</linearGradient>
<clipPath id="clip0_867_5">
<path d="M6 87C6 68.1438 6 58.7157 11.8579 52.8579C17.7157 47 27.1438 47 46 47H295C313.856 47 323.284 47 329.142 52.8579C335 58.7157 335 68.1438 335 87V222C335 240.856 335 250.284 329.142 256.142C323.284 262 313.856 262 295 262H46C27.1438 262 17.7157 262 11.8579 256.142C6 250.284 6 240.856 6 222V87Z" fill="white"/>
</clipPath>
<clipPath id="clip1_867_5">
<path d="M206 319C206 300.144 206 290.716 211.858 284.858C217.716 279 227.144 279 246 279H495C513.856 279 523.284 279 529.142 284.858C535 290.716 535 300.144 535 319V454C535 472.856 535 482.284 529.142 488.142C523.284 494 513.856 494 495 494H246C227.144 494 217.716 494 211.858 488.142C206 482.284 206 472.856 206 454V319Z" fill="white"/>
</clipPath>
</defs>
</svg>
