<svg width="320" height="327" viewBox="0 0 320 327" fill="none" xmlns="http://www.w3.org/2000/svg">
<g id="Identity Subscription Design">
<rect width="320" height="326.486" rx="20" fill="#848484" fill-opacity="0.2"/>
<g id="Header">
<g id="Header Text">
<g id="Ellipse 3075" filter="url(#filter1_f_851_581)">
<circle cx="23" cy="23.5" r="5" fill="#FE0101"/>
</g>
<path id="Identity Subscription Design_2" d="M39.344 17.832V29H37.104V17.832H39.344ZM40.6611 24.536C40.6611 23.64 40.8371 22.8453 41.1891 22.152C41.5518 21.4587 42.0425 20.9253 42.6611 20.552C43.2798 20.1787 43.9678 19.992 44.7251 19.992C45.3011 19.992 45.8505 20.12 46.3731 20.376C46.8958 20.6213 47.3118 20.952 47.6211 21.368V17.16H49.8931V29H47.6211V27.688C47.3438 28.1253 46.9545 28.4773 46.4531 28.744C45.9518 29.0107 45.3705 29.144 44.7091 29.144C43.9625 29.144 43.2798 28.952 42.6611 28.568C42.0425 28.184 41.5518 27.6453 41.1891 26.952C40.8371 26.248 40.6611 25.4427 40.6611 24.536ZM47.6371 24.568C47.6371 24.024 47.5305 23.56 47.3171 23.176C47.1038 22.7813 46.8158 22.4827 46.4531 22.28C46.0905 22.0667 45.7011 21.96 45.2851 21.96C44.8691 21.96 44.4851 22.0613 44.1331 22.264C43.7811 22.4667 43.4931 22.7653 43.2691 23.16C43.0558 23.544 42.9491 24.0027 42.9491 24.536C42.9491 25.0693 43.0558 25.5387 43.2691 25.944C43.4931 26.3387 43.7811 26.6427 44.1331 26.856C44.4958 27.0693 44.8798 27.176 45.2851 27.176C45.7011 27.176 46.0905 27.0747 46.4531 26.872C46.8158 26.6587 47.1038 26.36 47.3171 25.976C47.5305 25.5813 47.6371 25.112 47.6371 24.568ZM60.0009 24.376C60.0009 24.696 59.9795 24.984 59.9369 25.24H53.4569C53.5102 25.88 53.7342 26.3813 54.1289 26.744C54.5235 27.1067 55.0089 27.288 55.5849 27.288C56.4169 27.288 57.0089 26.9307 57.3609 26.216H59.7769C59.5209 27.0693 59.0302 27.7733 58.3049 28.328C57.5795 28.872 56.6889 29.144 55.6329 29.144C54.7795 29.144 54.0115 28.9573 53.3289 28.584C52.6569 28.2 52.1289 27.6613 51.7449 26.968C51.3715 26.2747 51.1849 25.4747 51.1849 24.568C51.1849 23.6507 51.3715 22.8453 51.7449 22.152C52.1182 21.4587 52.6409 20.9253 53.3129 20.552C53.9849 20.1787 54.7582 19.992 55.6329 19.992C56.4755 19.992 57.2275 20.1733 57.8889 20.536C58.5609 20.8987 59.0782 21.416 59.4409 22.088C59.8142 22.7493 60.0009 23.512 60.0009 24.376ZM57.6809 23.736C57.6702 23.16 57.4622 22.7013 57.0569 22.36C56.6515 22.008 56.1555 21.832 55.5689 21.832C55.0142 21.832 54.5449 22.0027 54.1609 22.344C53.7875 22.6747 53.5582 23.1387 53.4729 23.736H57.6809ZM66.2279 20.008C67.2839 20.008 68.1372 20.344 68.7879 21.016C69.4385 21.6773 69.7639 22.6053 69.7639 23.8V29H67.5239V24.104C67.5239 23.4 67.3479 22.8613 66.9959 22.488C66.6439 22.104 66.1639 21.912 65.5559 21.912C64.9372 21.912 64.4465 22.104 64.0839 22.488C63.7319 22.8613 63.5559 23.4 63.5559 24.104V29H61.3159V20.136H63.5559V21.24C63.8545 20.856 64.2332 20.5573 64.6919 20.344C65.1612 20.12 65.6732 20.008 66.2279 20.008ZM74.182 21.976V26.264C74.182 26.5627 74.2513 26.7813 74.39 26.92C74.5393 27.048 74.7847 27.112 75.126 27.112H76.166V29H74.758C72.87 29 71.926 28.0827 71.926 26.248V21.976H70.87V20.136H71.926V17.944H74.182V20.136H76.166V21.976H74.182ZM78.5931 19.08C78.1985 19.08 77.8678 18.9573 77.6011 18.712C77.3451 18.456 77.2171 18.1413 77.2171 17.768C77.2171 17.3947 77.3451 17.0853 77.6011 16.84C77.8678 16.584 78.1985 16.456 78.5931 16.456C78.9878 16.456 79.3131 16.584 79.5691 16.84C79.8358 17.0853 79.9691 17.3947 79.9691 17.768C79.9691 18.1413 79.8358 18.456 79.5691 18.712C79.3131 18.9573 78.9878 19.08 78.5931 19.08ZM79.6971 20.136V29H77.4571V20.136H79.6971ZM84.1983 21.976V26.264C84.1983 26.5627 84.2676 26.7813 84.4063 26.92C84.5556 27.048 84.8009 27.112 85.1423 27.112H86.1823V29H84.7743C82.8863 29 81.9423 28.0827 81.9423 26.248V21.976H80.8863V20.136H81.9423V17.944H84.1983V20.136H86.1823V21.976H84.1983ZM95.9534 20.136L90.4654 33.192H88.0814L90.0014 28.776L86.4494 20.136H88.9614L91.2494 26.328L93.5694 20.136H95.9534ZM104.189 29.112C103.411 29.112 102.707 28.9787 102.077 28.712C101.459 28.4453 100.968 28.0613 100.605 27.56C100.243 27.0587 100.056 26.4667 100.045 25.784H102.445C102.477 26.2427 102.637 26.6053 102.925 26.872C103.224 27.1387 103.629 27.272 104.141 27.272C104.664 27.272 105.075 27.1493 105.373 26.904C105.672 26.648 105.821 26.3173 105.821 25.912C105.821 25.5813 105.72 25.3093 105.517 25.096C105.315 24.8827 105.059 24.7173 104.749 24.6C104.451 24.472 104.035 24.3333 103.501 24.184C102.776 23.9707 102.184 23.7627 101.725 23.56C101.277 23.3467 100.888 23.032 100.557 22.616C100.237 22.1893 100.077 21.624 100.077 20.92C100.077 20.2587 100.243 19.6827 100.573 19.192C100.904 18.7013 101.368 18.328 101.965 18.072C102.563 17.8053 103.245 17.672 104.013 17.672C105.165 17.672 106.099 17.9547 106.813 18.52C107.539 19.0747 107.939 19.8533 108.013 20.856H105.549C105.528 20.472 105.363 20.1573 105.053 19.912C104.755 19.656 104.355 19.528 103.853 19.528C103.416 19.528 103.064 19.64 102.797 19.864C102.541 20.088 102.413 20.4133 102.413 20.84C102.413 21.1387 102.509 21.3893 102.701 21.592C102.904 21.784 103.149 21.944 103.437 22.072C103.736 22.1893 104.152 22.328 104.685 22.488C105.411 22.7013 106.003 22.9147 106.461 23.128C106.92 23.3413 107.315 23.6613 107.645 24.088C107.976 24.5147 108.141 25.0747 108.141 25.768C108.141 26.3653 107.987 26.92 107.677 27.432C107.368 27.944 106.915 28.3547 106.317 28.664C105.72 28.9627 105.011 29.112 104.189 29.112ZM118.131 20.136V29H115.875V27.88C115.587 28.264 115.209 28.568 114.739 28.792C114.281 29.0053 113.779 29.112 113.235 29.112C112.542 29.112 111.929 28.968 111.395 28.68C110.862 28.3813 110.441 27.9493 110.131 27.384C109.833 26.808 109.683 26.1253 109.683 25.336V20.136H111.923V25.016C111.923 25.72 112.099 26.264 112.451 26.648C112.803 27.0213 113.283 27.208 113.891 27.208C114.51 27.208 114.995 27.0213 115.347 26.648C115.699 26.264 115.875 25.72 115.875 25.016V20.136H118.131ZM122.262 21.432C122.55 21.0053 122.944 20.6587 123.446 20.392C123.958 20.1253 124.539 19.992 125.19 19.992C125.947 19.992 126.63 20.1787 127.238 20.552C127.856 20.9253 128.342 21.4587 128.694 22.152C129.056 22.8347 129.238 23.6293 129.238 24.536C129.238 25.4427 129.056 26.248 128.694 26.952C128.342 27.6453 127.856 28.184 127.238 28.568C126.63 28.952 125.947 29.144 125.19 29.144C124.528 29.144 123.947 29.016 123.446 28.76C122.955 28.4933 122.56 28.152 122.262 27.736V29H120.022V17.16H122.262V21.432ZM126.95 24.536C126.95 24.0027 126.838 23.544 126.614 23.16C126.4 22.7653 126.112 22.4667 125.75 22.264C125.398 22.0613 125.014 21.96 124.598 21.96C124.192 21.96 123.808 22.0667 123.446 22.28C123.094 22.4827 122.806 22.7813 122.582 23.176C122.368 23.5707 122.262 24.0347 122.262 24.568C122.262 25.1013 122.368 25.5653 122.582 25.96C122.806 26.3547 123.094 26.6587 123.446 26.872C123.808 27.0747 124.192 27.176 124.598 27.176C125.014 27.176 125.398 27.0693 125.75 26.856C126.112 26.6427 126.4 26.3387 126.614 25.944C126.838 25.5493 126.95 25.08 126.95 24.536ZM133.937 29.144C133.212 29.144 132.561 29.016 131.985 28.76C131.409 28.4933 130.951 28.136 130.609 27.688C130.279 27.24 130.097 26.744 130.065 26.2H132.321C132.364 26.5413 132.529 26.824 132.817 27.048C133.116 27.272 133.484 27.384 133.921 27.384C134.348 27.384 134.679 27.2987 134.913 27.128C135.159 26.9573 135.281 26.7387 135.281 26.472C135.281 26.184 135.132 25.9707 134.833 25.832C134.545 25.6827 134.081 25.5227 133.441 25.352C132.78 25.192 132.236 25.0267 131.809 24.856C131.393 24.6853 131.031 24.424 130.721 24.072C130.423 23.72 130.273 23.2453 130.273 22.648C130.273 22.1573 130.412 21.7093 130.689 21.304C130.977 20.8987 131.383 20.5787 131.905 20.344C132.439 20.1093 133.063 19.992 133.777 19.992C134.833 19.992 135.676 20.2587 136.305 20.792C136.935 21.3147 137.281 22.024 137.345 22.92H135.201C135.169 22.568 135.02 22.2907 134.753 22.088C134.497 21.8747 134.151 21.768 133.713 21.768C133.308 21.768 132.993 21.8427 132.769 21.992C132.556 22.1413 132.449 22.3493 132.449 22.616C132.449 22.9147 132.599 23.144 132.897 23.304C133.196 23.4533 133.66 23.608 134.289 23.768C134.929 23.928 135.457 24.0933 135.873 24.264C136.289 24.4347 136.647 24.7013 136.945 25.064C137.255 25.416 137.415 25.8853 137.425 26.472C137.425 26.984 137.281 27.4427 136.993 27.848C136.716 28.2533 136.311 28.5733 135.777 28.808C135.255 29.032 134.641 29.144 133.937 29.144ZM138.368 24.568C138.368 23.6507 138.555 22.8507 138.928 22.168C139.301 21.4747 139.819 20.9413 140.48 20.568C141.141 20.184 141.899 19.992 142.752 19.992C143.851 19.992 144.757 20.2693 145.472 20.824C146.197 21.368 146.683 22.136 146.928 23.128H144.512C144.384 22.744 144.165 22.4453 143.856 22.232C143.557 22.008 143.184 21.896 142.736 21.896C142.096 21.896 141.589 22.1307 141.216 22.6C140.843 23.0587 140.656 23.7147 140.656 24.568C140.656 25.4107 140.843 26.0667 141.216 26.536C141.589 26.9947 142.096 27.224 142.736 27.224C143.643 27.224 144.235 26.8187 144.512 26.008H146.928C146.683 26.968 146.197 27.7307 145.472 28.296C144.747 28.8613 143.84 29.144 142.752 29.144C141.899 29.144 141.141 28.9573 140.48 28.584C139.819 28.2 139.301 27.6667 138.928 26.984C138.555 26.2907 138.368 25.4853 138.368 24.568ZM150.489 21.512C150.777 21.0427 151.15 20.6747 151.609 20.408C152.078 20.1413 152.612 20.008 153.209 20.008V22.36H152.617C151.913 22.36 151.38 22.5253 151.017 22.856C150.665 23.1867 150.489 23.7627 150.489 24.584V29H148.249V20.136H150.489V21.512ZM155.534 19.08C155.139 19.08 154.808 18.9573 154.542 18.712C154.286 18.456 154.158 18.1413 154.158 17.768C154.158 17.3947 154.286 17.0853 154.542 16.84C154.808 16.584 155.139 16.456 155.534 16.456C155.928 16.456 156.254 16.584 156.51 16.84C156.776 17.0853 156.91 17.3947 156.91 17.768C156.91 18.1413 156.776 18.456 156.51 18.712C156.254 18.9573 155.928 19.08 155.534 19.08ZM156.638 20.136V29H154.398V20.136H156.638ZM160.771 21.416C161.059 21.0107 161.454 20.6747 161.955 20.408C162.467 20.1307 163.048 19.992 163.699 19.992C164.456 19.992 165.139 20.1787 165.747 20.552C166.366 20.9253 166.851 21.4587 167.203 22.152C167.566 22.8347 167.747 23.6293 167.747 24.536C167.747 25.4427 167.566 26.248 167.203 26.952C166.851 27.6453 166.366 28.184 165.747 28.568C165.139 28.952 164.456 29.144 163.699 29.144C163.048 29.144 162.472 29.0107 161.971 28.744C161.48 28.4773 161.08 28.1413 160.771 27.736V33.224H158.531V20.136H160.771V21.416ZM165.459 24.536C165.459 24.0027 165.347 23.544 165.123 23.16C164.91 22.7653 164.622 22.4667 164.259 22.264C163.907 22.0613 163.523 21.96 163.107 21.96C162.702 21.96 162.318 22.0667 161.955 22.28C161.603 22.4827 161.315 22.7813 161.091 23.176C160.878 23.5707 160.771 24.0347 160.771 24.568C160.771 25.1013 160.878 25.5653 161.091 25.96C161.315 26.3547 161.603 26.6587 161.955 26.872C162.318 27.0747 162.702 27.176 163.107 27.176C163.523 27.176 163.907 27.0693 164.259 26.856C164.622 26.6427 164.91 26.3387 165.123 25.944C165.347 25.5493 165.459 25.08 165.459 24.536ZM171.663 21.976V26.264C171.663 26.5627 171.732 26.7813 171.871 26.92C172.02 27.048 172.265 27.112 172.607 27.112H173.647V29H172.239C170.351 29 169.407 28.0827 169.407 26.248V21.976H168.351V20.136H169.407V17.944H171.663V20.136H173.647V21.976H171.663ZM176.074 19.08C175.679 19.08 175.348 18.9573 175.082 18.712C174.826 18.456 174.698 18.1413 174.698 17.768C174.698 17.3947 174.826 17.0853 175.082 16.84C175.348 16.584 175.679 16.456 176.074 16.456C176.468 16.456 176.794 16.584 177.05 16.84C177.316 17.0853 177.45 17.3947 177.45 17.768C177.45 18.1413 177.316 18.456 177.05 18.712C176.794 18.9573 176.468 19.08 176.074 19.08ZM177.178 20.136V29H174.938V20.136H177.178ZM183.007 29.144C182.154 29.144 181.386 28.9573 180.703 28.584C180.02 28.2 179.482 27.6613 179.087 26.968C178.703 26.2747 178.511 25.4747 178.511 24.568C178.511 23.6613 178.708 22.8613 179.103 22.168C179.508 21.4747 180.058 20.9413 180.751 20.568C181.444 20.184 182.218 19.992 183.071 19.992C183.924 19.992 184.698 20.184 185.391 20.568C186.084 20.9413 186.628 21.4747 187.023 22.168C187.428 22.8613 187.631 23.6613 187.631 24.568C187.631 25.4747 187.423 26.2747 187.007 26.968C186.602 27.6613 186.047 28.2 185.343 28.584C184.65 28.9573 183.871 29.144 183.007 29.144ZM183.007 27.192C183.412 27.192 183.791 27.096 184.143 26.904C184.506 26.7013 184.794 26.4027 185.007 26.008C185.22 25.6133 185.327 25.1333 185.327 24.568C185.327 23.7253 185.103 23.08 184.655 22.632C184.218 22.1733 183.679 21.944 183.039 21.944C182.399 21.944 181.86 22.1733 181.423 22.632C180.996 23.08 180.783 23.7253 180.783 24.568C180.783 25.4107 180.991 26.0613 181.407 26.52C181.834 26.968 182.367 27.192 183.007 27.192ZM193.866 20.008C194.922 20.008 195.775 20.344 196.426 21.016C197.077 21.6773 197.402 22.6053 197.402 23.8V29H195.162V24.104C195.162 23.4 194.986 22.8613 194.634 22.488C194.282 22.104 193.802 21.912 193.194 21.912C192.575 21.912 192.085 22.104 191.722 22.488C191.37 22.8613 191.194 23.4 191.194 24.104V29H188.954V20.136H191.194V21.24C191.493 20.856 191.871 20.5573 192.33 20.344C192.799 20.12 193.311 20.008 193.866 20.008ZM206.609 17.832C207.782 17.832 208.811 18.0613 209.697 18.52C210.593 18.9787 211.281 19.6347 211.761 20.488C212.251 21.3307 212.497 22.312 212.497 23.432C212.497 24.552 212.251 25.5333 211.761 26.376C211.281 27.208 210.593 27.8533 209.697 28.312C208.811 28.7707 207.782 29 206.609 29H202.705V17.832H206.609ZM206.529 27.096C207.702 27.096 208.609 26.776 209.249 26.136C209.889 25.496 210.209 24.5947 210.209 23.432C210.209 22.2693 209.889 21.3627 209.249 20.712C208.609 20.0507 207.702 19.72 206.529 19.72H204.945V27.096H206.529ZM222.093 24.376C222.093 24.696 222.072 24.984 222.029 25.24H215.549C215.603 25.88 215.827 26.3813 216.221 26.744C216.616 27.1067 217.101 27.288 217.677 27.288C218.509 27.288 219.101 26.9307 219.453 26.216H221.869C221.613 27.0693 221.123 27.7733 220.397 28.328C219.672 28.872 218.781 29.144 217.725 29.144C216.872 29.144 216.104 28.9573 215.421 28.584C214.749 28.2 214.221 27.6613 213.837 26.968C213.464 26.2747 213.277 25.4747 213.277 24.568C213.277 23.6507 213.464 22.8453 213.837 22.152C214.211 21.4587 214.733 20.9253 215.405 20.552C216.077 20.1787 216.851 19.992 217.725 19.992C218.568 19.992 219.32 20.1733 219.981 20.536C220.653 20.8987 221.171 21.416 221.533 22.088C221.907 22.7493 222.093 23.512 222.093 24.376ZM219.773 23.736C219.763 23.16 219.555 22.7013 219.149 22.36C218.744 22.008 218.248 21.832 217.661 21.832C217.107 21.832 216.637 22.0027 216.253 22.344C215.88 22.6747 215.651 23.1387 215.565 23.736H219.773ZM226.8 29.144C226.075 29.144 225.424 29.016 224.848 28.76C224.272 28.4933 223.814 28.136 223.472 27.688C223.142 27.24 222.96 26.744 222.928 26.2H225.184C225.227 26.5413 225.392 26.824 225.68 27.048C225.979 27.272 226.347 27.384 226.784 27.384C227.211 27.384 227.542 27.2987 227.776 27.128C228.022 26.9573 228.144 26.7387 228.144 26.472C228.144 26.184 227.995 25.9707 227.696 25.832C227.408 25.6827 226.944 25.5227 226.304 25.352C225.643 25.192 225.099 25.0267 224.672 24.856C224.256 24.6853 223.894 24.424 223.584 24.072C223.286 23.72 223.136 23.2453 223.136 22.648C223.136 22.1573 223.275 21.7093 223.552 21.304C223.84 20.8987 224.246 20.5787 224.768 20.344C225.302 20.1093 225.926 19.992 226.64 19.992C227.696 19.992 228.539 20.2587 229.168 20.792C229.798 21.3147 230.144 22.024 230.208 22.92H228.064C228.032 22.568 227.883 22.2907 227.616 22.088C227.36 21.8747 227.014 21.768 226.576 21.768C226.171 21.768 225.856 21.8427 225.632 21.992C225.419 22.1413 225.312 22.3493 225.312 22.616C225.312 22.9147 225.462 23.144 225.76 23.304C226.059 23.4533 226.523 23.608 227.152 23.768C227.792 23.928 228.32 24.0933 228.736 24.264C229.152 24.4347 229.51 24.7013 229.808 25.064C230.118 25.416 230.278 25.8853 230.288 26.472C230.288 26.984 230.144 27.4427 229.856 27.848C229.579 28.2533 229.174 28.5733 228.64 28.808C228.118 29.032 227.504 29.144 226.8 29.144ZM232.943 19.08C232.548 19.08 232.218 18.9573 231.951 18.712C231.695 18.456 231.567 18.1413 231.567 17.768C231.567 17.3947 231.695 17.0853 231.951 16.84C232.218 16.584 232.548 16.456 232.943 16.456C233.338 16.456 233.663 16.584 233.919 16.84C234.186 17.0853 234.319 17.3947 234.319 17.768C234.319 18.1413 234.186 18.456 233.919 18.712C233.663 18.9573 233.338 19.08 232.943 19.08ZM234.047 20.136V29H231.807V20.136H234.047ZM239.412 19.992C240.074 19.992 240.655 20.1253 241.156 20.392C241.658 20.648 242.052 20.984 242.34 21.4V20.136H244.596V29.064C244.596 29.8853 244.431 30.616 244.1 31.256C243.77 31.9067 243.274 32.4187 242.612 32.792C241.951 33.176 241.151 33.368 240.212 33.368C238.954 33.368 237.919 33.0747 237.108 32.488C236.308 31.9013 235.855 31.1013 235.748 30.088H237.972C238.09 30.4933 238.34 30.8133 238.724 31.048C239.119 31.2933 239.594 31.416 240.148 31.416C240.799 31.416 241.327 31.2187 241.732 30.824C242.138 30.44 242.34 29.8533 242.34 29.064V27.688C242.052 28.104 241.652 28.4507 241.14 28.728C240.639 29.0053 240.063 29.144 239.412 29.144C238.666 29.144 237.983 28.952 237.364 28.568C236.746 28.184 236.255 27.6453 235.892 26.952C235.54 26.248 235.364 25.4427 235.364 24.536C235.364 23.64 235.54 22.8453 235.892 22.152C236.255 21.4587 236.74 20.9253 237.348 20.552C237.967 20.1787 238.655 19.992 239.412 19.992ZM242.34 24.568C242.34 24.024 242.234 23.56 242.02 23.176C241.807 22.7813 241.519 22.4827 241.156 22.28C240.794 22.0667 240.404 21.96 239.988 21.96C239.572 21.96 239.188 22.0613 238.836 22.264C238.484 22.4667 238.196 22.7653 237.972 23.16C237.759 23.544 237.652 24.0027 237.652 24.536C237.652 25.0693 237.759 25.5387 237.972 25.944C238.196 26.3387 238.484 26.6427 238.836 26.856C239.199 27.0693 239.583 27.176 239.988 27.176C240.404 27.176 240.794 27.0747 241.156 26.872C241.519 26.6587 241.807 26.36 242.02 25.976C242.234 25.5813 242.34 25.112 242.34 24.568ZM251.376 20.008C252.432 20.008 253.285 20.344 253.936 21.016C254.587 21.6773 254.912 22.6053 254.912 23.8V29H252.672V24.104C252.672 23.4 252.496 22.8613 252.144 22.488C251.792 22.104 251.312 21.912 250.704 21.912C250.085 21.912 249.595 22.104 249.232 22.488C248.88 22.8613 248.704 23.4 248.704 24.104V29H246.464V20.136H248.704V21.24C249.003 20.856 249.381 20.5573 249.84 20.344C250.309 20.12 250.821 20.008 251.376 20.008Z" fill="white"/>
</g>
<g id="Group 8">
<path id="Vector" d="M289.556 23.4999C289.556 24.4818 288.76 25.2777 287.778 25.2777C286.796 25.2777 286 24.4818 286 23.4999C286 22.5181 286.796 21.7222 287.778 21.7222C288.76 21.7222 289.556 22.5181 289.556 23.4999Z" fill="white"/>
<path id="Vector_2" d="M295.778 23.4999C295.778 24.4818 294.982 25.2777 294 25.2777C293.019 25.2777 292.223 24.4818 292.223 23.4999C292.223 22.5181 293.019 21.7222 294 21.7222C294.982 21.7222 295.778 22.5181 295.778 23.4999Z" fill="white"/>
<path id="Vector_3" d="M302 23.4999C302 24.4818 301.204 25.2777 300.222 25.2777C299.24 25.2777 298.445 24.4818 298.445 23.4999C298.445 22.5181 299.24 21.7222 300.222 21.7222C301.204 21.7222 302 22.5181 302 23.4999Z" fill="white"/>
</g>
</g>
<g id="Elements">
<g clip-path="url(#clip0_851_581)">
<rect x="6" y="47" width="308" height="273.486" rx="16" fill="#252525"/>
<g id="Ellipse 3077" filter="url(#filter2_fn_851_581)">
<ellipse cx="157.425" cy="59.0751" rx="103.472" ry="48.2037" transform="rotate(-44.7437 157.425 59.0751)" fill="url(#paint0_radial_851_581)"/>
</g>
<g id="Group 15">
<path id="Union" d="M300 60.4863H299.615V99H300V100.486H299.615V139H300V140.486H299.615V179H300V180.486H299.615V219H300V220.486H299.615V259H300V260.486H18V259H18.1289V220.486H18V219H18.1289V180.486H18V179H18.1289V140.486H18V139H18.1289V100.486H18V99H18.1289V60.4863H18V59H300V60.4863ZM19.6152 220.486V259H58.1289V220.486H19.6152ZM59.6152 220.486V259H98.1289V220.486H59.6152ZM99.6152 220.486V259H138.129V220.486H99.6152ZM139.615 220.486V259H178.129V220.486H139.615ZM179.615 220.486V259H218.129V220.486H179.615ZM219.615 220.486V259H258.129V220.486H219.615ZM259.615 220.486V259H298.129V220.486H259.615ZM19.6152 180.486V219H58.1289V180.486H19.6152ZM59.6152 180.486V219H98.1289V180.486H59.6152ZM99.6152 180.486V219H138.129V180.486H99.6152ZM139.615 180.486V219H178.129V180.486H139.615ZM179.615 180.486V219H218.129V180.486H179.615ZM219.615 180.486V219H258.129V180.486H219.615ZM259.615 180.486V219H298.129V180.486H259.615ZM19.6152 140.486V179H58.1289V140.486H19.6152ZM59.6152 140.486V179H98.1289V140.486H59.6152ZM99.6152 140.486V179H138.129V140.486H99.6152ZM139.615 140.486V179H178.129V140.486H139.615ZM179.615 140.486V179H218.129V140.486H179.615ZM219.615 140.486V179H258.129V140.486H219.615ZM259.615 140.486V179H298.129V140.486H259.615ZM19.6152 100.486V139H58.1289V100.486H19.6152ZM59.6152 100.486V139H98.1289V100.486H59.6152ZM99.6152 100.486V139H138.129V100.486H99.6152ZM139.615 100.486V139H178.129V100.486H139.615ZM179.615 100.486V139H218.129V100.486H179.615ZM219.615 100.486V139H258.129V100.486H219.615ZM259.615 100.486V139H298.129V100.486H259.615ZM19.6152 60.4863V99H58.1289V60.4863H19.6152ZM59.6152 60.4863V99H98.1289V60.4863H59.6152ZM99.6152 60.4863V99H138.129V60.4863H99.6152ZM139.615 60.4863V99H178.129V60.4863H139.615ZM179.615 60.4863V99H218.129V60.4863H179.615ZM219.615 60.4863V99H258.129V60.4863H219.615ZM259.615 60.4863V99H298.129V60.4863H259.615Z" fill="url(#paint1_radial_851_581)"/>
<path id="Vector 374" d="M29 84.5855C29 84.5855 97.8953 79.1945 120.684 101.129C143 122.607 131.057 153.454 157.565 174.687C187.116 198.357 232.342 181.226 262.024 204.834C275.262 215.362 289 234.63 289 234.63" stroke="#FE0101" stroke-width="2.29075" stroke-linecap="round"/>
<path id="Vector 375" d="M29 126H289" stroke="#848484" stroke-width="2" stroke-linecap="round"/>
</g>
<g id="Frame 116">
<path id="Discount Chaser Churn" d="M21.756 274.11C22.636 274.11 23.408 274.282 24.072 274.626C24.744 274.97 25.26 275.462 25.62 276.102C25.988 276.734 26.172 277.47 26.172 278.31C26.172 279.15 25.988 279.886 25.62 280.518C25.26 281.142 24.744 281.626 24.072 281.97C23.408 282.314 22.636 282.486 21.756 282.486H18.828V274.11H21.756ZM21.696 281.058C22.576 281.058 23.256 280.818 23.736 280.338C24.216 279.858 24.456 279.182 24.456 278.31C24.456 277.438 24.216 276.758 23.736 276.27C23.256 275.774 22.576 275.526 21.696 275.526H20.508V281.058H21.696ZM28.2816 275.046C27.9856 275.046 27.7376 274.954 27.5376 274.77C27.3456 274.578 27.2496 274.342 27.2496 274.062C27.2496 273.782 27.3456 273.55 27.5376 273.366C27.7376 273.174 27.9856 273.078 28.2816 273.078C28.5776 273.078 28.8216 273.174 29.0136 273.366C29.2136 273.55 29.3136 273.782 29.3136 274.062C29.3136 274.342 29.2136 274.578 29.0136 274.77C28.8216 274.954 28.5776 275.046 28.2816 275.046ZM29.1096 275.838V282.486H27.4296V275.838H29.1096ZM33.3134 282.594C32.7694 282.594 32.2814 282.498 31.8494 282.306C31.4174 282.106 31.0734 281.838 30.8174 281.502C30.5694 281.166 30.4334 280.794 30.4094 280.386H32.1014C32.1334 280.642 32.2574 280.854 32.4734 281.022C32.6974 281.19 32.9734 281.274 33.3014 281.274C33.6214 281.274 33.8694 281.21 34.0454 281.082C34.2294 280.954 34.3214 280.79 34.3214 280.59C34.3214 280.374 34.2094 280.214 33.9854 280.11C33.7694 279.998 33.4214 279.878 32.9414 279.75C32.4454 279.63 32.0374 279.506 31.7174 279.378C31.4054 279.25 31.1334 279.054 30.9014 278.79C30.6774 278.526 30.5654 278.17 30.5654 277.722C30.5654 277.354 30.6694 277.018 30.8774 276.714C31.0934 276.41 31.3974 276.17 31.7894 275.994C32.1894 275.818 32.6574 275.73 33.1934 275.73C33.9854 275.73 34.6174 275.93 35.0894 276.33C35.5614 276.722 35.8214 277.254 35.8694 277.926H34.2614C34.2374 277.662 34.1254 277.454 33.9254 277.302C33.7334 277.142 33.4734 277.062 33.1454 277.062C32.8414 277.062 32.6054 277.118 32.4374 277.23C32.2774 277.342 32.1974 277.498 32.1974 277.698C32.1974 277.922 32.3094 278.094 32.5334 278.214C32.7574 278.326 33.1054 278.442 33.5774 278.562C34.0574 278.682 34.4534 278.806 34.7654 278.934C35.0774 279.062 35.3454 279.262 35.5694 279.534C35.8014 279.798 35.9214 280.15 35.9294 280.59C35.9294 280.974 35.8214 281.318 35.6054 281.622C35.3974 281.926 35.0934 282.166 34.6934 282.342C34.3014 282.51 33.8414 282.594 33.3134 282.594ZM36.8765 279.162C36.8765 278.474 37.0165 277.874 37.2965 277.362C37.5765 276.842 37.9645 276.442 38.4605 276.162C38.9565 275.874 39.5245 275.73 40.1645 275.73C40.9885 275.73 41.6685 275.938 42.2045 276.354C42.7485 276.762 43.1125 277.338 43.2965 278.082H41.4845C41.3885 277.794 41.2245 277.57 40.9925 277.41C40.7685 277.242 40.4885 277.158 40.1525 277.158C39.6725 277.158 39.2925 277.334 39.0125 277.686C38.7325 278.03 38.5925 278.522 38.5925 279.162C38.5925 279.794 38.7325 280.286 39.0125 280.638C39.2925 280.982 39.6725 281.154 40.1525 281.154C40.8325 281.154 41.2765 280.85 41.4845 280.242H43.2965C43.1125 280.962 42.7485 281.534 42.2045 281.958C41.6605 282.382 40.9805 282.594 40.1645 282.594C39.5245 282.594 38.9565 282.454 38.4605 282.174C37.9645 281.886 37.5765 281.486 37.2965 280.974C37.0165 280.454 36.8765 279.85 36.8765 279.162ZM47.4792 282.594C46.8392 282.594 46.2632 282.454 45.7512 282.174C45.2392 281.886 44.8352 281.482 44.5392 280.962C44.2512 280.442 44.1072 279.842 44.1072 279.162C44.1072 278.482 44.2552 277.882 44.5512 277.362C44.8552 276.842 45.2672 276.442 45.7872 276.162C46.3072 275.874 46.8872 275.73 47.5272 275.73C48.1672 275.73 48.7472 275.874 49.2672 276.162C49.7872 276.442 50.1952 276.842 50.4912 277.362C50.7952 277.882 50.9472 278.482 50.9472 279.162C50.9472 279.842 50.7912 280.442 50.4792 280.962C50.1752 281.482 49.7592 281.886 49.2312 282.174C48.7112 282.454 48.1272 282.594 47.4792 282.594ZM47.4792 281.13C47.7832 281.13 48.0672 281.058 48.3312 280.914C48.6032 280.762 48.8192 280.538 48.9792 280.242C49.1392 279.946 49.2192 279.586 49.2192 279.162C49.2192 278.53 49.0512 278.046 48.7152 277.71C48.3872 277.366 47.9832 277.194 47.5032 277.194C47.0232 277.194 46.6192 277.366 46.2912 277.71C45.9712 278.046 45.8112 278.53 45.8112 279.162C45.8112 279.794 45.9672 280.282 46.2792 280.626C46.5992 280.962 46.9992 281.13 47.4792 281.13ZM58.4556 275.838V282.486H56.7636V281.646C56.5476 281.934 56.2636 282.162 55.9116 282.33C55.5676 282.49 55.1916 282.57 54.7836 282.57C54.2636 282.57 53.8036 282.462 53.4036 282.246C53.0036 282.022 52.6876 281.698 52.4556 281.274C52.2316 280.842 52.1196 280.33 52.1196 279.738V275.838H53.7996V279.498C53.7996 280.026 53.9316 280.434 54.1956 280.722C54.4596 281.002 54.8196 281.142 55.2756 281.142C55.7396 281.142 56.1036 281.002 56.3676 280.722C56.6316 280.434 56.7636 280.026 56.7636 279.498V275.838H58.4556ZM63.7972 275.742C64.5892 275.742 65.2292 275.994 65.7172 276.498C66.2052 276.994 66.4492 277.69 66.4492 278.586V282.486H64.7692V278.814C64.7692 278.286 64.6372 277.882 64.3732 277.602C64.1092 277.314 63.7492 277.17 63.2932 277.17C62.8292 277.17 62.4612 277.314 62.1892 277.602C61.9252 277.882 61.7932 278.286 61.7932 278.814V282.486H60.1132V275.838H61.7932V276.666C62.0172 276.378 62.3012 276.154 62.6452 275.994C62.9972 275.826 63.3812 275.742 63.7972 275.742ZM70.0028 277.218V280.434C70.0028 280.658 70.0548 280.822 70.1588 280.926C70.2708 281.022 70.4548 281.07 70.7108 281.07H71.4908V282.486H70.4348C69.0188 282.486 68.3108 281.798 68.3108 280.422V277.218H67.5188V275.838H68.3108V274.194H70.0028V275.838H71.4908V277.218H70.0028ZM75.1505 278.286C75.1505 277.462 75.3345 276.726 75.7025 276.078C76.0785 275.422 76.5865 274.914 77.2265 274.554C77.8745 274.186 78.5985 274.002 79.3985 274.002C80.3345 274.002 81.1545 274.242 81.8585 274.722C82.5625 275.202 83.0545 275.866 83.3345 276.714H81.4025C81.2105 276.314 80.9385 276.014 80.5865 275.814C80.2425 275.614 79.8425 275.514 79.3865 275.514C78.8985 275.514 78.4625 275.63 78.0785 275.862C77.7025 276.086 77.4065 276.406 77.1905 276.822C76.9825 277.238 76.8785 277.726 76.8785 278.286C76.8785 278.838 76.9825 279.326 77.1905 279.75C77.4065 280.166 77.7025 280.49 78.0785 280.722C78.4625 280.946 78.8985 281.058 79.3865 281.058C79.8425 281.058 80.2425 280.958 80.5865 280.758C80.9385 280.55 81.2105 280.246 81.4025 279.846H83.3345C83.0545 280.702 82.5625 281.37 81.8585 281.85C81.1625 282.322 80.3425 282.558 79.3985 282.558C78.5985 282.558 77.8745 282.378 77.2265 282.018C76.5865 281.65 76.0785 281.142 75.7025 280.494C75.3345 279.846 75.1505 279.11 75.1505 278.286ZM88.5134 275.742C89.0174 275.742 89.4654 275.854 89.8574 276.078C90.2494 276.294 90.5534 276.618 90.7694 277.05C90.9934 277.474 91.1054 277.986 91.1054 278.586V282.486H89.4254V278.814C89.4254 278.286 89.2934 277.882 89.0294 277.602C88.7654 277.314 88.4054 277.17 87.9494 277.17C87.4854 277.17 87.1174 277.314 86.8454 277.602C86.5814 277.882 86.4494 278.286 86.4494 278.814V282.486H84.7694V273.606H86.4494V276.666C86.6654 276.378 86.9534 276.154 87.3134 275.994C87.6734 275.826 88.0734 275.742 88.5134 275.742ZM92.271 279.138C92.271 278.466 92.403 277.87 92.667 277.35C92.939 276.83 93.303 276.43 93.759 276.15C94.223 275.87 94.739 275.73 95.307 275.73C95.803 275.73 96.235 275.83 96.603 276.03C96.979 276.23 97.279 276.482 97.503 276.786V275.838H99.195V282.486H97.503V281.514C97.287 281.826 96.987 282.086 96.603 282.294C96.227 282.494 95.791 282.594 95.295 282.594C94.735 282.594 94.223 282.45 93.759 282.162C93.303 281.874 92.939 281.47 92.667 280.95C92.403 280.422 92.271 279.818 92.271 279.138ZM97.503 279.162C97.503 278.754 97.423 278.406 97.263 278.118C97.103 277.822 96.887 277.598 96.615 277.446C96.343 277.286 96.051 277.206 95.739 277.206C95.427 277.206 95.139 277.282 94.875 277.434C94.611 277.586 94.395 277.81 94.227 278.106C94.067 278.394 93.987 278.738 93.987 279.138C93.987 279.538 94.067 279.89 94.227 280.194C94.395 280.49 94.611 280.718 94.875 280.878C95.147 281.038 95.435 281.118 95.739 281.118C96.051 281.118 96.343 281.042 96.615 280.89C96.887 280.73 97.103 280.506 97.263 280.218C97.423 279.922 97.503 279.57 97.503 279.162ZM103.38 282.594C102.836 282.594 102.348 282.498 101.916 282.306C101.484 282.106 101.14 281.838 100.884 281.502C100.636 281.166 100.5 280.794 100.476 280.386H102.168C102.2 280.642 102.324 280.854 102.54 281.022C102.764 281.19 103.04 281.274 103.368 281.274C103.688 281.274 103.936 281.21 104.112 281.082C104.296 280.954 104.388 280.79 104.388 280.59C104.388 280.374 104.276 280.214 104.052 280.11C103.836 279.998 103.488 279.878 103.008 279.75C102.512 279.63 102.104 279.506 101.784 279.378C101.472 279.25 101.2 279.054 100.968 278.79C100.744 278.526 100.632 278.17 100.632 277.722C100.632 277.354 100.736 277.018 100.944 276.714C101.16 276.41 101.464 276.17 101.856 275.994C102.256 275.818 102.724 275.73 103.26 275.73C104.052 275.73 104.684 275.93 105.156 276.33C105.628 276.722 105.888 277.254 105.936 277.926H104.328C104.304 277.662 104.192 277.454 103.992 277.302C103.8 277.142 103.54 277.062 103.212 277.062C102.908 277.062 102.672 277.118 102.504 277.23C102.344 277.342 102.264 277.498 102.264 277.698C102.264 277.922 102.376 278.094 102.6 278.214C102.824 278.326 103.172 278.442 103.644 278.562C104.124 278.682 104.52 278.806 104.832 278.934C105.144 279.062 105.412 279.262 105.636 279.534C105.868 279.798 105.988 280.15 105.996 280.59C105.996 280.974 105.888 281.318 105.672 281.622C105.464 281.926 105.16 282.166 104.76 282.342C104.368 282.51 103.908 282.594 103.38 282.594ZM113.555 279.018C113.555 279.258 113.539 279.474 113.507 279.666H108.647C108.687 280.146 108.855 280.522 109.151 280.794C109.447 281.066 109.811 281.202 110.243 281.202C110.867 281.202 111.311 280.934 111.575 280.398H113.387C113.195 281.038 112.827 281.566 112.283 281.982C111.739 282.39 111.071 282.594 110.279 282.594C109.639 282.594 109.063 282.454 108.551 282.174C108.047 281.886 107.651 281.482 107.363 280.962C107.083 280.442 106.943 279.842 106.943 279.162C106.943 278.474 107.083 277.87 107.363 277.35C107.643 276.83 108.035 276.43 108.539 276.15C109.043 275.87 109.623 275.73 110.279 275.73C110.911 275.73 111.475 275.866 111.971 276.138C112.475 276.41 112.863 276.798 113.135 277.302C113.415 277.798 113.555 278.37 113.555 279.018ZM111.815 278.538C111.807 278.106 111.651 277.762 111.347 277.506C111.043 277.242 110.671 277.11 110.231 277.11C109.815 277.11 109.463 277.238 109.175 277.494C108.895 277.742 108.723 278.09 108.659 278.538H111.815ZM116.461 276.87C116.677 276.518 116.957 276.242 117.301 276.042C117.653 275.842 118.053 275.742 118.501 275.742V277.506H118.057C117.529 277.506 117.129 277.63 116.857 277.878C116.593 278.126 116.461 278.558 116.461 279.174V282.486H114.781V275.838H116.461V276.87ZM122.084 278.286C122.084 277.462 122.268 276.726 122.636 276.078C123.012 275.422 123.52 274.914 124.16 274.554C124.808 274.186 125.532 274.002 126.332 274.002C127.268 274.002 128.088 274.242 128.792 274.722C129.496 275.202 129.988 275.866 130.268 276.714H128.336C128.144 276.314 127.872 276.014 127.52 275.814C127.176 275.614 126.776 275.514 126.32 275.514C125.832 275.514 125.396 275.63 125.012 275.862C124.636 276.086 124.34 276.406 124.124 276.822C123.916 277.238 123.812 277.726 123.812 278.286C123.812 278.838 123.916 279.326 124.124 279.75C124.34 280.166 124.636 280.49 125.012 280.722C125.396 280.946 125.832 281.058 126.32 281.058C126.776 281.058 127.176 280.958 127.52 280.758C127.872 280.55 128.144 280.246 128.336 279.846H130.268C129.988 280.702 129.496 281.37 128.792 281.85C128.096 282.322 127.276 282.558 126.332 282.558C125.532 282.558 124.808 282.378 124.16 282.018C123.52 281.65 123.012 281.142 122.636 280.494C122.268 279.846 122.084 279.11 122.084 278.286ZM135.447 275.742C135.951 275.742 136.399 275.854 136.791 276.078C137.183 276.294 137.487 276.618 137.703 277.05C137.927 277.474 138.039 277.986 138.039 278.586V282.486H136.359V278.814C136.359 278.286 136.227 277.882 135.963 277.602C135.699 277.314 135.339 277.17 134.883 277.17C134.419 277.17 134.051 277.314 133.779 277.602C133.515 277.882 133.383 278.286 133.383 278.814V282.486H131.703V273.606H133.383V276.666C133.599 276.378 133.887 276.154 134.247 275.994C134.607 275.826 135.007 275.742 135.447 275.742ZM145.913 275.838V282.486H144.221V281.646C144.005 281.934 143.721 282.162 143.369 282.33C143.025 282.49 142.649 282.57 142.241 282.57C141.721 282.57 141.261 282.462 140.861 282.246C140.461 282.022 140.145 281.698 139.913 281.274C139.689 280.842 139.577 280.33 139.577 279.738V275.838H141.257V279.498C141.257 280.026 141.389 280.434 141.653 280.722C141.917 281.002 142.277 281.142 142.733 281.142C143.197 281.142 143.561 281.002 143.825 280.722C144.089 280.434 144.221 280.026 144.221 279.498V275.838H145.913ZM149.25 276.87C149.466 276.518 149.746 276.242 150.09 276.042C150.442 275.842 150.842 275.742 151.29 275.742V277.506H150.846C150.318 277.506 149.918 277.63 149.646 277.878C149.382 278.126 149.25 278.558 149.25 279.174V282.486H147.57V275.838H149.25V276.87ZM156.106 275.742C156.898 275.742 157.538 275.994 158.026 276.498C158.514 276.994 158.758 277.69 158.758 278.586V282.486H157.078V278.814C157.078 278.286 156.946 277.882 156.682 277.602C156.418 277.314 156.058 277.17 155.602 277.17C155.138 277.17 154.77 277.314 154.498 277.602C154.234 277.882 154.102 278.286 154.102 278.814V282.486H152.422V275.838H154.102V276.666C154.326 276.378 154.61 276.154 154.954 275.994C155.306 275.826 155.69 275.742 156.106 275.742Z" fill="white"/>
<rect id="Rectangle 50" x="290" y="272.486" width="12" height="12" rx="2" fill="#FE0101"/>
</g>
<g id="Frame 117">
<path id="Identity Protocol Retention" d="M20.508 298.11V306.486H18.828V298.11H20.508ZM21.7358 303.138C21.7358 302.466 21.8678 301.87 22.1318 301.35C22.4038 300.83 22.7718 300.43 23.2358 300.15C23.6998 299.87 24.2158 299.73 24.7838 299.73C25.2158 299.73 25.6278 299.826 26.0198 300.018C26.4118 300.202 26.7238 300.45 26.9558 300.762V297.606H28.6598V306.486H26.9558V305.502C26.7478 305.83 26.4558 306.094 26.0798 306.294C25.7038 306.494 25.2678 306.594 24.7718 306.594C24.2118 306.594 23.6998 306.45 23.2358 306.162C22.7718 305.874 22.4038 305.47 22.1318 304.95C21.8678 304.422 21.7358 303.818 21.7358 303.138ZM26.9678 303.162C26.9678 302.754 26.8878 302.406 26.7278 302.118C26.5678 301.822 26.3518 301.598 26.0798 301.446C25.8078 301.286 25.5158 301.206 25.2038 301.206C24.8918 301.206 24.6038 301.282 24.3398 301.434C24.0758 301.586 23.8598 301.81 23.6918 302.106C23.5318 302.394 23.4518 302.738 23.4518 303.138C23.4518 303.538 23.5318 303.89 23.6918 304.194C23.8598 304.49 24.0758 304.718 24.3398 304.878C24.6118 305.038 24.8998 305.118 25.2038 305.118C25.5158 305.118 25.8078 305.042 26.0798 304.89C26.3518 304.73 26.5678 304.506 26.7278 304.218C26.8878 303.922 26.9678 303.57 26.9678 303.162ZM36.4807 303.018C36.4807 303.258 36.4647 303.474 36.4327 303.666H31.5727C31.6127 304.146 31.7807 304.522 32.0767 304.794C32.3727 305.066 32.7367 305.202 33.1687 305.202C33.7927 305.202 34.2367 304.934 34.5007 304.398H36.3127C36.1207 305.038 35.7527 305.566 35.2087 305.982C34.6647 306.39 33.9967 306.594 33.2047 306.594C32.5647 306.594 31.9887 306.454 31.4767 306.174C30.9727 305.886 30.5767 305.482 30.2887 304.962C30.0087 304.442 29.8687 303.842 29.8687 303.162C29.8687 302.474 30.0087 301.87 30.2887 301.35C30.5687 300.83 30.9607 300.43 31.4647 300.15C31.9687 299.87 32.5487 299.73 33.2047 299.73C33.8367 299.73 34.4007 299.866 34.8967 300.138C35.4007 300.41 35.7887 300.798 36.0607 301.302C36.3407 301.798 36.4807 302.37 36.4807 303.018ZM34.7407 302.538C34.7327 302.106 34.5767 301.762 34.2727 301.506C33.9687 301.242 33.5967 301.11 33.1567 301.11C32.7407 301.11 32.3887 301.238 32.1007 301.494C31.8207 301.742 31.6487 302.09 31.5847 302.538H34.7407ZM41.3909 299.742C42.1829 299.742 42.8229 299.994 43.3109 300.498C43.7989 300.994 44.0429 301.69 44.0429 302.586V306.486H42.3629V302.814C42.3629 302.286 42.2309 301.882 41.9669 301.602C41.7029 301.314 41.3429 301.17 40.8869 301.17C40.4229 301.17 40.0549 301.314 39.7829 301.602C39.5189 301.882 39.3869 302.286 39.3869 302.814V306.486H37.7069V299.838H39.3869V300.666C39.6109 300.378 39.8949 300.154 40.2389 299.994C40.5909 299.826 40.9749 299.742 41.3909 299.742ZM47.5965 301.218V304.434C47.5965 304.658 47.6485 304.822 47.7525 304.926C47.8645 305.022 48.0485 305.07 48.3045 305.07H49.0845V306.486H48.0285C46.6125 306.486 45.9045 305.798 45.9045 304.422V301.218H45.1125V299.838H45.9045V298.194H47.5965V299.838H49.0845V301.218H47.5965ZM51.1448 299.046C50.8488 299.046 50.6008 298.954 50.4008 298.77C50.2088 298.578 50.1128 298.342 50.1128 298.062C50.1128 297.782 50.2088 297.55 50.4008 297.366C50.6008 297.174 50.8488 297.078 51.1448 297.078C51.4408 297.078 51.6848 297.174 51.8768 297.366C52.0768 297.55 52.1768 297.782 52.1768 298.062C52.1768 298.342 52.0768 298.578 51.8768 298.77C51.6848 298.954 51.4408 299.046 51.1448 299.046ZM51.9728 299.838V306.486H50.2928V299.838H51.9728ZM55.5887 301.218V304.434C55.5887 304.658 55.6407 304.822 55.7447 304.926C55.8567 305.022 56.0407 305.07 56.2967 305.07H57.0767V306.486H56.0207C54.6047 306.486 53.8967 305.798 53.8967 304.422V301.218H53.1047V299.838H53.8967V298.194H55.5887V299.838H57.0767V301.218H55.5887ZM64.645 299.838L60.529 309.63H58.741L60.181 306.318L57.517 299.838H59.401L61.117 304.482L62.857 299.838H64.645ZM74.518 300.702C74.518 301.15 74.41 301.57 74.194 301.962C73.986 302.354 73.654 302.67 73.198 302.91C72.75 303.15 72.182 303.27 71.494 303.27H70.09V306.486H68.41V298.11H71.494C72.142 298.11 72.694 298.222 73.15 298.446C73.606 298.67 73.946 298.978 74.17 299.37C74.402 299.762 74.518 300.206 74.518 300.702ZM71.422 301.914C71.886 301.914 72.23 301.81 72.454 301.602C72.678 301.386 72.79 301.086 72.79 300.702C72.79 299.886 72.334 299.478 71.422 299.478H70.09V301.914H71.422ZM77.3908 300.87C77.6068 300.518 77.8868 300.242 78.2308 300.042C78.5828 299.842 78.9828 299.742 79.4308 299.742V301.506H78.9868C78.4588 301.506 78.0588 301.63 77.7868 301.878C77.5228 302.126 77.3908 302.558 77.3908 303.174V306.486H75.7108V299.838H77.3908V300.87ZM83.5144 306.594C82.8744 306.594 82.2984 306.454 81.7864 306.174C81.2744 305.886 80.8704 305.482 80.5744 304.962C80.2864 304.442 80.1424 303.842 80.1424 303.162C80.1424 302.482 80.2904 301.882 80.5864 301.362C80.8904 300.842 81.3024 300.442 81.8224 300.162C82.3424 299.874 82.9224 299.73 83.5624 299.73C84.2024 299.73 84.7824 299.874 85.3024 300.162C85.8224 300.442 86.2304 300.842 86.5264 301.362C86.8304 301.882 86.9824 302.482 86.9824 303.162C86.9824 303.842 86.8264 304.442 86.5144 304.962C86.2104 305.482 85.7944 305.886 85.2664 306.174C84.7464 306.454 84.1624 306.594 83.5144 306.594ZM83.5144 305.13C83.8184 305.13 84.1024 305.058 84.3664 304.914C84.6384 304.762 84.8544 304.538 85.0144 304.242C85.1744 303.946 85.2544 303.586 85.2544 303.162C85.2544 302.53 85.0864 302.046 84.7504 301.71C84.4224 301.366 84.0184 301.194 83.5384 301.194C83.0584 301.194 82.6544 301.366 82.3264 301.71C82.0064 302.046 81.8464 302.53 81.8464 303.162C81.8464 303.794 82.0024 304.282 82.3144 304.626C82.6344 304.962 83.0344 305.13 83.5144 305.13ZM90.1707 301.218V304.434C90.1707 304.658 90.2227 304.822 90.3267 304.926C90.4387 305.022 90.6227 305.07 90.8787 305.07H91.6587V306.486H90.6027C89.1867 306.486 88.4787 305.798 88.4787 304.422V301.218H87.6867V299.838H88.4787V298.194H90.1707V299.838H91.6587V301.218H90.1707ZM95.8191 306.594C95.1791 306.594 94.6031 306.454 94.0911 306.174C93.5791 305.886 93.1751 305.482 92.8791 304.962C92.5911 304.442 92.4471 303.842 92.4471 303.162C92.4471 302.482 92.5951 301.882 92.8911 301.362C93.1951 300.842 93.6071 300.442 94.1271 300.162C94.6471 299.874 95.2271 299.73 95.8671 299.73C96.5071 299.73 97.0871 299.874 97.6071 300.162C98.1271 300.442 98.5351 300.842 98.8311 301.362C99.1351 301.882 99.2871 302.482 99.2871 303.162C99.2871 303.842 99.1311 304.442 98.8191 304.962C98.5151 305.482 98.0991 305.886 97.5711 306.174C97.0511 306.454 96.4671 306.594 95.8191 306.594ZM95.8191 305.13C96.1231 305.13 96.4071 305.058 96.6711 304.914C96.9431 304.762 97.1591 304.538 97.3191 304.242C97.4791 303.946 97.5591 303.586 97.5591 303.162C97.5591 302.53 97.3911 302.046 97.0551 301.71C96.7271 301.366 96.3231 301.194 95.8431 301.194C95.3631 301.194 94.9591 301.366 94.6311 301.71C94.3111 302.046 94.1511 302.53 94.1511 303.162C94.1511 303.794 94.3071 304.282 94.6191 304.626C94.9391 304.962 95.3391 305.13 95.8191 305.13ZM100.087 303.162C100.087 302.474 100.227 301.874 100.507 301.362C100.787 300.842 101.175 300.442 101.671 300.162C102.167 299.874 102.735 299.73 103.375 299.73C104.199 299.73 104.879 299.938 105.415 300.354C105.959 300.762 106.323 301.338 106.507 302.082H104.695C104.599 301.794 104.435 301.57 104.203 301.41C103.979 301.242 103.699 301.158 103.363 301.158C102.883 301.158 102.503 301.334 102.223 301.686C101.943 302.03 101.803 302.522 101.803 303.162C101.803 303.794 101.943 304.286 102.223 304.638C102.503 304.982 102.883 305.154 103.363 305.154C104.043 305.154 104.487 304.85 104.695 304.242H106.507C106.323 304.962 105.959 305.534 105.415 305.958C104.871 306.382 104.191 306.594 103.375 306.594C102.735 306.594 102.167 306.454 101.671 306.174C101.175 305.886 100.787 305.486 100.507 304.974C100.227 304.454 100.087 303.85 100.087 303.162ZM110.69 306.594C110.05 306.594 109.474 306.454 108.962 306.174C108.45 305.886 108.046 305.482 107.75 304.962C107.462 304.442 107.318 303.842 107.318 303.162C107.318 302.482 107.466 301.882 107.762 301.362C108.066 300.842 108.478 300.442 108.998 300.162C109.518 299.874 110.098 299.73 110.738 299.73C111.378 299.73 111.958 299.874 112.478 300.162C112.998 300.442 113.406 300.842 113.702 301.362C114.006 301.882 114.158 302.482 114.158 303.162C114.158 303.842 114.002 304.442 113.69 304.962C113.386 305.482 112.97 305.886 112.442 306.174C111.922 306.454 111.338 306.594 110.69 306.594ZM110.69 305.13C110.994 305.13 111.278 305.058 111.542 304.914C111.814 304.762 112.03 304.538 112.19 304.242C112.35 303.946 112.43 303.586 112.43 303.162C112.43 302.53 112.262 302.046 111.926 301.71C111.598 301.366 111.194 301.194 110.714 301.194C110.234 301.194 109.83 301.366 109.502 301.71C109.182 302.046 109.022 302.53 109.022 303.162C109.022 303.794 109.178 304.282 109.49 304.626C109.81 304.962 110.21 305.13 110.69 305.13ZM117.071 297.606V306.486H115.391V297.606H117.071ZM125.91 306.486L124.062 303.222H123.27V306.486H121.59V298.11H124.734C125.382 298.11 125.934 298.226 126.39 298.458C126.846 298.682 127.186 298.99 127.41 299.382C127.642 299.766 127.758 300.198 127.758 300.678C127.758 301.23 127.598 301.73 127.278 302.178C126.958 302.618 126.482 302.922 125.85 303.09L127.854 306.486H125.91ZM123.27 301.962H124.674C125.13 301.962 125.47 301.854 125.694 301.638C125.918 301.414 126.03 301.106 126.03 300.714C126.03 300.33 125.918 300.034 125.694 299.826C125.47 299.61 125.13 299.502 124.674 299.502H123.27V301.962ZM135.457 303.018C135.457 303.258 135.441 303.474 135.409 303.666H130.549C130.589 304.146 130.757 304.522 131.053 304.794C131.349 305.066 131.713 305.202 132.145 305.202C132.769 305.202 133.213 304.934 133.477 304.398H135.289C135.097 305.038 134.729 305.566 134.185 305.982C133.641 306.39 132.973 306.594 132.181 306.594C131.541 306.594 130.965 306.454 130.453 306.174C129.949 305.886 129.553 305.482 129.265 304.962C128.985 304.442 128.845 303.842 128.845 303.162C128.845 302.474 128.985 301.87 129.265 301.35C129.545 300.83 129.937 300.43 130.441 300.15C130.945 299.87 131.525 299.73 132.181 299.73C132.813 299.73 133.377 299.866 133.873 300.138C134.377 300.41 134.765 300.798 135.037 301.302C135.317 301.798 135.457 302.37 135.457 303.018ZM133.717 302.538C133.709 302.106 133.553 301.762 133.249 301.506C132.945 301.242 132.573 301.11 132.133 301.11C131.717 301.11 131.365 301.238 131.077 301.494C130.797 301.742 130.625 302.09 130.561 302.538H133.717ZM138.639 301.218V304.434C138.639 304.658 138.691 304.822 138.795 304.926C138.907 305.022 139.091 305.07 139.347 305.07H140.127V306.486H139.071C137.655 306.486 136.947 305.798 136.947 304.422V301.218H136.155V299.838H136.947V298.194H138.639V299.838H140.127V301.218H138.639ZM147.516 303.018C147.516 303.258 147.5 303.474 147.468 303.666H142.608C142.648 304.146 142.816 304.522 143.112 304.794C143.408 305.066 143.772 305.202 144.204 305.202C144.828 305.202 145.272 304.934 145.536 304.398H147.348C147.156 305.038 146.788 305.566 146.244 305.982C145.7 306.39 145.032 306.594 144.24 306.594C143.6 306.594 143.024 306.454 142.512 306.174C142.008 305.886 141.612 305.482 141.324 304.962C141.044 304.442 140.904 303.842 140.904 303.162C140.904 302.474 141.044 301.87 141.324 301.35C141.604 300.83 141.996 300.43 142.5 300.15C143.004 299.87 143.584 299.73 144.24 299.73C144.872 299.73 145.436 299.866 145.932 300.138C146.436 300.41 146.824 300.798 147.096 301.302C147.376 301.798 147.516 302.37 147.516 303.018ZM145.776 302.538C145.768 302.106 145.612 301.762 145.308 301.506C145.004 301.242 144.632 301.11 144.192 301.11C143.776 301.11 143.424 301.238 143.136 301.494C142.856 301.742 142.684 302.09 142.62 302.538H145.776ZM152.426 299.742C153.218 299.742 153.858 299.994 154.346 300.498C154.834 300.994 155.078 301.69 155.078 302.586V306.486H153.398V302.814C153.398 302.286 153.266 301.882 153.002 301.602C152.738 301.314 152.378 301.17 151.922 301.17C151.458 301.17 151.09 301.314 150.818 301.602C150.554 301.882 150.422 302.286 150.422 302.814V306.486H148.742V299.838H150.422V300.666C150.646 300.378 150.93 300.154 151.274 299.994C151.626 299.826 152.01 299.742 152.426 299.742ZM158.632 301.218V304.434C158.632 304.658 158.684 304.822 158.788 304.926C158.9 305.022 159.084 305.07 159.34 305.07H160.12V306.486H159.064C157.648 306.486 156.94 305.798 156.94 304.422V301.218H156.148V299.838H156.94V298.194H158.632V299.838H160.12V301.218H158.632ZM162.18 299.046C161.884 299.046 161.636 298.954 161.436 298.77C161.244 298.578 161.148 298.342 161.148 298.062C161.148 297.782 161.244 297.55 161.436 297.366C161.636 297.174 161.884 297.078 162.18 297.078C162.476 297.078 162.72 297.174 162.912 297.366C163.112 297.55 163.212 297.782 163.212 298.062C163.212 298.342 163.112 298.578 162.912 298.77C162.72 298.954 162.476 299.046 162.18 299.046ZM163.008 299.838V306.486H161.328V299.838H163.008ZM167.62 306.594C166.98 306.594 166.404 306.454 165.892 306.174C165.38 305.886 164.976 305.482 164.68 304.962C164.392 304.442 164.248 303.842 164.248 303.162C164.248 302.482 164.396 301.882 164.692 301.362C164.996 300.842 165.408 300.442 165.928 300.162C166.448 299.874 167.028 299.73 167.668 299.73C168.308 299.73 168.888 299.874 169.408 300.162C169.928 300.442 170.336 300.842 170.632 301.362C170.936 301.882 171.088 302.482 171.088 303.162C171.088 303.842 170.932 304.442 170.62 304.962C170.316 305.482 169.9 305.886 169.372 306.174C168.852 306.454 168.268 306.594 167.62 306.594ZM167.62 305.13C167.924 305.13 168.208 305.058 168.472 304.914C168.744 304.762 168.96 304.538 169.12 304.242C169.28 303.946 169.36 303.586 169.36 303.162C169.36 302.53 169.192 302.046 168.856 301.71C168.528 301.366 168.124 301.194 167.644 301.194C167.164 301.194 166.76 301.366 166.432 301.71C166.112 302.046 165.952 302.53 165.952 303.162C165.952 303.794 166.108 304.282 166.42 304.626C166.74 304.962 167.14 305.13 167.62 305.13ZM176.004 299.742C176.796 299.742 177.436 299.994 177.924 300.498C178.412 300.994 178.656 301.69 178.656 302.586V306.486H176.976V302.814C176.976 302.286 176.844 301.882 176.58 301.602C176.316 301.314 175.956 301.17 175.5 301.17C175.036 301.17 174.668 301.314 174.396 301.602C174.132 301.882 174 302.286 174 302.814V306.486H172.32V299.838H174V300.666C174.224 300.378 174.508 300.154 174.852 299.994C175.204 299.826 175.588 299.742 176.004 299.742Z" fill="white"/>
<rect id="Rectangle 50_2" x="290" y="296.486" width="12" height="12" rx="2" fill="#848484"/>
</g>
</g>
<rect x="6.5" y="47.5" width="307" height="272.486" rx="15.5" stroke="url(#paint2_linear_851_581)"/>
</g>
</g>
<defs>
<filter id="filter1_f_851_581" x="14" y="14.5" width="18" height="18" filterUnits="userSpaceOnUse" color-interpolation-filters="sRGB">
<feFlood flood-opacity="0" result="BackgroundImageFix"/>
<feBlend mode="normal" in="SourceGraphic" in2="BackgroundImageFix" result="shape"/>
<feGaussianBlur stdDeviation="2" result="effect1_foregroundBlur_851_581"/>
</filter>
<filter id="filter2_fn_851_581" x="-3.54248" y="-101.427" width="321.934" height="321.005" filterUnits="userSpaceOnUse" color-interpolation-filters="sRGB">
<feFlood flood-opacity="0" result="BackgroundImageFix"/>
<feBlend mode="normal" in="SourceGraphic" in2="BackgroundImageFix" result="shape"/>
<feGaussianBlur stdDeviation="40" result="effect1_foregroundBlur_851_581"/>
<feTurbulence type="fractalNoise" baseFrequency="2 2" stitchTiles="stitch" numOctaves="3" result="noise" seed="9213" />
<feColorMatrix in="noise" type="luminanceToAlpha" result="alphaNoise" />
<feComponentTransfer in="alphaNoise" result="coloredNoise1">
<feFuncA type="discrete" tableValues="1 1 1 1 1 1 1 1 1 1 1 1 1 1 1 1 1 1 1 1 1 1 1 1 1 1 1 1 1 1 1 1 1 1 1 1 1 1 1 1 1 1 1 1 1 1 1 1 1 1 1 0 0 0 0 0 0 0 0 0 0 0 0 0 0 0 0 0 0 0 0 0 0 0 0 0 0 0 0 0 0 0 0 0 0 0 0 0 0 0 0 0 0 0 0 0 0 0 0 0 "/>
</feComponentTransfer>
<feComposite operator="in" in2="effect1_foregroundBlur_851_581" in="coloredNoise1" result="noise1Clipped" />
<feFlood flood-color="rgba(0, 0, 0, 0.2)" result="color1Flood" />
<feComposite operator="in" in2="noise1Clipped" in="color1Flood" result="color1" />
<feMerge result="effect2_noise_851_581">
<feMergeNode in="effect1_foregroundBlur_851_581" />
<feMergeNode in="color1" />
</feMerge>
</filter>
<radialGradient id="paint0_radial_851_581" cx="0" cy="0" r="1" gradientUnits="userSpaceOnUse" gradientTransform="translate(157.425 59.0751) rotate(90) scale(48.2036 125.09)">
<stop stop-color="#FE0101"/>
<stop offset="1" stop-color="#FE0101" stop-opacity="0"/>
</radialGradient>
<radialGradient id="paint1_radial_851_581" cx="0" cy="0" r="1" gradientUnits="userSpaceOnUse" gradientTransform="translate(188.5 173) rotate(157.891) scale(120.889 83.1714)">
<stop stop-color="#848484" stop-opacity="0.4"/>
<stop offset="1" stop-color="#848484" stop-opacity="0"/>
</radialGradient>
<linearGradient id="paint2_linear_851_581" x1="6" y1="47" x2="298.006" y2="30.8741" gradientUnits="userSpaceOnUse">
<stop stop-color="#848484"/>
<stop offset="1" stop-color="#848484" stop-opacity="0"/>
</linearGradient>
<clipPath id="clip0_851_581">
<rect x="6" y="47" width="308" height="273.486" rx="16" fill="white"/>
</clipPath>
</defs>
</svg>
