<svg width="32" height="32" viewBox="0 0 32 32" fill="none" xmlns="http://www.w3.org/2000/svg">
<g id="Insta Icon">
<path id="Vector" fill-rule="evenodd" clip-rule="evenodd" d="M16 24.7275C20.8199 24.7275 24.7273 20.8201 24.7273 16.0002C24.7273 11.1803 20.8199 7.27295 16 7.27295C11.18 7.27295 7.27271 11.1803 7.27271 16.0002C7.27271 20.8201 11.18 24.7275 16 24.7275ZM16 21.8184C19.2132 21.8184 21.8182 19.2135 21.8182 16.0002C21.8182 12.7869 19.2132 10.182 16 10.182C12.7867 10.182 10.1818 12.7869 10.1818 16.0002C10.1818 19.2135 12.7867 21.8184 16 21.8184Z" fill="white" fill-opacity="0.8"/>
<path id="Vector_2" d="M24.7273 5.81836C23.9239 5.81836 23.2727 6.46959 23.2727 7.2729C23.2727 8.07622 23.9239 8.72745 24.7273 8.72745C25.5306 8.72745 26.1818 8.07622 26.1818 7.2729C26.1818 6.46959 25.5306 5.81836 24.7273 5.81836Z" fill="white" fill-opacity="0.8"/>
<path id="Vector_3" fill-rule="evenodd" clip-rule="evenodd" d="M0.951215 4.76518C0 6.63204 0 9.07591 0 13.9636V18.0364C0 22.9241 0 25.368 0.951215 27.2348C1.78793 28.8769 3.12303 30.2121 4.76518 31.0487C6.63204 32 9.07591 32 13.9636 32H18.0364C22.9241 32 25.368 32 27.2348 31.0487C28.8769 30.2121 30.2121 28.8769 31.0487 27.2348C32 25.368 32 22.9241 32 18.0364V13.9636C32 9.07591 32 6.63204 31.0487 4.76518C30.2121 3.12303 28.8769 1.78793 27.2348 0.951215C25.368 0 22.9241 0 18.0364 0H13.9636C9.07591 0 6.63204 0 4.76518 0.951215C3.12303 1.78793 1.78793 3.12303 0.951215 4.76518ZM18.0364 2.90909H13.9636C11.4718 2.90909 9.77782 2.91136 8.46848 3.01833C7.19308 3.12253 6.54086 3.3114 6.08588 3.54323C4.99111 4.10105 4.10105 4.99111 3.54323 6.08588C3.3114 6.54086 3.12253 7.19308 3.01833 8.46848C2.91136 9.77782 2.90909 11.4718 2.90909 13.9636V18.0364C2.90909 20.5283 2.91136 22.2221 3.01833 23.5315C3.12253 24.807 3.3114 25.4592 3.54323 25.9142C4.10105 27.0089 4.99111 27.8989 6.08588 28.4567C6.54086 28.6886 7.19308 28.8775 8.46848 28.9817C9.77782 29.0886 11.4718 29.0909 13.9636 29.0909H18.0364C20.5283 29.0909 22.2221 29.0886 23.5315 28.9817C24.807 28.8775 25.4592 28.6886 25.9142 28.4567C27.0089 27.8989 27.8989 27.0089 28.4567 25.9142C28.6886 25.4592 28.8775 24.807 28.9817 23.5315C29.0886 22.2221 29.0909 20.5283 29.0909 18.0364V13.9636C29.0909 11.4718 29.0886 9.77782 28.9817 8.46848C28.8775 7.19308 28.6886 6.54086 28.4567 6.08588C27.8989 4.99111 27.0089 4.10105 25.9142 3.54323C25.4592 3.3114 24.807 3.12253 23.5315 3.01833C22.2221 2.91136 20.5283 2.90909 18.0364 2.90909Z" fill="white" fill-opacity="0.8"/>
</g>
</svg>
