<svg width="48" height="48" viewBox="0 0 48 48" fill="none" xmlns="http://www.w3.org/2000/svg">
<path fill-rule="evenodd" clip-rule="evenodd" d="M24.0001 37.091C31.23 37.091 37.091 31.23 37.091 24.0001C37.091 16.7702 31.23 10.9092 24.0001 10.9092C16.7702 10.9092 10.9092 16.7702 10.9092 24.0001C10.9092 31.23 16.7702 37.091 24.0001 37.091ZM24.0001 32.7274C28.8199 32.7274 32.7274 28.8199 32.7274 24.0001C32.7274 19.1801 28.8199 15.2728 24.0001 15.2728C19.1801 15.2728 15.2728 19.1801 15.2728 24.0001C15.2728 28.8199 19.1801 32.7274 24.0001 32.7274Z" fill="#F7F7F8"/>
<path d="M37.091 8.72754C35.886 8.72754 34.9092 9.70438 34.9092 10.9094C34.9092 12.1143 35.886 13.0912 37.091 13.0912C38.296 13.0912 39.2728 12.1143 39.2728 10.9094C39.2728 9.70438 38.296 8.72754 37.091 8.72754Z" fill="#F7F7F8"/>
<path fill-rule="evenodd" clip-rule="evenodd" d="M1.42682 7.14777C0 9.94807 0 13.6139 0 20.9455V27.0545C0 34.3861 0 38.052 1.42682 40.8521C2.68189 43.3154 4.68454 45.3181 7.14777 46.5731C9.94807 48 13.6139 48 20.9455 48H27.0545C34.3861 48 38.052 48 40.8521 46.5731C43.3154 45.3181 45.3181 43.3154 46.5731 40.8521C48 38.052 48 34.3861 48 27.0545V20.9455C48 13.6139 48 9.94807 46.5731 7.14777C45.3181 4.68454 43.3154 2.68189 40.8521 1.42682C38.052 0 34.3861 0 27.0545 0H20.9455C13.6139 0 9.94807 0 7.14777 1.42682C4.68454 2.68189 2.68189 4.68454 1.42682 7.14777ZM27.0545 4.36364H20.9455C17.2077 4.36364 14.6667 4.36704 12.7027 4.52749C10.7896 4.6838 9.81129 4.96711 9.12881 5.31484C7.48667 6.15157 6.15157 7.48667 5.31484 9.12881C4.96711 9.81129 4.6838 10.7896 4.52749 12.7027C4.36704 14.6667 4.36364 17.2077 4.36364 20.9455V27.0545C4.36364 30.7924 4.36704 33.3332 4.52749 35.2972C4.6838 37.2105 4.96711 38.1888 5.31484 38.8713C6.15157 40.5133 7.48667 41.8484 9.12881 42.6851C9.81129 43.0329 10.7896 43.3163 12.7027 43.4725C14.6667 43.6329 17.2077 43.6364 20.9455 43.6364H27.0545C30.7924 43.6364 33.3332 43.6329 35.2972 43.4725C37.2105 43.3163 38.1888 43.0329 38.8713 42.6851C40.5133 41.8484 41.8484 40.5133 42.6851 38.8713C43.0329 38.1888 43.3163 37.2105 43.4725 35.2972C43.6329 33.3332 43.6364 30.7924 43.6364 27.0545V20.9455C43.6364 17.2077 43.6329 14.6667 43.4725 12.7027C43.3163 10.7896 43.0329 9.81129 42.6851 9.12881C41.8484 7.48667 40.5133 6.15157 38.8713 5.31484C38.1888 4.96711 37.2105 4.6838 35.2972 4.52749C33.3332 4.36704 30.7924 4.36364 27.0545 4.36364Z" fill="#F7F7F8"/>
</svg>
