<svg width="51" height="48" viewBox="0 0 51 48" fill="none" xmlns="http://www.w3.org/2000/svg">
<path fill-rule="evenodd" clip-rule="evenodd" d="M11.4 47.9999V15.6129H0.636312V47.9998H11.4V47.9999ZM6.01926 11.1926C9.77158 11.1926 12.109 8.70356 12.109 5.59571C12.038 2.41877 9.77158 0 6.08962 0C2.40708 9.82721e-05 0 2.41887 0 5.59581C0 8.70366 2.33612 11.1927 5.94841 11.1927L6.01926 11.1926ZM17.3572 47.9999C17.3572 47.9999 17.4984 18.6516 17.3572 15.613H28.1225V20.3098H28.0511C29.4666 18.0996 32.0167 14.8524 37.8232 14.8524C44.9072 14.8524 50.2169 19.4814 50.2169 29.4294V48H39.4534V30.6738C39.4534 26.3203 37.896 23.3495 33.9996 23.3495C31.0265 23.3495 29.2546 25.3523 28.4765 27.2883C28.1918 27.9774 28.1225 28.9452 28.1225 29.9132V47.9999H17.3572Z" fill="#F7F7F8"/>
</svg>
