<svg width="34" height="32" viewBox="0 0 34 32" fill="none" xmlns="http://www.w3.org/2000/svg">
<g id="LinkedIn Icon">
<path id="Vector" fill-rule="evenodd" clip-rule="evenodd" d="M7.59997 31.9999V10.4086H0.424208V31.9999H7.59997V31.9999ZM4.01284 7.46173C6.51439 7.46173 8.07266 5.80237 8.07266 3.73047C8.02536 1.61251 6.51439 0 4.05975 0C1.60472 6.55147e-05 0 1.61258 0 3.73054C0 5.80244 1.55742 7.4618 3.96561 7.4618L4.01284 7.46173ZM11.5715 31.9999C11.5715 31.9999 11.6656 12.4344 11.5715 10.4086H18.7483V13.5399H18.7007C19.6444 12.0664 21.3445 9.90163 25.2155 9.90163C29.9381 9.90163 33.4779 12.9876 33.4779 19.6196V32H26.3023V20.4492C26.3023 17.5469 25.264 15.5664 22.6664 15.5664C20.6843 15.5664 19.5031 16.9015 18.9843 18.1922C18.7945 18.6516 18.7483 19.2968 18.7483 19.9422V31.9999H11.5715Z" fill="white" fill-opacity="0.8"/>
</g>
</svg>
