<svg width="360" height="360" viewBox="0 0 360 360" fill="none" xmlns="http://www.w3.org/2000/svg">
<rect width="360" height="360" rx="80" fill="#16232A"/>
<path d="M146.667 280C155.422 280 164.091 278.276 172.179 274.925C180.267 271.575 187.617 266.664 193.807 260.474C199.998 254.283 204.908 246.934 208.259 238.846C211.609 230.757 213.333 222.088 213.333 213.333L193.333 213.333C193.333 219.462 192.126 225.53 189.781 231.192C187.436 236.854 183.998 241.998 179.665 246.332C175.332 250.665 170.187 254.103 164.525 256.448C158.863 258.793 152.795 260 146.667 260L146.667 280Z" fill="#E4EEF0"/>
<path d="M236.667 166.667C245.237 166.667 253.615 164.125 260.742 159.364C267.868 154.602 273.422 147.834 276.702 139.916C279.981 131.998 280.84 123.285 279.168 114.879C277.496 106.474 273.368 98.7523 267.308 92.692C261.248 86.6318 253.527 82.5047 245.121 80.8326C236.715 79.1606 228.002 80.0188 220.084 83.2986C212.166 86.5783 205.398 92.1325 200.637 99.2586C195.875 106.385 193.334 114.763 193.334 123.333L213.267 123.333C213.267 118.705 214.639 114.181 217.211 110.333C219.782 106.485 223.436 103.486 227.712 101.715C231.988 99.9435 236.693 99.4801 241.232 100.383C245.771 101.286 249.941 103.514 253.213 106.787C256.486 110.06 258.714 114.229 259.617 118.768C260.52 123.307 260.057 128.012 258.286 132.288C256.515 136.564 253.515 140.218 249.667 142.79C245.819 145.361 241.295 146.733 236.667 146.733L236.667 166.667Z" fill="#FF5C38"/>
<rect x="193.334" y="123.333" width="20" height="90" fill="#E4EEF0"/>
<rect x="80.0001" y="213.333" width="20" height="66.6667" fill="#E4EEF0"/>
<rect x="80.0001" y="260" width="66.6667" height="20" fill="#E4EEF0"/>
<rect x="146.667" y="146.667" width="66.6667" height="20" fill="#E4EEF0"/>
<path d="M146.667 146.667C137.912 146.667 129.243 148.391 121.154 151.741C113.066 155.092 105.717 160.002 99.5263 166.193C93.3357 172.384 88.4251 179.733 85.0748 187.821C81.7244 195.91 80.0001 204.579 80.0001 213.333L100 213.333C100 207.205 101.207 201.137 103.552 195.475C105.898 189.813 109.335 184.668 113.668 180.335C118.002 176.002 123.146 172.564 128.808 170.219C134.47 167.874 140.538 166.667 146.667 166.667L146.667 146.667Z" fill="#E4EEF0"/>
</svg>
