<svg width="711" height="432" viewBox="0 0 711 432" fill="none" xmlns="http://www.w3.org/2000/svg">
<path d="M150.294 300.895C162.758 297.818 174.652 296.438 182.681 288.368C193.436 278.365 196.982 263.237 188.198 250.415C181.03 239.283 167.884 236.181 155.773 235.848C143.86 234.933 132.139 237.546 121.724 240.715C112.038 243.49 102.308 247.646 92.8677 252.287C62.4418 266.87 33.6596 287.157 15.2884 320.14C9.35967 331.172 3.78551 341.023 1.70597 354.332C0.0821078 364.71 0.599093 375.34 3.90647 385.434C5.82197 391.22 8.70847 397.03 12.3224 402.002C16.8427 408.186 23.4028 414.428 28.6157 417.81C47.7491 431.384 72.1966 432.954 85.9961 431.254C104.455 429.855 121.816 421.877 137.986 411.81C213.635 365.111 263.277 290.501 319.982 228.913C330.951 216.874 343.415 203.581 354.396 192.411C374.431 172.032 406.726 140.767 452.665 110.898C490.749 86.1343 539.288 54.575 575.994 68.232C581.538 70.295 596.169 75.7399 600.87 89.3008C603.498 96.885 603.51 108.421 595.793 116.207C587.157 124.923 572.802 124.943 563.556 118.746C554.715 112.82 552.966 102.834 552.642 100.978C551.531 94.6314 552.572 87.6587 558.453 76.5966C561.157 71.5096 574.267 47.9105 605.947 29.6503C620.428 21.304 631.749 18.1309 636.408 16.9577C646.403 14.4424 658.942 11.4564 672.706 16.1955C678.065 18.0397 685.044 20.5617 688.698 27.6189C692.382 34.7307 690.466 42.1607 689.714 44.6264C677.941 36.9727 663.56 39.4896 657.222 48.1806C652.155 55.1284 653.02 64.9346 656.968 71.788C657.248 72.2735 662.947 81.8278 674.229 83.2114C682.271 84.1973 688.453 80.479 691.387 78.6563C704.264 70.6579 713.397 52.6463 709.487 35.2079C706.098 20.0961 694.388 11.9801 690.796 9.49124C676.655 -0.308284 661.411 0.439024 650.624 0.967609C635.666 1.7 624.469 6.18883 613.768 10.4788C600.923 15.6288 592.184 21.1847 590.128 22.5136C578.101 30.2767 570.171 38.0828 565.217 43.314C559.846 48.9826 556.69 52.6761 554.154 56.0547C554.154 56.0547 550.415 61.0208 547.599 65.7266C530.332 94.5867 540.206 115.45 540.206 115.45C546.666 129.104 562.479 140.595 580.565 139.311C601.598 137.818 612.37 119.997 613.235 118.509C622.067 103.316 617.926 88.0067 616.841 84.2354C613.362 72.1625 605.634 64.5651 601.424 61.1053C601.424 61.1053 596.638 57.5195 590.938 54.6065C570.063 43.9404 544.338 49.2809 525.006 55.0456C503.255 60.9959 484.461 71.7018 464.986 84.1244C445.412 96.1178 413.761 117.646 388.848 138.691C368.073 155.818 344.89 177.629 329.296 193.74C285.029 238.859 245.032 292.03 203.209 336.552C188.765 351.84 168.493 370.924 151.092 385.316C132.439 400.834 120.505 407.901 102.823 412.997C86.2496 418.122 69.6232 414.675 58.7815 399.938C47.7922 385.809 52.7284 366.219 58.808 355.142C70.7334 333.411 90.3623 322.272 108.424 313.782C125.04 305.971 140.009 302.547 150.294 300.897V300.895Z" fill="white"/>
</svg>
