<svg width="33" height="32" viewBox="0 0 33 32" fill="none" xmlns="http://www.w3.org/2000/svg">
<path d="M19.2778 18.3269C19.0111 18.2126 7.2006 12.8094 5.48617 12.0026C3.77174 11.1958 -0.423773 7.96415 2.324 3.01137C5.07178 -1.94142 11.1247 0.631896 11.8486 0.954048C12.5725 1.2762 25.7926 7.39267 25.7926 7.39267H21.8304L19.5445 6.36402V8.30704C19.5445 8.30704 9.56269 3.69714 9.10551 3.50664C8.64833 3.31614 6.55292 2.64777 5.71476 4.34482C4.87659 6.04187 6.25405 7.14335 7.1244 7.54507C7.99474 7.94678 27.2403 16.7282 28.3452 17.2602C29.4501 17.7921 33.4123 21.4129 31.5836 26.2895C29.7548 31.1661 26.0593 31.8899 24.8401 31.9661C23.621 32.0423 7.92446 31.9661 6.89581 31.9661C5.86715 31.9661 3.75048 30.8613 2.20971 29.4516C0.668937 28.042 -3.23366e-06 25.3751 0 24.4227V12.7264V12.7094C0 12.1998 0.526524 11.8605 0.990558 12.0711C0.990558 12.0711 18.4015 19.9906 18.5539 20.0413C18.7063 20.0921 19.354 20.0794 19.6207 19.508C19.8874 18.9365 19.5445 18.4412 19.2778 18.3269Z" fill="#F7F7F8"/>
<path d="M26.3648 9.14338L32.1177 11.7722H27.3935L21.6406 9.14338H26.3648Z" fill="#F7F7F8"/>
</svg>
