<svg width="25" height="24" viewBox="0 0 25 24" fill="none" xmlns="http://www.w3.org/2000/svg">
<g id="Srsvti Icon">
<path id="Vector 260" d="M14.4585 13.7452C14.2585 13.6595 5.40063 9.60705 4.11481 9.00193C2.82899 8.39681 -0.317647 5.97311 1.74318 2.25852C3.80401 -1.45607 8.34373 0.473916 8.88663 0.71553C9.42953 0.957145 19.3446 5.5445 19.3446 5.5445H16.373L14.6585 4.77301V6.23027C14.6585 6.23027 7.1722 2.77285 6.82932 2.62998C6.48643 2.4871 4.91487 1.98582 4.28625 3.25861C3.65763 4.53139 4.69072 5.35751 5.34348 5.65879C5.99624 5.96008 20.4304 12.5461 21.2591 12.9451C22.0877 13.3441 25.0594 16.0597 23.6879 19.7171C22.3163 23.3745 19.5447 23.9175 18.6303 23.9746C17.7159 24.0317 5.94353 23.9746 5.17204 23.9746C4.40055 23.9746 2.81304 23.146 1.65746 22.0887C0.501886 21.0315 0.00018068 19.0313 0.000183105 18.317V9.54483V9.53203C0.000183105 9.14984 0.395076 8.89539 0.743102 9.05333C0.743102 9.05333 13.8013 14.9929 13.9156 15.031C14.0299 15.0691 14.5157 15.0596 14.7157 14.631C14.9157 14.2024 14.6585 13.8309 14.4585 13.7452Z" fill="white"/>
<path id="Vector 261" d="M19.7713 6.85781L24.0859 8.8294H20.5428L16.2281 6.85781H19.7713Z" fill="white"/>
</g>
</svg>
