<svg width="20" height="20" viewBox="0 0 20 20" fill="none" xmlns="http://www.w3.org/2000/svg">
<path id="Tick" d="M10 0C8.02219 0 6.08879 0.58649 4.4443 1.6853C2.79981 2.78412 1.51809 4.3459 0.761209 6.17316C0.00433284 8.00042 -0.1937 10.0111 0.192152 11.9509C0.578004 13.8907 1.53041 15.6725 2.92894 17.0711C4.32746 18.4696 6.10929 19.422 8.0491 19.8078C9.98891 20.1937 11.9996 19.9957 13.8268 19.2388C15.6541 18.4819 17.2159 17.2002 18.3147 15.5557C19.4135 13.9112 20 11.9778 20 10C20 8.68678 19.7413 7.38642 19.2388 6.17316C18.7362 4.95991 17.9997 3.85752 17.0711 2.92893C16.1425 2.00035 15.0401 1.26375 13.8268 0.761204C12.6136 0.258658 11.3132 0 10 0ZM15.676 8.237L9.676 13.737C9.48604 13.9112 9.23615 14.0053 8.97848 13.9997C8.7208 13.9941 8.47524 13.8893 8.293 13.707L5.293 10.707C5.19749 10.6147 5.12131 10.5044 5.0689 10.3824C5.01649 10.2604 4.98891 10.1292 4.98775 9.9964C4.9866 9.86362 5.0119 9.73194 5.06218 9.60904C5.11246 9.48615 5.18672 9.3745 5.28061 9.2806C5.3745 9.18671 5.48615 9.11246 5.60905 9.06218C5.73195 9.0119 5.86363 8.98659 5.9964 8.98775C6.12918 8.9889 6.2604 9.01649 6.38241 9.0689C6.50441 9.1213 6.61476 9.19749 6.707 9.293L9.03 11.616L14.324 6.763C14.5195 6.58371 14.7781 6.48942 15.0431 6.50086C15.3081 6.5123 15.5577 6.62853 15.737 6.824C15.9163 7.01946 16.0106 7.27814 15.9991 7.54313C15.9877 7.80812 15.8715 8.05771 15.676 8.237Z" fill="white"/>
</svg>
