<svg width="300" height="341" viewBox="0 0 300 341" fill="none" xmlns="http://www.w3.org/2000/svg">
<g id="Trust Stack Construction">
<rect width="300" height="340.384" rx="20" fill="#848484" fill-opacity="0.2"/>
<g id="Header">
<g id="Header Text">
<g id="Ellipse 3075" filter="url(#filter1_f_845_452)">
<circle cx="23" cy="23.5" r="5" fill="#0077FF"/>
</g>
<path id="Trust Stack Construction_2" d="M44.704 17.832V19.64H41.728V29H39.488V19.64H36.512V17.832H44.704ZM48.2584 21.512C48.5464 21.0427 48.9197 20.6747 49.3784 20.408C49.8477 20.1413 50.381 20.008 50.9784 20.008V22.36H50.3864C49.6824 22.36 49.149 22.5253 48.7864 22.856C48.4344 23.1867 48.2584 23.7627 48.2584 24.584V29H46.0184V20.136H48.2584V21.512ZM60.5351 20.136V29H58.2791V27.88C57.9911 28.264 57.6125 28.568 57.1431 28.792C56.6845 29.0053 56.1831 29.112 55.6391 29.112C54.9458 29.112 54.3325 28.968 53.7991 28.68C53.2658 28.3813 52.8445 27.9493 52.5351 27.384C52.2365 26.808 52.0871 26.1253 52.0871 25.336V20.136H54.3271V25.016C54.3271 25.72 54.5031 26.264 54.8551 26.648C55.2071 27.0213 55.6871 27.208 56.2951 27.208C56.9138 27.208 57.3991 27.0213 57.7511 26.648C58.1031 26.264 58.2791 25.72 58.2791 25.016V20.136H60.5351ZM65.8173 29.144C65.0919 29.144 64.4413 29.016 63.8653 28.76C63.2893 28.4933 62.8306 28.136 62.4893 27.688C62.1586 27.24 61.9773 26.744 61.9453 26.2H64.2013C64.2439 26.5413 64.4093 26.824 64.6973 27.048C64.9959 27.272 65.3639 27.384 65.8013 27.384C66.2279 27.384 66.5586 27.2987 66.7933 27.128C67.0386 26.9573 67.1613 26.7387 67.1613 26.472C67.1613 26.184 67.0119 25.9707 66.7133 25.832C66.4253 25.6827 65.9613 25.5227 65.3213 25.352C64.6599 25.192 64.1159 25.0267 63.6893 24.856C63.2733 24.6853 62.9106 24.424 62.6013 24.072C62.3026 23.72 62.1533 23.2453 62.1533 22.648C62.1533 22.1573 62.2919 21.7093 62.5693 21.304C62.8573 20.8987 63.2626 20.5787 63.7853 20.344C64.3186 20.1093 64.9426 19.992 65.6573 19.992C66.7133 19.992 67.5559 20.2587 68.1853 20.792C68.8146 21.3147 69.1613 22.024 69.2253 22.92H67.0813C67.0493 22.568 66.8999 22.2907 66.6333 22.088C66.3773 21.8747 66.0306 21.768 65.5933 21.768C65.1879 21.768 64.8733 21.8427 64.6493 21.992C64.4359 22.1413 64.3293 22.3493 64.3293 22.616C64.3293 22.9147 64.4786 23.144 64.7773 23.304C65.0759 23.4533 65.5399 23.608 66.1693 23.768C66.8093 23.928 67.3373 24.0933 67.7533 24.264C68.1693 24.4347 68.5266 24.7013 68.8253 25.064C69.1346 25.416 69.2946 25.8853 69.3053 26.472C69.3053 26.984 69.1613 27.4427 68.8733 27.848C68.5959 28.2533 68.1906 28.5733 67.6573 28.808C67.1346 29.032 66.5213 29.144 65.8173 29.144ZM73.432 21.976V26.264C73.432 26.5627 73.5013 26.7813 73.64 26.92C73.7893 27.048 74.0347 27.112 74.376 27.112H75.416V29H74.008C72.12 29 71.176 28.0827 71.176 26.248V21.976H70.12V20.136H71.176V17.944H73.432V20.136H75.416V21.976H73.432ZM84.0556 29.112C83.277 29.112 82.573 28.9787 81.9436 28.712C81.325 28.4453 80.8343 28.0613 80.4716 27.56C80.109 27.0587 79.9223 26.4667 79.9116 25.784H82.3116C82.3436 26.2427 82.5036 26.6053 82.7916 26.872C83.0903 27.1387 83.4956 27.272 84.0076 27.272C84.5303 27.272 84.941 27.1493 85.2396 26.904C85.5383 26.648 85.6876 26.3173 85.6876 25.912C85.6876 25.5813 85.5863 25.3093 85.3836 25.096C85.181 24.8827 84.925 24.7173 84.6156 24.6C84.317 24.472 83.901 24.3333 83.3676 24.184C82.6423 23.9707 82.0503 23.7627 81.5916 23.56C81.1436 23.3467 80.7543 23.032 80.4236 22.616C80.1036 22.1893 79.9436 21.624 79.9436 20.92C79.9436 20.2587 80.109 19.6827 80.4396 19.192C80.7703 18.7013 81.2343 18.328 81.8316 18.072C82.429 17.8053 83.1116 17.672 83.8796 17.672C85.0316 17.672 85.965 17.9547 86.6796 18.52C87.405 19.0747 87.805 19.8533 87.8796 20.856H85.4156C85.3943 20.472 85.229 20.1573 84.9196 19.912C84.621 19.656 84.221 19.528 83.7196 19.528C83.2823 19.528 82.9303 19.64 82.6636 19.864C82.4076 20.088 82.2796 20.4133 82.2796 20.84C82.2796 21.1387 82.3756 21.3893 82.5676 21.592C82.7703 21.784 83.0156 21.944 83.3036 22.072C83.6023 22.1893 84.0183 22.328 84.5516 22.488C85.277 22.7013 85.869 22.9147 86.3276 23.128C86.7863 23.3413 87.181 23.6613 87.5116 24.088C87.8423 24.5147 88.0076 25.0747 88.0076 25.768C88.0076 26.3653 87.853 26.92 87.5436 27.432C87.2343 27.944 86.781 28.3547 86.1836 28.664C85.5863 28.9627 84.877 29.112 84.0556 29.112ZM92.2376 21.976V26.264C92.2376 26.5627 92.307 26.7813 92.4456 26.92C92.595 27.048 92.8403 27.112 93.1816 27.112H94.2216V29H92.8136C90.9256 29 89.9816 28.0827 89.9816 26.248V21.976H88.9256V20.136H89.9816V17.944H92.2376V20.136H94.2216V21.976H92.2376ZM94.9367 24.536C94.9367 23.64 95.1127 22.8453 95.4647 22.152C95.8274 21.4587 96.3127 20.9253 96.9207 20.552C97.5394 20.1787 98.2274 19.992 98.9847 19.992C99.6461 19.992 100.222 20.1253 100.713 20.392C101.214 20.6587 101.614 20.9947 101.913 21.4V20.136H104.169V29H101.913V27.704C101.625 28.12 101.225 28.4667 100.713 28.744C100.211 29.0107 99.6301 29.144 98.9687 29.144C98.2221 29.144 97.5394 28.952 96.9207 28.568C96.3127 28.184 95.8274 27.6453 95.4647 26.952C95.1127 26.248 94.9367 25.4427 94.9367 24.536ZM101.913 24.568C101.913 24.024 101.806 23.56 101.593 23.176C101.379 22.7813 101.091 22.4827 100.729 22.28C100.366 22.0667 99.9767 21.96 99.5607 21.96C99.1447 21.96 98.7607 22.0613 98.4087 22.264C98.0567 22.4667 97.7687 22.7653 97.5447 23.16C97.3314 23.544 97.2247 24.0027 97.2247 24.536C97.2247 25.0693 97.3314 25.5387 97.5447 25.944C97.7687 26.3387 98.0567 26.6427 98.4087 26.856C98.7714 27.0693 99.1554 27.176 99.5607 27.176C99.9767 27.176 100.366 27.0747 100.729 26.872C101.091 26.6587 101.379 26.36 101.593 25.976C101.806 25.5813 101.913 25.112 101.913 24.568ZM105.461 24.568C105.461 23.6507 105.647 22.8507 106.021 22.168C106.394 21.4747 106.911 20.9413 107.573 20.568C108.234 20.184 108.991 19.992 109.845 19.992C110.943 19.992 111.85 20.2693 112.565 20.824C113.29 21.368 113.775 22.136 114.021 23.128H111.605C111.477 22.744 111.258 22.4453 110.949 22.232C110.65 22.008 110.277 21.896 109.829 21.896C109.189 21.896 108.682 22.1307 108.309 22.6C107.935 23.0587 107.749 23.7147 107.749 24.568C107.749 25.4107 107.935 26.0667 108.309 26.536C108.682 26.9947 109.189 27.224 109.829 27.224C110.735 27.224 111.327 26.8187 111.605 26.008H114.021C113.775 26.968 113.29 27.7307 112.565 28.296C111.839 28.8613 110.933 29.144 109.845 29.144C108.991 29.144 108.234 28.9573 107.573 28.584C106.911 28.2 106.394 27.6667 106.021 26.984C105.647 26.2907 105.461 25.4853 105.461 24.568ZM120.59 29L117.582 25.224V29H115.342V17.16H117.582V23.896L120.558 20.136H123.47L119.566 24.584L123.502 29H120.59ZM127.314 23.4C127.314 22.3013 127.559 21.32 128.05 20.456C128.551 19.5813 129.228 18.904 130.082 18.424C130.946 17.9333 131.911 17.688 132.978 17.688C134.226 17.688 135.319 18.008 136.258 18.648C137.196 19.288 137.852 20.1733 138.226 21.304H135.65C135.394 20.7707 135.031 20.3707 134.562 20.104C134.103 19.8373 133.57 19.704 132.962 19.704C132.311 19.704 131.73 19.8587 131.218 20.168C130.716 20.4667 130.322 20.8933 130.034 21.448C129.756 22.0027 129.618 22.6533 129.618 23.4C129.618 24.136 129.756 24.7867 130.034 25.352C130.322 25.9067 130.716 26.3387 131.218 26.648C131.73 26.9467 132.311 27.096 132.962 27.096C133.57 27.096 134.103 26.9627 134.562 26.696C135.031 26.4187 135.394 26.0133 135.65 25.48H138.226C137.852 26.6213 137.196 27.512 136.258 28.152C135.33 28.7813 134.236 29.096 132.978 29.096C131.911 29.096 130.946 28.856 130.082 28.376C129.228 27.8853 128.551 27.208 128.05 26.344C127.559 25.48 127.314 24.4987 127.314 23.4ZM143.755 29.144C142.902 29.144 142.134 28.9573 141.451 28.584C140.768 28.2 140.23 27.6613 139.835 26.968C139.451 26.2747 139.259 25.4747 139.259 24.568C139.259 23.6613 139.456 22.8613 139.851 22.168C140.256 21.4747 140.806 20.9413 141.499 20.568C142.192 20.184 142.966 19.992 143.819 19.992C144.672 19.992 145.446 20.184 146.139 20.568C146.832 20.9413 147.376 21.4747 147.771 22.168C148.176 22.8613 148.379 23.6613 148.379 24.568C148.379 25.4747 148.171 26.2747 147.755 26.968C147.35 27.6613 146.795 28.2 146.091 28.584C145.398 28.9573 144.619 29.144 143.755 29.144ZM143.755 27.192C144.16 27.192 144.539 27.096 144.891 26.904C145.254 26.7013 145.542 26.4027 145.755 26.008C145.968 25.6133 146.075 25.1333 146.075 24.568C146.075 23.7253 145.851 23.08 145.403 22.632C144.966 22.1733 144.427 21.944 143.787 21.944C143.147 21.944 142.608 22.1733 142.171 22.632C141.744 23.08 141.531 23.7253 141.531 24.568C141.531 25.4107 141.739 26.0613 142.155 26.52C142.582 26.968 143.115 27.192 143.755 27.192ZM154.614 20.008C155.67 20.008 156.523 20.344 157.174 21.016C157.825 21.6773 158.15 22.6053 158.15 23.8V29H155.91V24.104C155.91 23.4 155.734 22.8613 155.382 22.488C155.03 22.104 154.55 21.912 153.942 21.912C153.323 21.912 152.833 22.104 152.47 22.488C152.118 22.8613 151.942 23.4 151.942 24.104V29H149.702V20.136H151.942V21.24C152.241 20.856 152.619 20.5573 153.078 20.344C153.547 20.12 154.059 20.008 154.614 20.008ZM163.352 29.144C162.627 29.144 161.976 29.016 161.4 28.76C160.824 28.4933 160.366 28.136 160.024 27.688C159.694 27.24 159.512 26.744 159.48 26.2H161.736C161.779 26.5413 161.944 26.824 162.232 27.048C162.531 27.272 162.899 27.384 163.336 27.384C163.763 27.384 164.094 27.2987 164.328 27.128C164.574 26.9573 164.696 26.7387 164.696 26.472C164.696 26.184 164.547 25.9707 164.248 25.832C163.96 25.6827 163.496 25.5227 162.856 25.352C162.195 25.192 161.651 25.0267 161.224 24.856C160.808 24.6853 160.446 24.424 160.136 24.072C159.838 23.72 159.688 23.2453 159.688 22.648C159.688 22.1573 159.827 21.7093 160.104 21.304C160.392 20.8987 160.798 20.5787 161.32 20.344C161.854 20.1093 162.478 19.992 163.192 19.992C164.248 19.992 165.091 20.2587 165.72 20.792C166.35 21.3147 166.696 22.024 166.76 22.92H164.616C164.584 22.568 164.435 22.2907 164.168 22.088C163.912 21.8747 163.566 21.768 163.128 21.768C162.723 21.768 162.408 21.8427 162.184 21.992C161.971 22.1413 161.864 22.3493 161.864 22.616C161.864 22.9147 162.014 23.144 162.312 23.304C162.611 23.4533 163.075 23.608 163.704 23.768C164.344 23.928 164.872 24.0933 165.288 24.264C165.704 24.4347 166.062 24.7013 166.36 25.064C166.67 25.416 166.83 25.8853 166.84 26.472C166.84 26.984 166.696 27.4427 166.408 27.848C166.131 28.2533 165.726 28.5733 165.192 28.808C164.67 29.032 164.056 29.144 163.352 29.144ZM170.967 21.976V26.264C170.967 26.5627 171.036 26.7813 171.175 26.92C171.324 27.048 171.57 27.112 171.911 27.112H172.951V29H171.543C169.655 29 168.711 28.0827 168.711 26.248V21.976H167.655V20.136H168.711V17.944H170.967V20.136H172.951V21.976H170.967ZM176.482 21.512C176.77 21.0427 177.143 20.6747 177.602 20.408C178.071 20.1413 178.605 20.008 179.202 20.008V22.36H178.61C177.906 22.36 177.373 22.5253 177.01 22.856C176.658 23.1867 176.482 23.7627 176.482 24.584V29H174.242V20.136H176.482V21.512ZM188.759 20.136V29H186.503V27.88C186.215 28.264 185.836 28.568 185.367 28.792C184.908 29.0053 184.407 29.112 183.863 29.112C183.17 29.112 182.556 28.968 182.023 28.68C181.49 28.3813 181.068 27.9493 180.759 27.384C180.46 26.808 180.311 26.1253 180.311 25.336V20.136H182.551V25.016C182.551 25.72 182.727 26.264 183.079 26.648C183.431 27.0213 183.911 27.208 184.519 27.208C185.138 27.208 185.623 27.0213 185.975 26.648C186.327 26.264 186.503 25.72 186.503 25.016V20.136H188.759ZM190.073 24.568C190.073 23.6507 190.26 22.8507 190.633 22.168C191.006 21.4747 191.524 20.9413 192.185 20.568C192.846 20.184 193.604 19.992 194.457 19.992C195.556 19.992 196.462 20.2693 197.177 20.824C197.902 21.368 198.388 22.136 198.633 23.128H196.217C196.089 22.744 195.87 22.4453 195.561 22.232C195.262 22.008 194.889 21.896 194.441 21.896C193.801 21.896 193.294 22.1307 192.921 22.6C192.548 23.0587 192.361 23.7147 192.361 24.568C192.361 25.4107 192.548 26.0667 192.921 26.536C193.294 26.9947 193.801 27.224 194.441 27.224C195.348 27.224 195.94 26.8187 196.217 26.008H198.633C198.388 26.968 197.902 27.7307 197.177 28.296C196.452 28.8613 195.545 29.144 194.457 29.144C193.604 29.144 192.846 28.9573 192.185 28.584C191.524 28.2 191.006 27.6667 190.633 26.984C190.26 26.2907 190.073 25.4853 190.073 24.568ZM202.562 21.976V26.264C202.562 26.5627 202.631 26.7813 202.77 26.92C202.919 27.048 203.165 27.112 203.506 27.112H204.546V29H203.138C201.25 29 200.306 28.0827 200.306 26.248V21.976H199.25V20.136H200.306V17.944H202.562V20.136H204.546V21.976H202.562ZM206.973 19.08C206.578 19.08 206.248 18.9573 205.981 18.712C205.725 18.456 205.597 18.1413 205.597 17.768C205.597 17.3947 205.725 17.0853 205.981 16.84C206.248 16.584 206.578 16.456 206.973 16.456C207.368 16.456 207.693 16.584 207.949 16.84C208.216 17.0853 208.349 17.3947 208.349 17.768C208.349 18.1413 208.216 18.456 207.949 18.712C207.693 18.9573 207.368 19.08 206.973 19.08ZM208.077 20.136V29H205.837V20.136H208.077ZM213.906 29.144C213.053 29.144 212.285 28.9573 211.602 28.584C210.92 28.2 210.381 27.6613 209.986 26.968C209.602 26.2747 209.41 25.4747 209.41 24.568C209.41 23.6613 209.608 22.8613 210.002 22.168C210.408 21.4747 210.957 20.9413 211.65 20.568C212.344 20.184 213.117 19.992 213.97 19.992C214.824 19.992 215.597 20.184 216.29 20.568C216.984 20.9413 217.528 21.4747 217.922 22.168C218.328 22.8613 218.53 23.6613 218.53 24.568C218.53 25.4747 218.322 26.2747 217.906 26.968C217.501 27.6613 216.946 28.2 216.242 28.584C215.549 28.9573 214.77 29.144 213.906 29.144ZM213.906 27.192C214.312 27.192 214.69 27.096 215.042 26.904C215.405 26.7013 215.693 26.4027 215.906 26.008C216.12 25.6133 216.226 25.1333 216.226 24.568C216.226 23.7253 216.002 23.08 215.554 22.632C215.117 22.1733 214.578 21.944 213.938 21.944C213.298 21.944 212.76 22.1733 212.322 22.632C211.896 23.08 211.682 23.7253 211.682 24.568C211.682 25.4107 211.89 26.0613 212.306 26.52C212.733 26.968 213.266 27.192 213.906 27.192ZM224.765 20.008C225.821 20.008 226.675 20.344 227.325 21.016C227.976 21.6773 228.301 22.6053 228.301 23.8V29H226.061V24.104C226.061 23.4 225.885 22.8613 225.533 22.488C225.181 22.104 224.701 21.912 224.093 21.912C223.475 21.912 222.984 22.104 222.621 22.488C222.269 22.8613 222.093 23.4 222.093 24.104V29H219.853V20.136H222.093V21.24C222.392 20.856 222.771 20.5573 223.229 20.344C223.699 20.12 224.211 20.008 224.765 20.008Z" fill="white"/>
</g>
<g id="Group 8">
<path id="Vector" d="M269.556 23.4999C269.556 24.4818 268.76 25.2777 267.778 25.2777C266.796 25.2777 266 24.4818 266 23.4999C266 22.5181 266.796 21.7222 267.778 21.7222C268.76 21.7222 269.556 22.5181 269.556 23.4999Z" fill="white"/>
<path id="Vector_2" d="M275.778 23.4999C275.778 24.4818 274.982 25.2777 274 25.2777C273.019 25.2777 272.223 24.4818 272.223 23.4999C272.223 22.5181 273.019 21.7222 274 21.7222C274.982 21.7222 275.778 22.5181 275.778 23.4999Z" fill="white"/>
<path id="Vector_3" d="M282 23.4999C282 24.4818 281.204 25.2777 280.222 25.2777C279.24 25.2777 278.445 24.4818 278.445 23.4999C278.445 22.5181 279.24 21.7222 280.222 21.7222C281.204 21.7222 282 22.5181 282 23.4999Z" fill="white"/>
</g>
</g>
<g id="Elements">
<rect x="6.5" y="47.5" width="287" height="36" rx="15.5" fill="#252525"/>
<rect x="6.5" y="47.5" width="287" height="36" rx="15.5" stroke="url(#paint0_linear_845_452)"/>
<path id="Great product, fast shipping" d="M24.66 63.644C24.468 63.292 24.204 63.024 23.868 62.84C23.532 62.656 23.14 62.564 22.692 62.564C22.196 62.564 21.756 62.676 21.372 62.9C20.988 63.124 20.688 63.444 20.472 63.86C20.256 64.276 20.148 64.756 20.148 65.3C20.148 65.86 20.256 66.348 20.472 66.764C20.696 67.18 21.004 67.5 21.396 67.724C21.788 67.948 22.244 68.06 22.764 68.06C23.404 68.06 23.928 67.892 24.336 67.556C24.744 67.212 25.012 66.736 25.14 66.128H22.26V64.844H26.796V66.308C26.684 66.892 26.444 67.432 26.076 67.928C25.708 68.424 25.232 68.824 24.648 69.128C24.072 69.424 23.424 69.572 22.704 69.572C21.896 69.572 21.164 69.392 20.508 69.032C19.86 68.664 19.348 68.156 18.972 67.508C18.604 66.86 18.42 66.124 18.42 65.3C18.42 64.476 18.604 63.74 18.972 63.092C19.348 62.436 19.86 61.928 20.508 61.568C21.164 61.2 21.892 61.016 22.692 61.016C23.636 61.016 24.456 61.248 25.152 61.712C25.848 62.168 26.328 62.812 26.592 63.644H24.66ZM29.7189 63.884C29.9349 63.532 30.2149 63.256 30.5589 63.056C30.9109 62.856 31.3109 62.756 31.7589 62.756V64.52H31.3149C30.7869 64.52 30.3869 64.644 30.1149 64.892C29.8509 65.14 29.7189 65.572 29.7189 66.188V69.5H28.0389V62.852H29.7189V63.884ZM39.0705 66.032C39.0705 66.272 39.0545 66.488 39.0225 66.68H34.1625C34.2025 67.16 34.3705 67.536 34.6665 67.808C34.9625 68.08 35.3265 68.216 35.7585 68.216C36.3825 68.216 36.8265 67.948 37.0905 67.412H38.9025C38.7105 68.052 38.3425 68.58 37.7985 68.996C37.2545 69.404 36.5865 69.608 35.7945 69.608C35.1545 69.608 34.5785 69.468 34.0665 69.188C33.5625 68.9 33.1665 68.496 32.8785 67.976C32.5985 67.456 32.4585 66.856 32.4585 66.176C32.4585 65.488 32.5985 64.884 32.8785 64.364C33.1585 63.844 33.5505 63.444 34.0545 63.164C34.5585 62.884 35.1385 62.744 35.7945 62.744C36.4265 62.744 36.9905 62.88 37.4865 63.152C37.9905 63.424 38.3785 63.812 38.6505 64.316C38.9305 64.812 39.0705 65.384 39.0705 66.032ZM37.3305 65.552C37.3225 65.12 37.1665 64.776 36.8625 64.52C36.5585 64.256 36.1865 64.124 35.7465 64.124C35.3305 64.124 34.9785 64.252 34.6905 64.508C34.4105 64.756 34.2385 65.104 34.1745 65.552H37.3305ZM39.8647 66.152C39.8647 65.48 39.9967 64.884 40.2607 64.364C40.5328 63.844 40.8968 63.444 41.3528 63.164C41.8168 62.884 42.3328 62.744 42.9008 62.744C43.3968 62.744 43.8288 62.844 44.1968 63.044C44.5728 63.244 44.8728 63.496 45.0968 63.8V62.852H46.7888V69.5H45.0968V68.528C44.8808 68.84 44.5808 69.1 44.1968 69.308C43.8208 69.508 43.3848 69.608 42.8888 69.608C42.3288 69.608 41.8168 69.464 41.3528 69.176C40.8968 68.888 40.5328 68.484 40.2607 67.964C39.9967 67.436 39.8647 66.832 39.8647 66.152ZM45.0968 66.176C45.0968 65.768 45.0168 65.42 44.8568 65.132C44.6968 64.836 44.4808 64.612 44.2088 64.46C43.9368 64.3 43.6448 64.22 43.3328 64.22C43.0208 64.22 42.7328 64.296 42.4688 64.448C42.2048 64.6 41.9888 64.824 41.8208 65.12C41.6608 65.408 41.5808 65.752 41.5808 66.152C41.5808 66.552 41.6608 66.904 41.8208 67.208C41.9888 67.504 42.2048 67.732 42.4688 67.892C42.7408 68.052 43.0288 68.132 43.3328 68.132C43.6448 68.132 43.9368 68.056 44.2088 67.904C44.4808 67.744 44.6968 67.52 44.8568 67.232C45.0168 66.936 45.0968 66.584 45.0968 66.176ZM50.3856 64.232V67.448C50.3856 67.672 50.4376 67.836 50.5416 67.94C50.6536 68.036 50.8376 68.084 51.0936 68.084H51.8736V69.5H50.8176C49.4016 69.5 48.6936 68.812 48.6936 67.436V64.232H47.9016V62.852H48.6936V61.208H50.3856V62.852H51.8736V64.232H50.3856ZM57.6213 63.812C57.8373 63.508 58.1333 63.256 58.5093 63.056C58.8933 62.848 59.3293 62.744 59.8173 62.744C60.3853 62.744 60.8973 62.884 61.3533 63.164C61.8173 63.444 62.1813 63.844 62.4453 64.364C62.7173 64.876 62.8533 65.472 62.8533 66.152C62.8533 66.832 62.7173 67.436 62.4453 67.964C62.1813 68.484 61.8173 68.888 61.3533 69.176C60.8973 69.464 60.3853 69.608 59.8173 69.608C59.3293 69.608 58.8973 69.508 58.5213 69.308C58.1533 69.108 57.8533 68.856 57.6213 68.552V72.668H55.9413V62.852H57.6213V63.812ZM61.1373 66.152C61.1373 65.752 61.0533 65.408 60.8853 65.12C60.7253 64.824 60.5093 64.6 60.2373 64.448C59.9733 64.296 59.6853 64.22 59.3733 64.22C59.0693 64.22 58.7813 64.3 58.5093 64.46C58.2453 64.612 58.0293 64.836 57.8613 65.132C57.7013 65.428 57.6213 65.776 57.6213 66.176C57.6213 66.576 57.7013 66.924 57.8613 67.22C58.0293 67.516 58.2453 67.744 58.5093 67.904C58.7813 68.056 59.0693 68.132 59.3733 68.132C59.6853 68.132 59.9733 68.052 60.2373 67.892C60.5093 67.732 60.7253 67.504 60.8853 67.208C61.0533 66.912 61.1373 66.56 61.1373 66.152ZM65.7541 63.884C65.9701 63.532 66.2501 63.256 66.5941 63.056C66.9461 62.856 67.3461 62.756 67.7941 62.756V64.52H67.3501C66.8221 64.52 66.4221 64.644 66.1501 64.892C65.8861 65.14 65.7541 65.572 65.7541 66.188V69.5H64.0741V62.852H65.7541V63.884ZM71.8777 69.608C71.2377 69.608 70.6617 69.468 70.1497 69.188C69.6377 68.9 69.2337 68.496 68.9377 67.976C68.6497 67.456 68.5057 66.856 68.5057 66.176C68.5057 65.496 68.6537 64.896 68.9497 64.376C69.2537 63.856 69.6657 63.456 70.1857 63.176C70.7057 62.888 71.2857 62.744 71.9257 62.744C72.5657 62.744 73.1457 62.888 73.6657 63.176C74.1857 63.456 74.5937 63.856 74.8897 64.376C75.1937 64.896 75.3457 65.496 75.3457 66.176C75.3457 66.856 75.1897 67.456 74.8777 67.976C74.5737 68.496 74.1577 68.9 73.6297 69.188C73.1097 69.468 72.5257 69.608 71.8777 69.608ZM71.8777 68.144C72.1817 68.144 72.4657 68.072 72.7297 67.928C73.0017 67.776 73.2177 67.552 73.3777 67.256C73.5377 66.96 73.6177 66.6 73.6177 66.176C73.6177 65.544 73.4497 65.06 73.1137 64.724C72.7857 64.38 72.3817 64.208 71.9017 64.208C71.4217 64.208 71.0177 64.38 70.6897 64.724C70.3697 65.06 70.2097 65.544 70.2097 66.176C70.2097 66.808 70.3657 67.296 70.6777 67.64C70.9977 67.976 71.3977 68.144 71.8777 68.144ZM76.146 66.152C76.146 65.48 76.278 64.884 76.542 64.364C76.814 63.844 77.182 63.444 77.646 63.164C78.11 62.884 78.626 62.744 79.194 62.744C79.626 62.744 80.038 62.84 80.43 63.032C80.822 63.216 81.134 63.464 81.366 63.776V60.62H83.07V69.5H81.366V68.516C81.158 68.844 80.866 69.108 80.49 69.308C80.114 69.508 79.678 69.608 79.182 69.608C78.622 69.608 78.11 69.464 77.646 69.176C77.182 68.888 76.814 68.484 76.542 67.964C76.278 67.436 76.146 66.832 76.146 66.152ZM81.378 66.176C81.378 65.768 81.298 65.42 81.138 65.132C80.978 64.836 80.762 64.612 80.49 64.46C80.218 64.3 79.926 64.22 79.614 64.22C79.302 64.22 79.014 64.296 78.75 64.448C78.486 64.6 78.27 64.824 78.102 65.12C77.942 65.408 77.862 65.752 77.862 66.152C77.862 66.552 77.942 66.904 78.102 67.208C78.27 67.504 78.486 67.732 78.75 67.892C79.022 68.052 79.31 68.132 79.614 68.132C79.926 68.132 80.218 68.056 80.49 67.904C80.762 67.744 80.978 67.52 81.138 67.232C81.298 66.936 81.378 66.584 81.378 66.176ZM90.9868 62.852V69.5H89.2948V68.66C89.0788 68.948 88.7948 69.176 88.4428 69.344C88.0988 69.504 87.7228 69.584 87.3148 69.584C86.7948 69.584 86.3348 69.476 85.9348 69.26C85.5348 69.036 85.2188 68.712 84.9868 68.288C84.7628 67.856 84.6508 67.344 84.6508 66.752V62.852H86.3308V66.512C86.3308 67.04 86.4628 67.448 86.7268 67.736C86.9908 68.016 87.3508 68.156 87.8068 68.156C88.2708 68.156 88.6348 68.016 88.8988 67.736C89.1628 67.448 89.2948 67.04 89.2948 66.512V62.852H90.9868ZM92.2124 66.176C92.2124 65.488 92.3524 64.888 92.6324 64.376C92.9124 63.856 93.3004 63.456 93.7964 63.176C94.2924 62.888 94.8604 62.744 95.5004 62.744C96.3244 62.744 97.0044 62.952 97.5404 63.368C98.0844 63.776 98.4484 64.352 98.6324 65.096H96.8204C96.7244 64.808 96.5604 64.584 96.3284 64.424C96.1044 64.256 95.8244 64.172 95.4884 64.172C95.0084 64.172 94.6284 64.348 94.3484 64.7C94.0684 65.044 93.9284 65.536 93.9284 66.176C93.9284 66.808 94.0684 67.3 94.3484 67.652C94.6284 67.996 95.0084 68.168 95.4884 68.168C96.1684 68.168 96.6124 67.864 96.8204 67.256H98.6324C98.4484 67.976 98.0844 68.548 97.5404 68.972C96.9964 69.396 96.3164 69.608 95.5004 69.608C94.8604 69.608 94.2924 69.468 93.7964 69.188C93.3004 68.9 92.9124 68.5 92.6324 67.988C92.3524 67.468 92.2124 66.864 92.2124 66.176ZM101.819 64.232V67.448C101.819 67.672 101.871 67.836 101.975 67.94C102.087 68.036 102.271 68.084 102.527 68.084H103.307V69.5H102.251C100.835 69.5 100.127 68.812 100.127 67.436V64.232H99.3352V62.852H100.127V61.208H101.819V62.852H103.307V64.232H101.819ZM106.352 67.736L104.948 71.108H103.868L104.648 67.736H106.352ZM113.47 64.232H112.306V69.5H110.602V64.232H109.846V62.852H110.602V62.516C110.602 61.7 110.834 61.1 111.298 60.716C111.762 60.332 112.462 60.152 113.398 60.176V61.592C112.99 61.584 112.706 61.652 112.546 61.796C112.386 61.94 112.306 62.2 112.306 62.576V62.852H113.47V64.232ZM114.126 66.152C114.126 65.48 114.258 64.884 114.522 64.364C114.794 63.844 115.158 63.444 115.614 63.164C116.078 62.884 116.594 62.744 117.162 62.744C117.658 62.744 118.09 62.844 118.458 63.044C118.834 63.244 119.134 63.496 119.358 63.8V62.852H121.05V69.5H119.358V68.528C119.142 68.84 118.842 69.1 118.458 69.308C118.082 69.508 117.646 69.608 117.15 69.608C116.59 69.608 116.078 69.464 115.614 69.176C115.158 68.888 114.794 68.484 114.522 67.964C114.258 67.436 114.126 66.832 114.126 66.152ZM119.358 66.176C119.358 65.768 119.278 65.42 119.118 65.132C118.958 64.836 118.742 64.612 118.47 64.46C118.198 64.3 117.906 64.22 117.594 64.22C117.282 64.22 116.994 64.296 116.73 64.448C116.466 64.6 116.25 64.824 116.082 65.12C115.922 65.408 115.842 65.752 115.842 66.152C115.842 66.552 115.922 66.904 116.082 67.208C116.25 67.504 116.466 67.732 116.73 67.892C117.002 68.052 117.29 68.132 117.594 68.132C117.906 68.132 118.198 68.056 118.47 67.904C118.742 67.744 118.958 67.52 119.118 67.232C119.278 66.936 119.358 66.584 119.358 66.176ZM125.235 69.608C124.691 69.608 124.203 69.512 123.771 69.32C123.339 69.12 122.995 68.852 122.739 68.516C122.491 68.18 122.355 67.808 122.331 67.4H124.023C124.055 67.656 124.179 67.868 124.395 68.036C124.619 68.204 124.895 68.288 125.223 68.288C125.543 68.288 125.791 68.224 125.967 68.096C126.151 67.968 126.243 67.804 126.243 67.604C126.243 67.388 126.131 67.228 125.907 67.124C125.691 67.012 125.343 66.892 124.863 66.764C124.367 66.644 123.959 66.52 123.639 66.392C123.327 66.264 123.055 66.068 122.823 65.804C122.599 65.54 122.487 65.184 122.487 64.736C122.487 64.368 122.591 64.032 122.799 63.728C123.015 63.424 123.319 63.184 123.711 63.008C124.111 62.832 124.579 62.744 125.115 62.744C125.907 62.744 126.539 62.944 127.011 63.344C127.483 63.736 127.743 64.268 127.791 64.94H126.183C126.159 64.676 126.047 64.468 125.847 64.316C125.655 64.156 125.395 64.076 125.067 64.076C124.763 64.076 124.527 64.132 124.359 64.244C124.199 64.356 124.119 64.512 124.119 64.712C124.119 64.936 124.231 65.108 124.455 65.228C124.679 65.34 125.027 65.456 125.499 65.576C125.979 65.696 126.375 65.82 126.687 65.948C126.999 66.076 127.267 66.276 127.491 66.548C127.723 66.812 127.843 67.164 127.851 67.604C127.851 67.988 127.743 68.332 127.527 68.636C127.319 68.94 127.015 69.18 126.615 69.356C126.223 69.524 125.763 69.608 125.235 69.608ZM131.186 64.232V67.448C131.186 67.672 131.238 67.836 131.342 67.94C131.454 68.036 131.638 68.084 131.894 68.084H132.674V69.5H131.618C130.202 69.5 129.494 68.812 129.494 67.436V64.232H128.702V62.852H129.494V61.208H131.186V62.852H132.674V64.232H131.186ZM139.286 69.608C138.742 69.608 138.254 69.512 137.822 69.32C137.39 69.12 137.046 68.852 136.79 68.516C136.542 68.18 136.406 67.808 136.382 67.4H138.074C138.106 67.656 138.23 67.868 138.446 68.036C138.67 68.204 138.946 68.288 139.274 68.288C139.594 68.288 139.842 68.224 140.018 68.096C140.202 67.968 140.294 67.804 140.294 67.604C140.294 67.388 140.182 67.228 139.958 67.124C139.742 67.012 139.394 66.892 138.914 66.764C138.418 66.644 138.01 66.52 137.69 66.392C137.378 66.264 137.106 66.068 136.874 65.804C136.65 65.54 136.538 65.184 136.538 64.736C136.538 64.368 136.642 64.032 136.85 63.728C137.066 63.424 137.37 63.184 137.762 63.008C138.162 62.832 138.63 62.744 139.166 62.744C139.958 62.744 140.59 62.944 141.062 63.344C141.534 63.736 141.794 64.268 141.842 64.94H140.234C140.21 64.676 140.098 64.468 139.898 64.316C139.706 64.156 139.446 64.076 139.118 64.076C138.814 64.076 138.578 64.132 138.41 64.244C138.25 64.356 138.17 64.512 138.17 64.712C138.17 64.936 138.282 65.108 138.506 65.228C138.73 65.34 139.078 65.456 139.55 65.576C140.03 65.696 140.426 65.82 140.738 65.948C141.05 66.076 141.318 66.276 141.542 66.548C141.774 66.812 141.894 67.164 141.902 67.604C141.902 67.988 141.794 68.332 141.578 68.636C141.37 68.94 141.066 69.18 140.666 69.356C140.274 69.524 139.814 69.608 139.286 69.608ZM147.025 62.756C147.529 62.756 147.977 62.868 148.369 63.092C148.761 63.308 149.065 63.632 149.281 64.064C149.505 64.488 149.617 65 149.617 65.6V69.5H147.937V65.828C147.937 65.3 147.805 64.896 147.541 64.616C147.277 64.328 146.917 64.184 146.461 64.184C145.997 64.184 145.629 64.328 145.357 64.616C145.093 64.896 144.961 65.3 144.961 65.828V69.5H143.281V60.62H144.961V63.68C145.177 63.392 145.465 63.168 145.825 63.008C146.185 62.84 146.585 62.756 147.025 62.756ZM152.067 62.06C151.771 62.06 151.523 61.968 151.323 61.784C151.131 61.592 151.035 61.356 151.035 61.076C151.035 60.796 151.131 60.564 151.323 60.38C151.523 60.188 151.771 60.092 152.067 60.092C152.363 60.092 152.607 60.188 152.799 60.38C152.999 60.564 153.099 60.796 153.099 61.076C153.099 61.356 152.999 61.592 152.799 61.784C152.607 61.968 152.363 62.06 152.067 62.06ZM152.895 62.852V69.5H151.215V62.852H152.895ZM156.235 63.812C156.451 63.508 156.747 63.256 157.123 63.056C157.507 62.848 157.943 62.744 158.431 62.744C158.999 62.744 159.511 62.884 159.967 63.164C160.431 63.444 160.795 63.844 161.059 64.364C161.331 64.876 161.467 65.472 161.467 66.152C161.467 66.832 161.331 67.436 161.059 67.964C160.795 68.484 160.431 68.888 159.967 69.176C159.511 69.464 158.999 69.608 158.431 69.608C157.943 69.608 157.511 69.508 157.135 69.308C156.767 69.108 156.467 68.856 156.235 68.552V72.668H154.555V62.852H156.235V63.812ZM159.751 66.152C159.751 65.752 159.667 65.408 159.499 65.12C159.339 64.824 159.123 64.6 158.851 64.448C158.587 64.296 158.299 64.22 157.987 64.22C157.683 64.22 157.395 64.3 157.123 64.46C156.859 64.612 156.643 64.836 156.475 65.132C156.315 65.428 156.235 65.776 156.235 66.176C156.235 66.576 156.315 66.924 156.475 67.22C156.643 67.516 156.859 67.744 157.123 67.904C157.395 68.056 157.683 68.132 157.987 68.132C158.299 68.132 158.587 68.052 158.851 67.892C159.123 67.732 159.339 67.504 159.499 67.208C159.667 66.912 159.751 66.56 159.751 66.152ZM164.367 63.812C164.583 63.508 164.879 63.256 165.255 63.056C165.639 62.848 166.075 62.744 166.563 62.744C167.131 62.744 167.643 62.884 168.099 63.164C168.563 63.444 168.927 63.844 169.191 64.364C169.463 64.876 169.599 65.472 169.599 66.152C169.599 66.832 169.463 67.436 169.191 67.964C168.927 68.484 168.563 68.888 168.099 69.176C167.643 69.464 167.131 69.608 166.563 69.608C166.075 69.608 165.643 69.508 165.267 69.308C164.899 69.108 164.599 68.856 164.367 68.552V72.668H162.687V62.852H164.367V63.812ZM167.883 66.152C167.883 65.752 167.799 65.408 167.631 65.12C167.471 64.824 167.255 64.6 166.983 64.448C166.719 64.296 166.431 64.22 166.119 64.22C165.815 64.22 165.527 64.3 165.255 64.46C164.991 64.612 164.775 64.836 164.607 65.132C164.447 65.428 164.367 65.776 164.367 66.176C164.367 66.576 164.447 66.924 164.607 67.22C164.775 67.516 164.991 67.744 165.255 67.904C165.527 68.056 165.815 68.132 166.119 68.132C166.431 68.132 166.719 68.052 166.983 67.892C167.255 67.732 167.471 67.504 167.631 67.208C167.799 66.912 167.883 66.56 167.883 66.152ZM171.672 62.06C171.376 62.06 171.128 61.968 170.928 61.784C170.736 61.592 170.64 61.356 170.64 61.076C170.64 60.796 170.736 60.564 170.928 60.38C171.128 60.188 171.376 60.092 171.672 60.092C171.968 60.092 172.212 60.188 172.404 60.38C172.604 60.564 172.704 60.796 172.704 61.076C172.704 61.356 172.604 61.592 172.404 61.784C172.212 61.968 171.968 62.06 171.672 62.06ZM172.5 62.852V69.5H170.82V62.852H172.5ZM177.844 62.756C178.636 62.756 179.276 63.008 179.764 63.512C180.252 64.008 180.496 64.704 180.496 65.6V69.5H178.816V65.828C178.816 65.3 178.684 64.896 178.42 64.616C178.156 64.328 177.796 64.184 177.34 64.184C176.876 64.184 176.508 64.328 176.236 64.616C175.972 64.896 175.84 65.3 175.84 65.828V69.5H174.16V62.852H175.84V63.68C176.064 63.392 176.348 63.168 176.692 63.008C177.044 62.84 177.428 62.756 177.844 62.756ZM184.698 62.744C185.194 62.744 185.63 62.844 186.006 63.044C186.382 63.236 186.678 63.488 186.894 63.8V62.852H188.586V69.548C188.586 70.164 188.462 70.712 188.214 71.192C187.966 71.68 187.594 72.064 187.098 72.344C186.602 72.632 186.002 72.776 185.298 72.776C184.354 72.776 183.578 72.556 182.97 72.116C182.37 71.676 182.03 71.076 181.95 70.316H183.618C183.706 70.62 183.894 70.86 184.182 71.036C184.478 71.22 184.834 71.312 185.25 71.312C185.738 71.312 186.134 71.164 186.438 70.868C186.742 70.58 186.894 70.14 186.894 69.548V68.516C186.678 68.828 186.378 69.088 185.994 69.296C185.618 69.504 185.186 69.608 184.698 69.608C184.138 69.608 183.626 69.464 183.162 69.176C182.698 68.888 182.33 68.484 182.058 67.964C181.794 67.436 181.662 66.832 181.662 66.152C181.662 65.48 181.794 64.884 182.058 64.364C182.33 63.844 182.694 63.444 183.15 63.164C183.614 62.884 184.13 62.744 184.698 62.744ZM186.894 66.176C186.894 65.768 186.814 65.42 186.654 65.132C186.494 64.836 186.278 64.612 186.006 64.46C185.734 64.3 185.442 64.22 185.13 64.22C184.818 64.22 184.53 64.296 184.266 64.448C184.002 64.6 183.786 64.824 183.618 65.12C183.458 65.408 183.378 65.752 183.378 66.152C183.378 66.552 183.458 66.904 183.618 67.208C183.786 67.504 184.002 67.732 184.266 67.892C184.538 68.052 184.826 68.132 185.13 68.132C185.442 68.132 185.734 68.056 186.006 67.904C186.278 67.744 186.494 67.52 186.654 67.232C186.814 66.936 186.894 66.584 186.894 66.176Z" fill="white"/>
<g id="cross-circle-svgrepo-com 1" clip-path="url(#clip0_845_452)">
<g id="Page-1">
<g id="Icon-Set-Filled">
<path id="cross-circle" fill-rule="evenodd" clip-rule="evenodd" d="M278.768 66.825C278.89 66.9469 278.89 67.1469 278.768 67.2688C278.646 67.3906 278.448 67.3906 278.326 67.2688L277.002 65.9438L275.669 67.2781C275.546 67.4 275.346 67.4 275.223 67.2781C275.1 67.1531 275.1 66.9531 275.223 66.8313L276.556 65.4969L275.232 64.175C275.11 64.0531 275.11 63.8531 275.232 63.7312C275.354 63.6094 275.552 63.6094 275.674 63.7312L276.998 65.0562L278.341 63.7125C278.464 63.5906 278.663 63.5906 278.787 63.7125C278.909 63.8375 278.909 64.0344 278.787 64.1594L277.444 65.5031L278.768 66.825ZM277 60.5C274.238 60.5 272 62.7375 272 65.5C272 68.2625 274.238 70.5 277 70.5C279.762 70.5 282 68.2625 282 65.5C282 62.7375 279.762 60.5 277 60.5Z" fill="#FE0101"/>
</g>
</g>
</g>
</g>
<g id="Elements_2">
<g clip-path="url(#clip1_845_452)">
<rect x="6" y="90" width="288" height="244.384" rx="16" fill="#252525"/>
<g id="Ellipse 3077" filter="url(#filter2_fn_845_452)">
<ellipse cx="157.425" cy="102.075" rx="103.472" ry="48.2037" transform="rotate(-44.7437 157.425 102.075)" fill="url(#paint1_radial_845_452)"/>
</g>
<g id="Group 15">
<path id="Union" d="M282 102V278.384H18V102H282ZM19.1523 234.576V277.231H61.8086V234.576H19.1523ZM62.9609 234.576V277.231H105.616V234.576H62.9609ZM106.769 234.576V277.231H149.424V234.576H106.769ZM150.576 234.576V277.231H193.231V234.576H150.576ZM194.384 234.576V277.231H237.04V234.576H194.384ZM238.192 234.576V277.231H280.848V234.576H238.192ZM19.1523 190.769V233.424H61.8086V190.769H19.1523ZM62.9609 190.769V233.424H105.616V190.769H62.9609ZM106.769 190.769V233.424H149.424V190.769H106.769ZM150.576 190.769V233.424H193.231V190.769H150.576ZM194.384 190.769V233.424H237.04V190.769H194.384ZM238.192 190.769V233.424H280.848V190.769H238.192ZM19.1523 146.961V189.616H61.8086V146.961H19.1523ZM62.9609 146.961V189.616H105.616V146.961H62.9609ZM106.769 146.961V189.616H149.424V146.961H106.769ZM150.576 146.961V189.616H193.231V146.961H150.576ZM194.384 146.961V189.616H237.04V146.961H194.384ZM238.192 146.961V189.616H280.848V146.961H238.192ZM19.1523 103.152V145.809H61.8086V103.152H19.1523ZM62.9609 103.152V145.809H105.616V103.152H62.9609ZM106.769 103.152V145.809H149.424V103.152H106.769ZM150.576 103.152V145.809H193.231V103.152H150.576ZM194.384 103.152V145.809H237.04V103.152H194.384ZM238.192 103.152V145.809H280.848V103.152H238.192Z" fill="url(#paint2_radial_845_452)"/>
<path id="Vector 373" d="M42 244.885C42 244.885 72.4288 195.439 101.435 199.272C117.633 201.413 121.142 218.808 137.372 220.696C168.46 224.314 168.114 181.556 194.042 164.026C216.654 148.738 257.623 135 257.623 135" stroke="url(#paint3_linear_845_452)" stroke-width="4.1466" stroke-linecap="round"/>
</g>
<g id="Frame 116">
<g id="Frame 119">
<path id="HRV Increase" d="M25.776 291.008V299.384H24.096V295.82H20.508V299.384H18.828V291.008H20.508V294.452H24.096V291.008H25.776ZM31.7496 299.384L29.9016 296.12H29.1096V299.384H27.4296V291.008H30.5736C31.2216 291.008 31.7736 291.124 32.2296 291.356C32.6856 291.58 33.0256 291.888 33.2496 292.28C33.4816 292.664 33.5976 293.096 33.5976 293.576C33.5976 294.128 33.4376 294.628 33.1176 295.076C32.7976 295.516 32.3216 295.82 31.6896 295.988L33.6936 299.384H31.7496ZM29.1096 294.86H30.5136C30.9696 294.86 31.3096 294.752 31.5336 294.536C31.7576 294.312 31.8696 294.004 31.8696 293.612C31.8696 293.228 31.7576 292.932 31.5336 292.724C31.3096 292.508 30.9696 292.4 30.5136 292.4H29.1096V294.86ZM42.6411 291.008L39.5691 299.384H37.5291L34.4571 291.008H36.2571L38.5611 297.668L40.8531 291.008H42.6411ZM48.1877 291.008V299.384H46.5077V291.008H48.1877ZM53.5315 292.64C54.3235 292.64 54.9635 292.892 55.4515 293.396C55.9395 293.892 56.1835 294.588 56.1835 295.484V299.384H54.5035V295.712C54.5035 295.184 54.3715 294.78 54.1075 294.5C53.8435 294.212 53.4835 294.068 53.0275 294.068C52.5635 294.068 52.1955 294.212 51.9235 294.5C51.6595 294.78 51.5275 295.184 51.5275 295.712V299.384H49.8475V292.736H51.5275V293.564C51.7515 293.276 52.0355 293.052 52.3795 292.892C52.7315 292.724 53.1155 292.64 53.5315 292.64ZM57.3491 296.06C57.3491 295.372 57.4891 294.772 57.7691 294.26C58.0491 293.74 58.4371 293.34 58.9331 293.06C59.4291 292.772 59.9971 292.628 60.6371 292.628C61.4611 292.628 62.1411 292.836 62.6771 293.252C63.2211 293.66 63.5851 294.236 63.7691 294.98H61.9571C61.8611 294.692 61.6971 294.468 61.4651 294.308C61.2411 294.14 60.9611 294.056 60.6251 294.056C60.1451 294.056 59.7651 294.232 59.4851 294.584C59.2051 294.928 59.0651 295.42 59.0651 296.06C59.0651 296.692 59.2051 297.184 59.4851 297.536C59.7651 297.88 60.1451 298.052 60.6251 298.052C61.3051 298.052 61.7491 297.748 61.9571 297.14H63.7691C63.5851 297.86 63.2211 298.432 62.6771 298.856C62.1331 299.28 61.4531 299.492 60.6371 299.492C59.9971 299.492 59.4291 299.352 58.9331 299.072C58.4371 298.784 58.0491 298.384 57.7691 297.872C57.4891 297.352 57.3491 296.748 57.3491 296.06ZM66.6799 293.768C66.8959 293.416 67.1759 293.14 67.5199 292.94C67.8719 292.74 68.2719 292.64 68.7199 292.64V294.404H68.2759C67.7479 294.404 67.3479 294.528 67.0759 294.776C66.8119 295.024 66.6799 295.456 66.6799 296.072V299.384H64.9999V292.736H66.6799V293.768ZM76.0314 295.916C76.0314 296.156 76.0154 296.372 75.9834 296.564H71.1234C71.1634 297.044 71.3314 297.42 71.6274 297.692C71.9234 297.964 72.2874 298.1 72.7194 298.1C73.3434 298.1 73.7874 297.832 74.0514 297.296H75.8634C75.6714 297.936 75.3034 298.464 74.7594 298.88C74.2154 299.288 73.5474 299.492 72.7554 299.492C72.1154 299.492 71.5394 299.352 71.0274 299.072C70.5234 298.784 70.1274 298.38 69.8394 297.86C69.5594 297.34 69.4194 296.74 69.4194 296.06C69.4194 295.372 69.5594 294.768 69.8394 294.248C70.1194 293.728 70.5114 293.328 71.0154 293.048C71.5194 292.768 72.0994 292.628 72.7554 292.628C73.3874 292.628 73.9514 292.764 74.4474 293.036C74.9514 293.308 75.3394 293.696 75.6114 294.2C75.8914 294.696 76.0314 295.268 76.0314 295.916ZM74.2914 295.436C74.2834 295.004 74.1274 294.66 73.8234 294.404C73.5194 294.14 73.1474 294.008 72.7074 294.008C72.2914 294.008 71.9394 294.136 71.6514 294.392C71.3714 294.64 71.1994 294.988 71.1354 295.436H74.2914ZM76.8257 296.036C76.8257 295.364 76.9577 294.768 77.2217 294.248C77.4937 293.728 77.8577 293.328 78.3137 293.048C78.7777 292.768 79.2937 292.628 79.8617 292.628C80.3577 292.628 80.7897 292.728 81.1577 292.928C81.5337 293.128 81.8337 293.38 82.0577 293.684V292.736H83.7497V299.384H82.0577V298.412C81.8417 298.724 81.5417 298.984 81.1577 299.192C80.7817 299.392 80.3457 299.492 79.8497 299.492C79.2897 299.492 78.7777 299.348 78.3137 299.06C77.8577 298.772 77.4937 298.368 77.2217 297.848C76.9577 297.32 76.8257 296.716 76.8257 296.036ZM82.0577 296.06C82.0577 295.652 81.9777 295.304 81.8177 295.016C81.6577 294.72 81.4417 294.496 81.1697 294.344C80.8977 294.184 80.6057 294.104 80.2937 294.104C79.9817 294.104 79.6937 294.18 79.4297 294.332C79.1657 294.484 78.9497 294.708 78.7817 295.004C78.6217 295.292 78.5417 295.636 78.5417 296.036C78.5417 296.436 78.6217 296.788 78.7817 297.092C78.9497 297.388 79.1657 297.616 79.4297 297.776C79.7017 297.936 79.9897 298.016 80.2937 298.016C80.6057 298.016 80.8977 297.94 81.1697 297.788C81.4417 297.628 81.6577 297.404 81.8177 297.116C81.9777 296.82 82.0577 296.468 82.0577 296.06ZM87.9345 299.492C87.3905 299.492 86.9025 299.396 86.4705 299.204C86.0385 299.004 85.6945 298.736 85.4385 298.4C85.1905 298.064 85.0545 297.692 85.0305 297.284H86.7225C86.7545 297.54 86.8785 297.752 87.0945 297.92C87.3185 298.088 87.5945 298.172 87.9225 298.172C88.2425 298.172 88.4905 298.108 88.6665 297.98C88.8505 297.852 88.9425 297.688 88.9425 297.488C88.9425 297.272 88.8305 297.112 88.6065 297.008C88.3905 296.896 88.0425 296.776 87.5625 296.648C87.0665 296.528 86.6585 296.404 86.3385 296.276C86.0265 296.148 85.7545 295.952 85.5225 295.688C85.2985 295.424 85.1865 295.068 85.1865 294.62C85.1865 294.252 85.2905 293.916 85.4985 293.612C85.7145 293.308 86.0185 293.068 86.4105 292.892C86.8105 292.716 87.2785 292.628 87.8145 292.628C88.6065 292.628 89.2385 292.828 89.7105 293.228C90.1825 293.62 90.4425 294.152 90.4905 294.824H88.8825C88.8585 294.56 88.7465 294.352 88.5465 294.2C88.3545 294.04 88.0945 293.96 87.7665 293.96C87.4625 293.96 87.2265 294.016 87.0585 294.128C86.8985 294.24 86.8185 294.396 86.8185 294.596C86.8185 294.82 86.9305 294.992 87.1545 295.112C87.3785 295.224 87.7265 295.34 88.1985 295.46C88.6785 295.58 89.0745 295.704 89.3865 295.832C89.6985 295.96 89.9665 296.16 90.1905 296.432C90.4225 296.696 90.5425 297.048 90.5505 297.488C90.5505 297.872 90.4425 298.216 90.2265 298.52C90.0185 298.824 89.7145 299.064 89.3145 299.24C88.9225 299.408 88.4625 299.492 87.9345 299.492ZM98.1096 295.916C98.1096 296.156 98.0936 296.372 98.0616 296.564H93.2016C93.2416 297.044 93.4096 297.42 93.7056 297.692C94.0016 297.964 94.3656 298.1 94.7976 298.1C95.4216 298.1 95.8656 297.832 96.1296 297.296H97.9416C97.7496 297.936 97.3816 298.464 96.8376 298.88C96.2936 299.288 95.6256 299.492 94.8336 299.492C94.1936 299.492 93.6176 299.352 93.1056 299.072C92.6016 298.784 92.2056 298.38 91.9176 297.86C91.6376 297.34 91.4976 296.74 91.4976 296.06C91.4976 295.372 91.6376 294.768 91.9176 294.248C92.1976 293.728 92.5896 293.328 93.0936 293.048C93.5976 292.768 94.1776 292.628 94.8336 292.628C95.4656 292.628 96.0296 292.764 96.5256 293.036C97.0296 293.308 97.4176 293.696 97.6896 294.2C97.9696 294.696 98.1096 295.268 98.1096 295.916ZM96.3696 295.436C96.3616 295.004 96.2056 294.66 95.9016 294.404C95.5976 294.14 95.2256 294.008 94.7856 294.008C94.3696 294.008 94.0176 294.136 93.7296 294.392C93.4496 294.64 93.2776 294.988 93.2136 295.436H96.3696Z" fill="white"/>
<g id="Frame 118">
<path id="Vector (Stroke)" d="M115 296.134C115 296.548 114.664 296.884 114.25 296.884C113.836 296.884 113.5 296.548 113.5 296.134V294.944L110.28 298.164C110.14 298.305 109.949 298.384 109.75 298.384C109.551 298.384 109.36 298.305 109.22 298.164L106.75 295.694L104.28 298.164C103.987 298.457 103.513 298.457 103.22 298.164C102.927 297.871 102.927 297.396 103.22 297.103L106.22 294.103L106.233 294.09C106.372 293.958 106.557 293.884 106.75 293.884C106.949 293.884 107.14 293.963 107.28 294.103L109.75 296.573L112.439 293.884H111.25C110.836 293.884 110.5 293.548 110.5 293.134C110.5 292.72 110.836 292.384 111.25 292.384H114.25C114.664 292.384 115 292.72 115 293.134V296.134Z" fill="#0077FF"/>
<path id="14%" d="M117.288 293.584V292.552H119.216V298.384H118.064V293.584H117.288ZM120.274 297.248V296.368L122.89 292.624H124.194V296.272H124.898V297.248H124.194V298.384H123.074V297.248H120.274ZM123.146 293.824L121.506 296.272H123.146V293.824ZM125.484 293.984C125.484 293.578 125.601 293.261 125.836 293.032C126.076 292.802 126.382 292.688 126.756 292.688C127.129 292.688 127.433 292.802 127.668 293.032C127.908 293.261 128.028 293.578 128.028 293.984C128.028 294.394 127.908 294.714 127.668 294.944C127.433 295.173 127.129 295.288 126.756 295.288C126.382 295.288 126.076 295.173 125.836 294.944C125.601 294.714 125.484 294.394 125.484 293.984ZM130.62 292.784L127.476 298.384H126.388L129.524 292.784H130.62ZM126.748 293.36C126.454 293.36 126.308 293.568 126.308 293.984C126.308 294.405 126.454 294.616 126.748 294.616C126.892 294.616 127.004 294.565 127.084 294.464C127.164 294.357 127.204 294.197 127.204 293.984C127.204 293.568 127.052 293.36 126.748 293.36ZM128.996 297.176C128.996 296.765 129.113 296.448 129.348 296.224C129.588 295.994 129.894 295.88 130.268 295.88C130.641 295.88 130.942 295.994 131.172 296.224C131.406 296.448 131.524 296.765 131.524 297.176C131.524 297.586 131.406 297.906 131.172 298.136C130.942 298.365 130.641 298.48 130.268 298.48C129.889 298.48 129.582 298.365 129.348 298.136C129.113 297.906 128.996 297.586 128.996 297.176ZM130.26 296.552C129.956 296.552 129.804 296.76 129.804 297.176C129.804 297.597 129.956 297.808 130.26 297.808C130.558 297.808 130.708 297.597 130.708 297.176C130.708 296.76 130.558 296.552 130.26 296.552Z" fill="#0077FF"/>
</g>
</g>
<path id="Vector_4" d="M277 290.384C274.245 290.384 272 292.629 272 295.384C272 298.139 274.245 300.384 277 300.384C279.755 300.384 282 298.139 282 295.384C282 292.629 279.755 290.384 277 290.384ZM279.39 294.234L276.555 297.069C276.485 297.139 276.39 297.179 276.29 297.179C276.19 297.179 276.095 297.139 276.025 297.069L274.61 295.654C274.465 295.509 274.465 295.269 274.61 295.124C274.755 294.979 274.995 294.979 275.14 295.124L276.29 296.274L278.86 293.704C279.005 293.559 279.245 293.559 279.39 293.704C279.535 293.849 279.535 294.084 279.39 294.234Z" fill="#0077FF"/>
</g>
<g id="Frame 117">
<g id="Frame 119_2">
<path id="Sleep Latency" d="M21.72 321.468C21.136 321.468 20.608 321.368 20.136 321.168C19.672 320.968 19.304 320.68 19.032 320.304C18.76 319.928 18.62 319.484 18.612 318.972H20.412C20.436 319.316 20.556 319.588 20.772 319.788C20.996 319.988 21.3 320.088 21.684 320.088C22.076 320.088 22.384 319.996 22.608 319.812C22.832 319.62 22.944 319.372 22.944 319.068C22.944 318.82 22.868 318.616 22.716 318.456C22.564 318.296 22.372 318.172 22.14 318.084C21.916 317.988 21.604 317.884 21.204 317.772C20.66 317.612 20.216 317.456 19.872 317.304C19.536 317.144 19.244 316.908 18.996 316.596C18.756 316.276 18.636 315.852 18.636 315.324C18.636 314.828 18.76 314.396 19.008 314.028C19.256 313.66 19.604 313.38 20.052 313.188C20.5 312.988 21.012 312.888 21.588 312.888C22.452 312.888 23.152 313.1 23.688 313.524C24.232 313.94 24.532 314.524 24.588 315.276H22.74C22.724 314.988 22.6 314.752 22.368 314.568C22.144 314.376 21.844 314.28 21.468 314.28C21.14 314.28 20.876 314.364 20.676 314.532C20.484 314.7 20.388 314.944 20.388 315.264C20.388 315.488 20.46 315.676 20.604 315.828C20.756 315.972 20.94 316.092 21.156 316.188C21.38 316.276 21.692 316.38 22.092 316.5C22.636 316.66 23.08 316.82 23.424 316.98C23.768 317.14 24.064 317.38 24.312 317.7C24.56 318.02 24.684 318.44 24.684 318.96C24.684 319.408 24.568 319.824 24.336 320.208C24.104 320.592 23.764 320.9 23.316 321.132C22.868 321.356 22.336 321.468 21.72 321.468ZM27.8205 312.504V321.384H26.1405V312.504H27.8205ZM35.6603 317.916C35.6603 318.156 35.6443 318.372 35.6123 318.564H30.7523C30.7923 319.044 30.9603 319.42 31.2563 319.692C31.5523 319.964 31.9163 320.1 32.3483 320.1C32.9723 320.1 33.4163 319.832 33.6803 319.296H35.4923C35.3003 319.936 34.9323 320.464 34.3883 320.88C33.8443 321.288 33.1763 321.492 32.3843 321.492C31.7443 321.492 31.1683 321.352 30.6563 321.072C30.1523 320.784 29.7563 320.38 29.4683 319.86C29.1883 319.34 29.0483 318.74 29.0483 318.06C29.0483 317.372 29.1883 316.768 29.4683 316.248C29.7483 315.728 30.1403 315.328 30.6443 315.048C31.1483 314.768 31.7283 314.628 32.3843 314.628C33.0163 314.628 33.5803 314.764 34.0763 315.036C34.5803 315.308 34.9683 315.696 35.2403 316.2C35.5203 316.696 35.6603 317.268 35.6603 317.916ZM33.9203 317.436C33.9123 317.004 33.7563 316.66 33.4523 316.404C33.1483 316.14 32.7763 316.008 32.3363 316.008C31.9203 316.008 31.5683 316.136 31.2803 316.392C31.0003 316.64 30.8283 316.988 30.7643 317.436H33.9203ZM43.0666 317.916C43.0666 318.156 43.0506 318.372 43.0186 318.564H38.1586C38.1986 319.044 38.3666 319.42 38.6626 319.692C38.9586 319.964 39.3226 320.1 39.7546 320.1C40.3786 320.1 40.8226 319.832 41.0866 319.296H42.8986C42.7066 319.936 42.3386 320.464 41.7946 320.88C41.2506 321.288 40.5826 321.492 39.7906 321.492C39.1506 321.492 38.5746 321.352 38.0626 321.072C37.5586 320.784 37.1626 320.38 36.8746 319.86C36.5946 319.34 36.4546 318.74 36.4546 318.06C36.4546 317.372 36.5946 316.768 36.8746 316.248C37.1546 315.728 37.5466 315.328 38.0506 315.048C38.5546 314.768 39.1346 314.628 39.7906 314.628C40.4226 314.628 40.9866 314.764 41.4826 315.036C41.9866 315.308 42.3746 315.696 42.6466 316.2C42.9266 316.696 43.0666 317.268 43.0666 317.916ZM41.3266 317.436C41.3186 317.004 41.1626 316.66 40.8586 316.404C40.5546 316.14 40.1826 316.008 39.7426 316.008C39.3266 316.008 38.9746 316.136 38.6866 316.392C38.4066 316.64 38.2346 316.988 38.1706 317.436H41.3266ZM45.9728 315.696C46.1888 315.392 46.4848 315.14 46.8608 314.94C47.2448 314.732 47.6808 314.628 48.1688 314.628C48.7368 314.628 49.2488 314.768 49.7048 315.048C50.1688 315.328 50.5328 315.728 50.7968 316.248C51.0688 316.76 51.2048 317.356 51.2048 318.036C51.2048 318.716 51.0688 319.32 50.7968 319.848C50.5328 320.368 50.1688 320.772 49.7048 321.06C49.2488 321.348 48.7368 321.492 48.1688 321.492C47.6808 321.492 47.2488 321.392 46.8728 321.192C46.5048 320.992 46.2048 320.74 45.9728 320.436V324.552H44.2928V314.736H45.9728V315.696ZM49.4888 318.036C49.4888 317.636 49.4048 317.292 49.2368 317.004C49.0768 316.708 48.8608 316.484 48.5888 316.332C48.3248 316.18 48.0368 316.104 47.7248 316.104C47.4208 316.104 47.1328 316.184 46.8608 316.344C46.5968 316.496 46.3808 316.72 46.2128 317.016C46.0528 317.312 45.9728 317.66 45.9728 318.06C45.9728 318.46 46.0528 318.808 46.2128 319.104C46.3808 319.4 46.5968 319.628 46.8608 319.788C47.1328 319.94 47.4208 320.016 47.7248 320.016C48.0368 320.016 48.3248 319.936 48.5888 319.776C48.8608 319.616 49.0768 319.388 49.2368 319.092C49.4048 318.796 49.4888 318.444 49.4888 318.036ZM56.965 320.052H59.725V321.384H55.285V313.008H56.965V320.052ZM60.3608 318.036C60.3608 317.364 60.4928 316.768 60.7568 316.248C61.0288 315.728 61.3928 315.328 61.8488 315.048C62.3128 314.768 62.8288 314.628 63.3968 314.628C63.8928 314.628 64.3248 314.728 64.6928 314.928C65.0688 315.128 65.3688 315.38 65.5928 315.684V314.736H67.2848V321.384H65.5928V320.412C65.3768 320.724 65.0768 320.984 64.6928 321.192C64.3168 321.392 63.8808 321.492 63.3848 321.492C62.8248 321.492 62.3128 321.348 61.8488 321.06C61.3928 320.772 61.0288 320.368 60.7568 319.848C60.4928 319.32 60.3608 318.716 60.3608 318.036ZM65.5928 318.06C65.5928 317.652 65.5128 317.304 65.3528 317.016C65.1928 316.72 64.9768 316.496 64.7048 316.344C64.4328 316.184 64.1408 316.104 63.8288 316.104C63.5168 316.104 63.2288 316.18 62.9648 316.332C62.7008 316.484 62.4848 316.708 62.3168 317.004C62.1568 317.292 62.0768 317.636 62.0768 318.036C62.0768 318.436 62.1568 318.788 62.3168 319.092C62.4848 319.388 62.7008 319.616 62.9648 319.776C63.2368 319.936 63.5248 320.016 63.8288 320.016C64.1408 320.016 64.4328 319.94 64.7048 319.788C64.9768 319.628 65.1928 319.404 65.3528 319.116C65.5128 318.82 65.5928 318.468 65.5928 318.06ZM70.8817 316.116V319.332C70.8817 319.556 70.9337 319.72 71.0377 319.824C71.1497 319.92 71.3337 319.968 71.5897 319.968H72.3697V321.384H71.3137C69.8977 321.384 69.1897 320.696 69.1897 319.32V316.116H68.3977V314.736H69.1897V313.092H70.8817V314.736H72.3697V316.116H70.8817ZM79.758 317.916C79.758 318.156 79.742 318.372 79.71 318.564H74.85C74.89 319.044 75.058 319.42 75.354 319.692C75.65 319.964 76.014 320.1 76.446 320.1C77.07 320.1 77.514 319.832 77.778 319.296H79.59C79.398 319.936 79.03 320.464 78.486 320.88C77.942 321.288 77.274 321.492 76.482 321.492C75.842 321.492 75.266 321.352 74.754 321.072C74.25 320.784 73.854 320.38 73.566 319.86C73.286 319.34 73.146 318.74 73.146 318.06C73.146 317.372 73.286 316.768 73.566 316.248C73.846 315.728 74.238 315.328 74.742 315.048C75.246 314.768 75.826 314.628 76.482 314.628C77.114 314.628 77.678 314.764 78.174 315.036C78.678 315.308 79.066 315.696 79.338 316.2C79.618 316.696 79.758 317.268 79.758 317.916ZM78.018 317.436C78.01 317.004 77.854 316.66 77.55 316.404C77.246 316.14 76.874 316.008 76.434 316.008C76.018 316.008 75.666 316.136 75.378 316.392C75.098 316.64 74.926 316.988 74.862 317.436H78.018ZM84.6683 314.64C85.4603 314.64 86.1003 314.892 86.5883 315.396C87.0763 315.892 87.3203 316.588 87.3203 317.484V321.384H85.6403V317.712C85.6403 317.184 85.5083 316.78 85.2443 316.5C84.9803 316.212 84.6203 316.068 84.1643 316.068C83.7003 316.068 83.3323 316.212 83.0603 316.5C82.7963 316.78 82.6643 317.184 82.6643 317.712V321.384H80.9843V314.736H82.6643V315.564C82.8883 315.276 83.1723 315.052 83.5163 314.892C83.8683 314.724 84.2523 314.64 84.6683 314.64ZM88.4858 318.06C88.4858 317.372 88.6258 316.772 88.9058 316.26C89.1858 315.74 89.5738 315.34 90.0698 315.06C90.5658 314.772 91.1338 314.628 91.7738 314.628C92.5978 314.628 93.2778 314.836 93.8138 315.252C94.3578 315.66 94.7218 316.236 94.9058 316.98H93.0938C92.9978 316.692 92.8338 316.468 92.6018 316.308C92.3778 316.14 92.0978 316.056 91.7618 316.056C91.2818 316.056 90.9018 316.232 90.6218 316.584C90.3418 316.928 90.2018 317.42 90.2018 318.06C90.2018 318.692 90.3418 319.184 90.6218 319.536C90.9018 319.88 91.2818 320.052 91.7618 320.052C92.4418 320.052 92.8858 319.748 93.0938 319.14H94.9058C94.7218 319.86 94.3578 320.432 93.8138 320.856C93.2698 321.28 92.5898 321.492 91.7738 321.492C91.1338 321.492 90.5658 321.352 90.0698 321.072C89.5738 320.784 89.1858 320.384 88.9058 319.872C88.6258 319.352 88.4858 318.748 88.4858 318.06ZM102.497 314.736L98.3806 324.528H96.5926L98.0326 321.216L95.3686 314.736H97.2526L98.9686 319.38L100.709 314.736H102.497Z" fill="white"/>
<g id="Frame 118_2">
<path id="Vector (Stroke)_2" d="M119 316.634C119 316.22 118.664 315.884 118.25 315.884C117.836 315.884 117.5 316.22 117.5 316.634V317.823L114.28 314.603C114.14 314.463 113.949 314.384 113.75 314.384C113.551 314.384 113.36 314.463 113.22 314.603L110.75 317.073L108.28 314.603C107.987 314.311 107.513 314.311 107.22 314.603C106.927 314.896 106.927 315.371 107.22 315.664L110.22 318.664L110.233 318.677C110.372 318.81 110.557 318.884 110.75 318.884C110.949 318.884 111.14 318.805 111.28 318.664L113.75 316.194L116.439 318.884H115.25C114.836 318.884 114.5 319.22 114.5 319.634C114.5 320.048 114.836 320.384 115.25 320.384H118.25C118.664 320.384 119 320.048 119 319.634V316.634Z" fill="#0077FF"/>
<path id="22 min" d="M121.776 319.12C122.288 318.693 122.696 318.338 123 318.056C123.304 317.768 123.557 317.469 123.76 317.16C123.963 316.85 124.064 316.546 124.064 316.248C124.064 315.976 124 315.762 123.872 315.608C123.744 315.453 123.547 315.376 123.28 315.376C123.013 315.376 122.808 315.466 122.664 315.648C122.52 315.824 122.445 316.066 122.44 316.376H121.352C121.373 315.736 121.563 315.25 121.92 314.92C122.283 314.589 122.741 314.424 123.296 314.424C123.904 314.424 124.371 314.586 124.696 314.912C125.021 315.232 125.184 315.656 125.184 316.184C125.184 316.6 125.072 316.997 124.848 317.376C124.624 317.754 124.368 318.085 124.08 318.368C123.792 318.645 123.416 318.981 122.952 319.376H125.312V320.304H121.36V319.472L121.776 319.12ZM126.37 319.12C126.882 318.693 127.29 318.338 127.594 318.056C127.898 317.768 128.151 317.469 128.354 317.16C128.556 316.85 128.658 316.546 128.658 316.248C128.658 315.976 128.594 315.762 128.466 315.608C128.338 315.453 128.14 315.376 127.874 315.376C127.607 315.376 127.402 315.466 127.258 315.648C127.114 315.824 127.039 316.066 127.034 316.376H125.946C125.967 315.736 126.156 315.25 126.514 314.92C126.876 314.589 127.335 314.424 127.89 314.424C128.498 314.424 128.964 314.586 129.29 314.912C129.615 315.232 129.778 315.656 129.778 316.184C129.778 316.6 129.666 316.997 129.442 317.376C129.218 317.754 128.962 318.085 128.674 318.368C128.386 318.645 128.01 318.981 127.546 319.376H129.906V320.304H125.954V319.472L126.37 319.12ZM138.15 315.888C138.694 315.888 139.131 316.056 139.462 316.392C139.798 316.722 139.966 317.186 139.966 317.784V320.384H138.846V317.936C138.846 317.589 138.758 317.325 138.582 317.144C138.406 316.957 138.166 316.864 137.862 316.864C137.558 316.864 137.315 316.957 137.134 317.144C136.958 317.325 136.87 317.589 136.87 317.936V320.384H135.75V317.936C135.75 317.589 135.662 317.325 135.486 317.144C135.31 316.957 135.07 316.864 134.766 316.864C134.456 316.864 134.211 316.957 134.03 317.144C133.854 317.325 133.766 317.589 133.766 317.936V320.384H132.646V315.952H133.766V316.488C133.91 316.301 134.094 316.154 134.318 316.048C134.547 315.941 134.798 315.888 135.07 315.888C135.416 315.888 135.726 315.962 135.998 316.112C136.27 316.256 136.48 316.464 136.63 316.736C136.774 316.48 136.982 316.274 137.254 316.12C137.531 315.965 137.83 315.888 138.15 315.888ZM141.597 315.424C141.399 315.424 141.234 315.362 141.101 315.24C140.973 315.112 140.909 314.954 140.909 314.768C140.909 314.581 140.973 314.426 141.101 314.304C141.234 314.176 141.399 314.112 141.597 314.112C141.794 314.112 141.957 314.176 142.085 314.304C142.218 314.426 142.285 314.581 142.285 314.768C142.285 314.954 142.218 315.112 142.085 315.24C141.957 315.362 141.794 315.424 141.597 315.424ZM142.149 315.952V320.384H141.029V315.952H142.149ZM145.711 315.888C146.239 315.888 146.666 316.056 146.991 316.392C147.316 316.722 147.479 317.186 147.479 317.784V320.384H146.359V317.936C146.359 317.584 146.271 317.314 146.095 317.128C145.919 316.936 145.679 316.84 145.375 316.84C145.066 316.84 144.82 316.936 144.639 317.128C144.463 317.314 144.375 317.584 144.375 317.936V320.384H143.255V315.952H144.375V316.504C144.524 316.312 144.714 316.162 144.943 316.056C145.178 315.944 145.434 315.888 145.711 315.888Z" fill="#0077FF"/>
</g>
</g>
<path id="Vector_5" d="M277 312.384C274.245 312.384 272 314.629 272 317.384C272 320.139 274.245 322.384 277 322.384C279.755 322.384 282 320.139 282 317.384C282 314.629 279.755 312.384 277 312.384ZM279.39 316.234L276.555 319.069C276.485 319.139 276.39 319.179 276.29 319.179C276.19 319.179 276.095 319.139 276.025 319.069L274.61 317.654C274.465 317.509 274.465 317.269 274.61 317.124C274.755 316.979 274.995 316.979 275.14 317.124L276.29 318.274L278.86 315.704C279.005 315.559 279.245 315.559 279.39 315.704C279.535 315.849 279.535 316.084 279.39 316.234Z" fill="#0077FF"/>
</g>
</g>
<rect x="6.5" y="90.5" width="287" height="243.384" rx="15.5" stroke="url(#paint4_linear_845_452)"/>
</g>
</g>
<defs>
<filter id="filter1_f_845_452" x="14" y="14.5" width="18" height="18" filterUnits="userSpaceOnUse" color-interpolation-filters="sRGB">
<feFlood flood-opacity="0" result="BackgroundImageFix"/>
<feBlend mode="normal" in="SourceGraphic" in2="BackgroundImageFix" result="shape"/>
<feGaussianBlur stdDeviation="2" result="effect1_foregroundBlur_845_452"/>
</filter>
<filter id="filter2_fn_845_452" x="-3.54248" y="-58.4272" width="321.935" height="321.005" filterUnits="userSpaceOnUse" color-interpolation-filters="sRGB">
<feFlood flood-opacity="0" result="BackgroundImageFix"/>
<feBlend mode="normal" in="SourceGraphic" in2="BackgroundImageFix" result="shape"/>
<feGaussianBlur stdDeviation="40" result="effect1_foregroundBlur_845_452"/>
<feTurbulence type="fractalNoise" baseFrequency="2 2" stitchTiles="stitch" numOctaves="3" result="noise" seed="9213" />
<feColorMatrix in="noise" type="luminanceToAlpha" result="alphaNoise" />
<feComponentTransfer in="alphaNoise" result="coloredNoise1">
<feFuncA type="discrete" tableValues="1 1 1 1 1 1 1 1 1 1 1 1 1 1 1 1 1 1 1 1 1 1 1 1 1 1 1 1 1 1 1 1 1 1 1 1 1 1 1 1 1 1 1 1 1 1 1 1 1 1 1 0 0 0 0 0 0 0 0 0 0 0 0 0 0 0 0 0 0 0 0 0 0 0 0 0 0 0 0 0 0 0 0 0 0 0 0 0 0 0 0 0 0 0 0 0 0 0 0 0 "/>
</feComponentTransfer>
<feComposite operator="in" in2="effect1_foregroundBlur_845_452" in="coloredNoise1" result="noise1Clipped" />
<feFlood flood-color="rgba(0, 0, 0, 0.2)" result="color1Flood" />
<feComposite operator="in" in2="noise1Clipped" in="color1Flood" result="color1" />
<feMerge result="effect2_noise_845_452">
<feMergeNode in="effect1_foregroundBlur_845_452" />
<feMergeNode in="color1" />
</feMerge>
</filter>
<linearGradient id="paint0_linear_845_452" x1="6" y1="47" x2="245.052" y2="-44.2426" gradientUnits="userSpaceOnUse">
<stop stop-color="#848484"/>
<stop offset="1" stop-color="#848484" stop-opacity="0"/>
</linearGradient>
<radialGradient id="paint1_radial_845_452" cx="0" cy="0" r="1" gradientUnits="userSpaceOnUse" gradientTransform="translate(157.425 102.075) rotate(90) scale(48.2036 125.09)">
<stop stop-color="#0077FF"/>
<stop offset="1" stop-color="#0077FF" stop-opacity="0"/>
</radialGradient>
<radialGradient id="paint2_radial_845_452" cx="0" cy="0" r="1" gradientTransform="matrix(70.3231 -87.6158 106.867 26.1381 107.345 229.965)" gradientUnits="userSpaceOnUse">
<stop stop-color="#848484"/>
<stop offset="1" stop-color="#848484" stop-opacity="0"/>
</radialGradient>
<linearGradient id="paint3_linear_845_452" x1="42" y1="225.047" x2="219.797" y2="86.5233" gradientUnits="userSpaceOnUse">
<stop stop-color="#5DA2FF"/>
<stop offset="0.5" stop-color="#0055C6"/>
<stop offset="0.75" stop-color="#D7E8FF"/>
<stop offset="1" stop-color="#5DA2FF"/>
</linearGradient>
<linearGradient id="paint4_linear_845_452" x1="6" y1="90" x2="278.966" y2="74.2259" gradientUnits="userSpaceOnUse">
<stop stop-color="#848484"/>
<stop offset="1" stop-color="#848484" stop-opacity="0"/>
</linearGradient>
<clipPath id="clip0_845_452">
<rect width="10" height="10" fill="white" transform="translate(272 60.5)"/>
</clipPath>
<clipPath id="clip1_845_452">
<rect x="6" y="90" width="288" height="244.384" rx="16" fill="white"/>
</clipPath>
</defs>
</svg>
